<svg width="66" height="20" viewBox="0 0 66 20" fill="none" xmlns="http://www.w3.org/2000/svg">
<path d="M29.5851 0H21.1414L22.7665 1.88766V20H27.5243V12.0214H29.6154C31.5246 12.0214 33.0398 11.475 34.1573 10.3745C35.2748 9.2778 35.8316 7.80283 35.8316 5.95338C35.8316 4.10394 35.3051 2.57929 34.2558 1.54757C33.2065 0.515858 31.6496 0 29.5851 0ZM30.445 7.35575C30.1419 7.69201 29.7214 7.86397 29.1835 7.86397H27.5243V4.16507H29.1835C29.7214 4.16507 30.1419 4.32556 30.445 4.65418C30.7518 4.9828 30.9033 5.42606 30.9033 5.98395C30.9033 6.54184 30.7518 7.01949 30.445 7.35575Z" fill="black"/>
<path d="M66 20H60.4694L56.5449 13.9014C55.9312 14.807 55.3592 15.6859 54.8251 16.5304C54.291 17.3787 53.8137 18.1391 53.3932 18.8154C52.9727 19.488 52.7227 19.8854 52.647 20H47.2906L53.7948 9.68284L47.5217 0H53.3364L56.8025 5.49102L60.155 0H65.7689L59.5527 9.82805L66 20Z" fill="black"/>
<path d="M41.9607 15.491H46.658V20H37.1801V1.88766L35.5513 0H46.5746V4.50898H41.9607V7.60413H46.4345V12.052H41.9607V15.491Z" fill="black"/>
<path d="M11.7886 0H19.0049V20H8.99294L11.6787 15.342H14.5577V7.19908L5.64805 20H0L12.9704 1.3718L11.7886 0Z" fill="black"/>
</svg>
