<?xml version="1.0" encoding="UTF-8"?>
<svg id="Layer_1" data-name="Layer 1" xmlns="http://www.w3.org/2000/svg" viewBox="0 0 936 2606.22">
  <defs>
    <style>
      .cls-1 {
        fill: #c26c2c;
      }

      .cls-2 {
        fill: #e9e5d1;
      }
    </style>
  </defs>
  <path class="cls-2" d="M508.11,1685.4l-2.38-18.99c-4.02-32.08-9.37-62.37-15.82-93.98-8.8-43.09-14-84.86-18.77-128.36-1.24-11.29,2.04-21.34-2.56-33.27-3.04,12.84-1.42,23.29-2.71,35.5-6.48,61.34-16.12,120.77-28.14,181.27-3.65,18.37-5.02,35.81-7.67,54.2-3.02,20.99-3.38,41.9-5.12,63.39-3.9,48.07-12.03,115.35-29.71,159.94-5.77,14.55-5.42,28.05-2.89,43.16l11.03,65.98,1.87,28.18c1.36,20.42-3.57,60.83-9.94,80.75-10.16,31.78-15.84,63.47-21.53,96.44l-10.06,58.32-4.29,36.22c-9.65,81.57,18.26,76.92,5.76,125.98-7.94,31.16,4.03,48.25,6.2,75.85,1,12.77-.83,27.36-9.49,36.9-12.78,14.08-32.27,18.38-50.94,16.75-33.66-2.94-37.27-21.97-75.9-20.77-14.35.45-26.56-6.8-38.82-12.09-9.8-4.22-17.81-8.87-18.39-20.17-1.31-25.93,32.1-23.3,42.87-33.09,14.52-13.18,27.24-27.41,40.57-41.8l-.14-23.85c-.2-32.28,5.42-63.29-.19-95.91l-21.59-125.5-19.73-112.28c-9.4-53.52-.42-98.35,11.83-149.99l9.49-39.97c4.87-20.54,4.08-102.54,1.77-125.63-2.11-21.12-11.64-40.3-16.73-60.89-11.69-47.29-18.95-94.52-24.49-143.17l-2.74-24.07c-3.46-30.4-.35-138.33,3.36-173.81,3.59-34.25,9.33-67.01,14.87-100.68l8.76-53.18c3.81-23.15,7.62-45.69,13.98-68.04,5.78-20.3,12.3-40.05,9.3-61.41-7.46-53.09,9.39-86.45,6.04-124.52-3.46-39.24-15.07-78.91-29.73-117.71-6.49,19.61-9.02,37.02-13.69,55.57-4.84,19.22-13.14,37.96-12.95,58.19l.59,60.76c.33,33.93-16.36,105.3-29.28,138.65-15.8,40.78-27.06,82.64-31.9,126.15-3.61,32.46,28.2,28.62,33.82,89.07,3.14,33.78,23.08,80.33.51,89.1-6.68,2.59-13.24,1.2-18.89-2.73-16.76-11.65-11.79-42.7-22.25-51.95-6.4,16.16-6.86,35.56,3.61,49.13,5.25,6.81,14.56,11.48,21.13,16.37,7.63,5.68,6.45,13.36,10.37,20.28,5.09,8.97,14.28,16.85,7.53,28.6-10.18,17.72-61.5-16.26-74.76-24.03-8.24-4.84-15.62-10.73-19.01-20.11-6.71-18.57-15.84-34.91-25.11-52.71-1.95-7.2-.82-18.85-.39-26.68l2.24-40.06c1.12-20.04,1.16-38.07-1.12-58.13-2.31-20.34,4.69-59.65-.48-105.81-2.24-20.04-3-39.88-5.3-59.79l-2.6-22.42c-2.97-25.62-.68-50.96-.3-76.66,1.09-74.51,27.98-121.73,28.45-148.77l1.48-85.72c.27-15.65,11.48-61.4,16.73-76.58,12.76-36.92,3.46-38.53,2.04-63.96-2.77-49.71,11.58-99.61,41.54-139.1,35.76-47.14,95.99-45.91,108.84-52.82l97.18-52.36c19.36-10.43,32.58-21.46,31.13-43.29-.96-14.46,3.71-29.77-1.42-43.77-4.05-11.07-4.41-26.35-10.54-35.13-3.05-4.37-35.37-19.21-32.63-80.86.45-10.14,6.26-16.44,17.44-17.4.31-15.92-2.08-30.5-.34-45.62,2.88-25.05,11.6-49.61,28.24-68.75,38.17-43.91,101.3-53.55,152.14-26.44,33.14,17.67,57.31,49.1,58.09,86.95l1.1,53.12c35.75-.63,13.39,78.61-2.73,89.23l-13.62,8.97c.76,12.35-4.48,22.83-7.1,34.18-4.23,18.39-.17,37.05.3,55.67.27,10.62,5.62,17.92,14.47,23.06,8.29,4.82,16.18,10.39,24.83,14.9l52.58,27.4c13.55,7.06,25.69,16.93,40.46,21.5,14.08,4.35,28.27,5.1,42.14,10.25,17.9,6.64,36.08,13.56,49.57,27.73,25.29,26.55,41.14,59.61,49.8,95.36,13.17,54.37-8.29,80.06,3.82,116.1,10.34,30.76,17.65,62.45,18.32,95.28l1.07,51.91c1.32,64.16,23.77,76.93,27.12,147.94l1.51,32.02c.98,20.85,1.42,41.25-.11,62.02l-2.66,36.04-5.56,57.91c-3.06,31.9-.64,62.18.18,94.02.47,18.19-4.63,35.31-2.05,53.88,1.71,12.32-.68,24.13,1.9,36.72,8.78,42.83-8.53,49.63-16.29,70.38-3.5,9.37-6.34,22.13-13.74,29.1-13.09,12.34-61.82,43.59-81.36,39.82-11.16-2.15-11.59-19.31-4.82-26.01,14.49-14.33-2.09-16,25.64-33.71,13.96-8.92,21.35-21.36,19.38-38.64-.76-6.69,2.51-15.87-5.85-19.91-5.31,13-6.05,24.68-9.79,36.73-3.81,12.26-17.76,22.13-30.35,17.51-8.78-3.22-11.15-15.23-9.91-23.37l2.7-17.59c2.5-16.35,6.24-31.62,7.52-48.15,4.94-63.92,39.89-54.4,34.52-92.26-13.12-92.42-53.03-167.59-58.16-233.06l-2.3-29.39.61-60.08c.28-27.27-12.38-52.91-18.44-79.51l-8.04-35.29c-12.94,33.68-22.27,66.32-28.31,100.94-3.09,17.73-2.87,34.45-.43,52.07l6.19,44.61c4.13,29.74-4.13,54.81-1.16,67.55l18.22,78.08,14.3,86.44c4.53,27.39,14.13,79.11,15.42,104.88l3.03,60.39c1.8,35.92,4.92,71.74.3,107.4l-3.13,24.16c-2.03,15.69-3.59,31.04-5.73,46.86-6.34,46.74-16.65,91.56-31.72,136.22-2.7,8.02-5.17,16.25-5.13,24.76l.39,95.44c.07,18.3,4.19,35.46,8.9,53.01,7.62,28.37,13.42,55.98,16.7,85.42,2.2,19.8,1.92,37.94-.01,57.99l-2.14,22.14-25.64,143.61c-7.71,43.19-15.48,84.34-19.72,127.76-1.92,19.69,2.15,37.54,2.78,56.72l.82,25.18c14.27,15.08,27.44,30.09,42.69,43.72,10.03,8.96,30.44,1.25,38.82,24.65,4.76,13.28-4.95,22.2-16.11,26.81-12.78,5.27-24.12,12.6-39.1,12.18-12.04-.34-24.9.83-35.67,6.7-19.58,10.68-41.03,17.91-63.27,12.65-12.18-2.88-24.98-8.72-31.29-19.45-19.08-32.43,10.88-68.91-.41-109.69-11.75-42.47,17.94-55.51,5.86-131.28l-18.74-117.53c-2.94-18.43-6.42-35.81-12.24-53.72-13.8-42.48-17.32-86.25-10.33-130.39l9.2-58.03c2-12.58,2.82-24.64-1.29-36.95-17.06-51.01-27.02-105.19-30.93-159.01l-2.18-30-3.07-36.87ZM384.6,392.88c-9.6,10.2-19.33,20.17-32.62,27.29l-72.83,39.04c-8.31,4.45-16.58,8.56-21.6,14.48,10.91,21.3,49.67,34.76,71.6,43.81,33.17,13.69,14.84,75.61,18.06,109.61,2.38,25.07,7.57,49.91,16.72,73.07l10.17,25.76c12.65,32.05,22.25,47.67,34.42,77.31-37.05-51.66-59.53-112.6-71.56-176-4.24-22.37-9.51-42.96-15.39-64.32-10.36-37.62-34.73-47.88-64.79-69.09-5.43-3.83-7.78-10.25-8.96-15.86-9.84-1.33-20.88,4.5-30.38,5.77-35.09,4.68-63.5,25.35-81.62,56.4-25.78,44.17-37.59,96.47-22.8,145.02,1.39,10.24-4.05,21.43-4.08,31.69-12.81,22.71-16.03,50.32-19.77,76.24-1.84,12.73-2.79,26.05-1.73,40.1,2.32,30.85-.49,60.8-5.98,90.14-4.01,2.37-4.89,6.78-6.51,11.29-12.63,35.09-15.64,70.37-15.25,106.18.31,28.37-.52,56.56,1.69,86.06l5.28,70.65c1.91,25.6.86,51.26,0,77.05-.37,11.07-1.69,20.23.79,31.01,4.9,21.36.96,43.24-.51,64.96l-2.02,29.86c-.77,11.43,2.6,20.06,7.93,29.17,7.39,12.65,13.38,26.84,25.42,36.44,15.24,12.16,34.51,18.7,52.92,26.5,3.32-8.67-2.21-12.15-7.08-15.05l-31.46-18.73c-9.07-5.4-15.25-22.97-16.86-31.96,1.27-.33,2.44-.93,3.49-1.71,4.25,5.01,9.25,27.26,22.06,30.35-5.49-14.95-6.89-27.35-4.82-41.7,2.74-18.92,7.94-18.95,28.79-24.96-2,8.36.1,14.74,1.96,21.95l5.8,22.43c1.41,5.45,6.11,18.52,13.8,15.06,5.83-2.62,4.7-16.29,3.35-21.97-4.51-19-8.31-36.55-10.17-55.85-5.6-58.24-38.55-51.94-34.16-89.76,2.93-25.26,7.17-49.64,14.73-73.96l18.7-60.09c7.98-12.44,9.32-29.66,13.55-43.67,5.87-19.43,10.79-39.76,10.62-59.9,6.33-25.78,4.58-53.66,2.51-82.22.14-6.7.86-13.61,1.97-21.04,2.45-9.28,4.47-18.01,5.57-26.71,5.51-6.59,4.43-17.56,8.37-25.73,3.92-8.14,3.18-16.62,5.25-24.23,5.92-21.8,6.15-38.95,15.66-57.87,6.06,3.82,5.65,9.93,8.71,14.03,14.02,44.02,26.85,76.9,33.55,123.64.61,4.24,2.23,8.64,2.43,14,1.52,41.79-13.8,93.04-7.13,120.52,2.51,10.34-.56,18.58.87,31.42,15.86-17.01,36.14-23.17,57.74-23.26,38.57-.17,72.24,29.87,96.15,54.55,1.05,1.08.55,4.78,3.84,4.91,1.9.07,2.4-1.85,1.96-3.07s-2.44-1.44-3.83-1.87c-11.96-21.72-31.82-38.11-52.73-52.41-5.13-3.51-3.14-11.57-4.18-15.96l1.5-42.22c.9-25.44,55.52-28.43,71.2-122.53,1.19-7.13.39-14.68,4.77-22.58,14.91,21.08,22.56,45,22.43,71.27-.33,62.14,2.18,123,7.25,185.2.44,5.46-3.39,11.43,2.59,15.21,5.44-69.01,8.02-136.43,7.88-205.2-.05-23.96,7.8-44.81,21.52-64.11,3.41,3.29,2.47,7.12,3.17,10.6,1.79,28.14,22.36,83.51,45.65,100.12,38.63,27.56,22.92,44.1,27.72,71.67.77,4.42-.32,13.99-3.24,17.55-17.17,13.28-34.89,25.12-46.27,44.61-2.55,4.37-7.66,7.55-9.31,13.51,5.15-2.4,6.81-7.82,11.11-11.84,40.46-37.77,96.7-71.71,147.97-25.04-.76-12.9-.74-22.75,1.18-33.87,7.05-40.87-14.49-85.04-6.79-126.94,4.59-25.01,10.02-50.32,17.65-75.71l19.58-56.47c1.35-3.9,3.19-7.43,6.06-9.83,5.04,5.42,6.31,11.9,7.86,18.73l8.88,39.27c3.49,15.44,5.26,31.72,11.6,46.39,3.33,17.11,9.06,33.83,9.11,51.32.06,22.2-5,45.98.33,67.85-.72,20.54,8.45,61.92,15.23,81.89,4.77,25.08,15.19,49.14,24.19,75.95,4.13,23.91,31.94,102.87,13.29,122.39-18.62,19.49-29.26,43.35-28.84,70.74-2.3,17.14-4.57,33.21-9.56,49.87-1.49,4.98-2.18,14.38,1.17,17.94,13.28,14.07,29.34-52.27,23.14-58.14l2.27-.87c7.62,1.53,21.41,3.21,25.26,12.27,7.48,17.59,5.06,39.09-2.81,55.73,10.85-4.26,18.55-25.36,22.1-38.05,5.2,7.28,2.07,14.61-1.09,22.07-11.24,26.48-27.72,23.11-49.8,41.65-1.99,1.67-2.78,9.11-.05,8.51,13.8-3.03,25.76-10.23,37.57-16.15,18.67-9.37,30.6-23.58,38.81-42.47,4.71-10.84,10.84-20.09,8.86-33.54-2.57-17.41-5.8-72.01-3.08-89.5.97-6.21,1.29-11.25,1.14-16.62-.31-10.71.18-21.78-1.22-33.46-2.39-19.91,1.37-39.2.28-57.98,1.34-5.07,6.19-64.08,5.84-65.99-1.15-6.31,1.58-12.05,1.68-18.1l.81-49.73-.62-29.92c-.8-38.57-4.04-78.92-19.9-114.2-5.68-25.48-9.31-51.68-7.66-77.8,2.97-32.49-1.76-87.12-17.81-117.94-3.64-20.82-9.93-31.81-4.34-53.93,9.63-45.93-.79-91.76-25.16-132.41-18.31-30.54-46.14-50.33-80.6-57.16l-30.71-6.08c-2.81,1.74-1.6,6.44-4.03,9.13-26.93,29.77-52.72,25.88-67.6,68.82-22.5,64.94-18.41,112.96-52.57,182.65-10.32,21.06-20.31,41.36-33.46,60.82-3.73,5.52-7.51,10.6-9.8,16.13-1.89.2-2.34-1.62-.17-2.49l34.88-70.93c11.79-23.97,19.48-48.46,25.77-74.4,14.56-60.1.04-67.58,5.14-120.33,1.4-14.5,12.22-28.72,26.24-33.32,20.31-6.67,39.86-14.14,55.91-28.5,3.66-3.28,5.52-8.09,11.47-9.98-13.15-10.56-26.16-17.45-40.3-25l-55.47-29.62c-26.67-14.24-28.99-25.95-34.88-27.83l-.99-73.13c12.38-14.23,7.79-58.12,19.24-51.4,2.07,1.22,1.47,6.66,4.28,5.73,14.55-4.82,26.97-63.19,16.82-68.41-5.38-2.76-11.41,2.95-15.94,6.23-3.36-7.32-.06-14.57.21-22.24,1.35-37.3,1.73-71.59-22.77-102.54-12.34-15.59-27.74-24.56-45.36-31.59-42.49-16.96-101.79-1.14-126.55,35.86-22.41,33.5-20.95,58.02-19.98,96.39.21,8.38,3.56,15.97.85,24.33-5.03-4.52-12.77-9.36-18.36-4.79-3.82,3.12-.9,10.7-.9,15.13,0,20.55,11.37,53.8,22.24,51.2,1.67-.4,1.13-7.56,3.63-7.82,7.46,1.62,7.66,12.83,7.76,19.56.19,13.46,7.19,24.35,10.35,36.53,2.6,10.03.18,58.98-1.05,71.17ZM247.42,1245.08c2.97,10.19,6,20.91,5.5,31.66-2.16,47.05,6.36,98.16,46.87,129.25,15.34,11.77,32.72,18.57,51.25,18.85-.99,1.16-.42,3.31-4,3.32-17.51.03-35.19,2.9-50.53,11.55-19.18,10.81-26.44,36.45-36.37,54.91-4.78-46.77-11.64-91.84-25.65-138.69-7.18,19.65-11.6,39.33-14.44,60.08l-9.73,71.08c-1.85,13.48-.36,26.71-1.17,39.47l4.56,48.19c4.06,42.87,10.03,85.81,23.36,125.57l17.38,62.03,1.18,45.75c.42,16.29,2.88,61.53-.16,74.55l-20.4,87.39c-8.82,37.78-9.69,74.81-3.68,111.72l7.52,46.14c7.06,43.33,12.76,87.58,23.28,130.07l9.87,63.59c4.01,25.82,8.12,51.34,4.04,77.42-2.54,16.27-5.23,31.22.43,47.4,2.32,6.65,3.21,15.32-.48,21.5-6.33-4.15-4.46-10.1-8.93-15.07-10.87,11.04-21.53,20.73-31.13,31.87-20.32,23.57-31.51,11.35-44.24,25.41-2.36,2.6-1.9,12.63,1.76,12.59,8.87-.09,11.72,5.15,18.08,8.61,21.88,11.88,41.8-.59,68.37,15.72,19.1,11.73,42.69,14.92,63.5,5.09,13.91-6.57,19.3-23.17,16.71-38.42-3.19-18.74-10.37-36.07-9.85-55.57.62-23.62,12.91-31.68,3.53-60.69-15.78-48.79-5.1-86.5.07-135.13,5.98-16.25,6.53-37.33,10.73-54.8,2.77-11.53,2.47-21.53,3.92-31.61,1.15-8.03,3.45-18.71,6.46-26.25,14.3-35.88,20.35-73.59,18.17-113.66-1.81-33.3-9.22-64.68-14.41-97.61-.84-5.36-.44-11.58-.04-16.03.85-9.37,16.49-51.29,17.4-65.92,6.86-19.41,13.45-59.51,14.85-80.63l5.66-85.46c1.94-29.28,8.67-58.38,13.82-88.16l16.21-93.64c6.09-35.18,8.89-69.55,9.61-105.09,2.51-6.29,21.27-6.71,24.27.26,2.78,55.01,9.04,108.15,20.32,162.64,8.39,40.56,17.27,89.26,19.99,128.22l2.42,34.65c2.17,31.08,4.82,61.03,10.48,90.67,6.3,32.97,13.81,65.65,24.42,98.62,1.96,6.11.06,12.38.51,17.74l-12.31,81.91c-6.92,46.02,2.63,96.63,18.52,138.08,2.27,5.91,2.43,13.41,3.88,19.64,1.01,4.35-.09,10.1.94,15.49l13.08,68.49c4.11,21.5,5.93,43.98,8.43,66.46,6.47,57.94-18.07,72.76-8.75,107.06,3.37,12.39,6.02,25.65,3.56,38.47l-8.57,44.72c-1.8,9.41.16,20.6,6.09,27.98,8.48,10.56,22.05,12.71,34.94,13.16,34.75,1.22,38.62-19.32,68.23-19.77,45.18-.69,34.18-9.84,56.63-15.44,4.26-1.06,2.9-9.03,1.55-11.75-6.18-12.43-22.29-6.37-32.8-16.65l-39.89-38.98c-3.77-3.69-6.03,7.32-7.55,9.97-.74,1.3-4.99,2.44-5.7.14-4.48-14.52,9.48-27.15,4.17-51.36-8.62-39.26,7.13-128.17,15.88-169.74,1.37-6.51,1.61-12.46,2-18.06,9.73-33.63,12.87-69.52,18.77-103.92,2.82-16.41,6.94-32.85,6.88-49.6,10.75-53.33-8.17-128.03-23.99-182.2l-1.61-57.98c-.33-11.82.39-22.96.79-34.61l1.36-39.14c.63-18.25,13.88-34,15.28-51.77,2.33-3.73,5.28-9.07,6.61-15.16,14.02-64.36,23.51-129.98,22.86-195.26-.14-14.54-15.62-120.66-25.31-140.81-12.92,49.78-20.1,87.25-25.05,138.16-8.96-15.05-13.02-29.15-22.56-41.7-18.55-24.41-43.5-20.7-70.73-26.07,5.83-3.62,12.19-2.34,18.2-3.53,19.27-3.82,35.6-15.54,49.51-30.45,29.36-31.47,33.85-75.18,32.47-115.28-.36-10.58,1.35-21.28,4.34-31.67,2.79-1.07,3.98-4.72,8.12-6.86l11.45,72.73c3.01,19.15,7.83,36.87,13.02,56.87,2.28,2.79,5.34-1.66.92-3.94-.17-23.56-4.29-45.9-8.23-68.96l-11.83-69.18c-4.86-28.4-7.54-55.87-17.5-83.11-2.8-7.65-1.73-18.11-8.27-24.11-24.88-22.79-53.24-26.27-85.02-16.94-15.22,4.47-26.11,14.69-37.08,23.34-7.36,5.8-14.53,10.98-21.17,17.98-10.09,10.63-22.4,21.59-28.66,35.61-9.38,8.18-16.94,18.43-26.17,27.73-14.48,14.6-29.96-11.87-45.46-27.69-9.31-9.49-14.93-23.55-26.11-31.2-3.94-10.08-15.27-16.13-23.51-20.85-4.58-7.1-11.9-11.38-20.25-16.37-28.77-17.19-64.36-19.65-91.96.26-8.77,6.32-14.13,13.28-17.02,23.79-9.38,34.17-17.22,68.59-20.09,103.9-.39,4.79-1.48,6.87-2.61,11.31-4.74,18.55-17.26,93.33-13.5,113.79,6.83-23.63,9.6-47.44,13.77-72.1l8.99-53.22c1.72,2.97,5.06,5.04,6.74,7.22ZM93.29,1470.54c-3.05,10.25,59.68,41.55,69.1,43.43,5.06-4.61.45-13.48-5.83-14.93-23-5.33-42.98-15.17-63.26-28.5-1.49-.98-1.58-3.41-2.42-5.97-1.72.12-1.91,1.83-1.56,2.93.33,1.02,1.83,1.82,3.98,3.04ZM844.18,1468.65l-24.03,15.75c-12.31,8.06-37.52,9.92-47.94,20.57-1.43,1.47-.8,8.85,2.1,7.95,19.28-6.01,59.28-26.27,69.88-44.26,2.12,0,3.26-2.4,0,0Z"/>
  <path class="cls-1" d="M406.87,1147.33c11.18,7.64,16.81,21.7,26.11,31.2l16.27,35.87c7.21,15.9,11.53,32.31,11.48,50.26l-.18,62.09c-.05,17.47-3.64,34.43-11.66,49.64-5.99,11.36-16.49,18.48-26.03,26.19-32.13,25.95-67.53,17.27-71.81,22.26-18.53-.28-35.92-7.08-51.25-18.85-40.51-31.1-49.03-82.21-46.87-129.25,2.43-1.39,3.3-4.87,3.84-8.28,9.95-62.11,55.41-108.15,114.74-125.52,11.9-3.48,25.36-2.45,35.37,4.39Z"/>
  <path class="cls-1" d="M445.95,871.16c-8.04-7.96-30.03-57.6-37.43-67.91-12.17-29.65-21.77-45.26-34.42-77.31l-10.17-25.76c-9.14-23.16-14.34-48-16.72-73.07-3.22-34,15.11-95.92-18.06-109.61-21.93-9.05-60.69-22.51-71.6-43.81,5.02-5.92,13.29-10.03,21.6-14.48l72.83-39.04c13.28-7.12,23.02-17.09,32.62-27.29,1.88-2,5.63-2.55,7.86-6.06,19.53-30.71,31.28-66.72,28.42-102.47,11.75-5.19,25.4-4.3,34.06,6.92.72,25.42.69,49.64-4.01,74.27-9.62,50.43-38.26,76.29-20.2,120.23,10.61,25.81,15.78,52.2,17.86,79.96l3.06,40.74c3.82,30.19,1.91,60.1,3.71,90.58,1.09,18.56-.22,35.36-1.21,53.65l-5.45,100.32c-.4,7.44-.6,14.09-2.76,20.14Z"/>
  <path class="cls-1" d="M684.54,1276.73c1.38,40.11-3.11,83.82-32.47,115.28-13.91,14.91-30.24,26.63-49.51,30.45.4-2.13-2.19-1.49-4.12-1.15-40.99,7.16-82.24-7.5-107.21-41.06-18.91-25.41-13.99-68.16-14.55-97.59-.4-20.98.1-41.82,8.67-61.02l19.26-43.17c6.26-14.02,18.56-24.97,28.66-35.61,0,.97.61,1.59,1.23,1.64,8.08.64,13.89-10.51,53.5,6.93,37.99,16.73,67.52,44.8,82.9,83.43,4.63,11.64,12.36,33.15,9.39,46.02,3.5-.95,2.11-3.92,4.26-4.18Z"/>
  <path class="cls-1" d="M515.04,284.07c.23,34.2,7.91,68.8,26.49,98.45,2.7,4.31,5.58,8.86,9.58,10.14,5.89,1.88,8.21,13.58,34.88,27.83l55.47,29.62c14.14,7.55,27.15,14.44,40.3,25-5.96,1.9-7.81,6.71-11.47,9.98-16.05,14.37-35.6,21.84-55.91,28.5-14.01,4.6-24.83,18.82-26.24,33.32-5.11,52.75,9.42,60.23-5.14,120.33-6.29,25.94-13.98,50.43-25.77,74.4l-34.88,70.93c-2.17.87-1.73,2.69.17,2.49-1.55,3.74-4.49,6.68-6.54,10.9l-20.39,41.85c-1.29,2.66-3.13,4.38-5.03,5.47-1.21.71-1.87-.94-1.89-2.42-.31-19.68-1.4-37.76-2.72-57.52-4.62-69.27-6.33-137.97-.29-207.14,2.49-28.57,3.23-55.96,8.77-83.41,7.28-36.05,31.45-52.37,10.39-99.66-12.56-28.21-21.86-56.45-22.28-87.85-.19-14.02-2.66-30.08,1.09-43.54,3.45-12.35,22.18-11.75,31.41-7.69Z"/>
  <path class="cls-1" d="M432.88,906.89c-15.67,94.1-70.29,97.09-71.2,122.53l-1.5,42.22c-.49-2.06-.85-5.76-3.07-6.56-.12,5.84,3.25,16.23-4.17,18.3-8.1,2.27-17.48-2.75-26.75-4.38-4.72-69.93-33.96-62.2-56.43-132.31-.91-2.83-2.44-4.23-4.69-3.86-6.7-46.74-19.54-79.61-33.55-123.64,1.86-1.87,1.69-4.35.93-7.7-6.7-29.49-12.83-58.05-15.92-89.42,49.24,31.25,88.69,32.95,140.64,10.32l26.31,50.79c15.26,29.47,33.97,56.03,47.02,86.7,6.12,14.37-3.1,37.15,2.38,37Z"/>
  <path class="cls-1" d="M688.17,871.33c-7.63,25.4-13.05,50.7-17.65,75.71-2.96-.6-4.52,1.88-5.46,5.08-12.78,43.37-44.46,67.56-49.63,97.2l-5.09,29.24c-10,1.78-18.84,5.35-28.27,5.87-3.17-5.88-2.61-11.67-6.2-15.37-4.8-27.57,10.91-44.12-27.72-71.67-23.29-16.62-43.86-71.99-45.65-100.12-.27-18,5.23-32.94,13.84-48.2l15.83-28.07c16.38-29.04,32.23-57.04,47.27-88.6,54.19,22.16,89.93,22.89,141.42-10.61-.25,23.99-7.6,43.75-11.77,65.22-4.91,25.31-12.68,48.81-20.69,73.21-1.36,4.13-2.23,8.16-.23,11.11Z"/>
  <path class="cls-1" d="M231.4,2081.77c-6.01-36.92-5.14-73.95,3.68-111.72l20.4-87.39c6.11,3.54,15.62-42.76,25.25-50.65,37.79,34.12,28.16,116.27,27.21,163.03l-1.63,79.94c-.46,22.48-5.19,43.47-18.75,61.75-3.66,4.93-8.28,8.14-13.57,8.38-21.89.98-34.57-36.83-36.81-56.67-.44-3.85-2.5-7.09-5.78-6.65Z"/>
  <path class="cls-1" d="M682.71,1890.35c15.82,54.17,34.74,128.87,23.99,182.2-3.58,3.1-4.53,7.67-5.26,12.15-2.94,18.12-15.46,61.48-35.85,60.45-27.99-1.42-31.69-56.41-33.13-71.07l-1.75-17.86-1.93-85.96c-.95-42.21-4.21-108.62,27.69-139.52,15.14,20.98,16.44,45.11,26.25,59.61Z"/>
  <path class="cls-1" d="M378.74,1922.35c-.4,4.45-.8,10.67.04,16.03,5.19,32.93,12.6,64.31,14.41,97.61,2.18,40.07-3.87,77.77-18.17,113.66-7.55-.11-9.38,12.8-14.27,14.93-7.14,3.1-19.87-15.2-21.65-18.56-24.12-45.54-25.85-119.24-21.39-169.53l3.39-38.23c1.65-18.55,8.7-77.72,24.89-90.73,15.57,20.4,24.78,43.64,28.68,68.99.45,2.94,1.9,5.43,4.06,5.85Z"/>
  <path class="cls-1" d="M564.91,2156.24c-15.89-41.45-25.44-92.06-18.52-138.08l12.31-81.91c1.41-.09,2.96-.61,3.53-1.54,1.39-2.32-3.14-26.06,14.46-60.51,4.74-9.27,7.25-19.29,16.39-26.9,29.93,38.14,29.49,175.89,26.33,221.43-2.1,30.24-10.18,58.81-25.86,83.94-3.14,5.04-8.58,12.12-14.57,11.7-6.93-.48-9.52-8.91-13.49-12.23-1.49,1.52-.4,3.06-.57,4.1Z"/>
  <path class="cls-1" d="M231.43,493.2c-3.58,4.43,34.49,25.68,39.37,28.41,6.6,3.69,11.55,9.55,18.26,11.48,1.13,1.95,3.9,3.48,3.98,5.58.09,2.67-2.61,4.87-5.31,5.8-48.19,16.7-68.55,57.61-107.56,87.8-14.33,11.08-29.93,19.79-43.18,32.59-12.93,12.49-16.08,27.38-23.95,20.29-14.79-48.55-2.98-100.85,22.8-145.02,18.12-31.04,46.53-51.72,81.62-56.4,1.11,4.47,10.67,3.3,13.99,9.47Z"/>
  <path class="cls-1" d="M826.44,673.17c-.86,4.13-4.28,8.82-6.55,15.09-12.42-13.68-21.68-27.69-36.88-37.46-55.73-35.8-59.11-59.66-115.38-98.28-6.52-4.47-14.06-4.84-19.34-9.53-.53-5.47,2.6-11.03,7.93-14.4l38.99-24.61c5.04-3.18,8.73-7.27,9.26-12.62,5.51-2.55,11.5-4.47,16.22-7.76,34.46,6.83,62.29,26.62,80.6,57.16,24.37,40.65,34.79,86.48,25.16,132.41Z"/>
  <path class="cls-1" d="M751.57,1028.59c-5.33-21.87-.27-45.65-.33-67.85,2.4-.85,2.21-3.74,5.52-6.4,13,21.7,41.03,46.31,49.29,67.44,24.31,62.16,36.24,198.08,41.1,269.18-6.68-2.26-8.87-8.44-10-14.54-21.6-116.96-62.96-154.92-85.58-247.82Z"/>
  <path class="cls-1" d="M185.99,960.75c2.07,28.57,3.82,56.44-2.51,82.22-3.86,2.51-4.15,6.41-5.4,10.2-7.54,23.03-14.66,45.1-25.74,66.89-17.28,33.98-31.06,67.72-40.65,104.61l-15.61,60.04c-.61,2.33-2.72,3.76-3.94,4.33-.89.41-3.16-.49-3.16-1.38,0-1.4-.52-3.13-.3-5.11l13.15-118.45,5.44-38.04c3.57-24.94,15.13-86.87,25.61-107.63,10.56-20.92,32.64-43.74,48.93-63.69l4.2,6Z"/>
  <path class="cls-1" d="M688.87,1245.06c-4.95-1.96-6.28-6.96-8.85-12-8.53-16.75-18.05-32.89-31.03-46.67-13.03-13.84-28.01-25.88-44.96-34.24l-43.31-21.37c-3.11-1.54-6.83-1.82-6.29-5.87,10.97-8.65,21.86-18.87,37.08-23.34,31.78-9.33,60.14-5.85,85.02,16.94,6.55,6,5.48,16.46,8.27,24.11,9.96,27.25,12.64,54.71,17.5,83.11l11.83,69.18c3.94,23.06,8.06,45.4,8.23,68.96,4.42,2.27,1.36,6.73-.92,3.94-5.19-19.99-10-37.72-13.02-56.87l-11.45-72.73c-4.14,2.14-5.33,5.79-8.12,6.86Z"/>
  <path class="cls-1" d="M383.36,1126.49c-3.18,5.34-9.95,8.09-16.66,10.48-28.79,10.24-55.16,24.75-76.61,46.95-14.58,15.08-23.85,33.51-33.5,51.96-2.29,4.38-4.9,8.48-9.17,9.21-1.68-2.18-5.02-4.25-6.74-7.22l-8.99,53.22c-4.16,24.66-6.94,48.47-13.77,72.1-3.76-20.46,8.76-95.24,13.5-113.79,1.14-4.44,2.22-6.52,2.61-11.31,2.87-35.31,10.71-69.73,20.09-103.9,2.89-10.52,8.25-17.47,17.02-23.79,27.6-19.9,63.19-17.45,91.96-.26,8.35,4.99,15.67,9.27,20.25,16.37Z"/>
  <path class="cls-1" d="M728,1496.42c.65,65.28-8.84,130.9-22.86,195.26-1.33,6.09-4.29,11.43-6.61,15.16-1.04.39-2.08,1.78-3.88,1.38-3.43-18.23-2.03-35.39-2.19-53.76-.23-27.34.29-54.05-1.73-81.12-1.49-19.96-3.24-38.44-.32-59.01l15.54-109.66c11.42,23.42,11.26,47.32,16.29,70.71,2.62,12.18,2.45,23.63,2.78,35.22,3.83-5.05-.86-10.84,2.98-14.17Z"/>
  <path class="cls-1" d="M237.08,1700.32c-13.34-39.76-19.31-82.71-23.36-125.57l-4.56-48.19c5.82-39.96,6.5-81.13,21.55-121.92,6.11,23.72,6.11,45.74,10.59,68.24,7.14,35.9,5.88,71.04,5.07,107.59l-1.33,60c-.5,22.44,2.35,43.93-1.52,65.95-4.15-1.14-2.63-7.1-6.43-6.1Z"/>
  <path class="cls-1" d="M868.44,1200.79c1.09,18.78-2.66,38.07-.28,57.98,1.4,11.68.91,22.75,1.22,33.46-1.98-.32-8.55,2.48-9.96-.36-6.33-12.77-7.01-26.96-8.63-41.11l-6.16-53.88c-2.39-20.88-5.03-41.04-5.42-61.98l-.55-30.09c-.71-38.61,7.29-75.18,14-114.55,25.36,67.92,18.78,75.64,19.91,146-4.27,9.18-2.31,19.59-4.53,28.4-3.43,13.59-.26,24.86.4,36.14Z"/>
  <path class="cls-1" d="M262.2,2257.98c-10.52-42.49-16.22-86.74-23.28-130.07,4.4-.4,6.53,3.95,8.63,8.32,35.99,74.77,52.18,166.68,58.66,249.22.25,3.13,6.76,63.42-1.24,56.53,1.34-26.6-8.57-73.19-15.54-99.28l-14.59-54.62-7.16-22.6c-1.1-3.48-3.15-5.98-5.49-7.49Z"/>
  <path class="cls-1" d="M830.78,727.11c16.05,30.82,20.78,85.45,17.81,117.94-4.02,14.59-3.13,34.94-9.54,48.25-4.01-14.72-3.52-70.73-7.85-79.42l-19.15-38.52-27.06-105.53c23.81,13.67,34.8,36.2,45.78,57.28Z"/>
  <path class="cls-1" d="M699.81,2122.15c-5.91,34.41-9.04,70.29-18.77,103.92-10.79,37.28-21.54,76.28-33.12,115.96-9.9,33.96-11.23,66.54-18.29,101.52-.85-89.95,14.62-177.84,41.84-262.22.63-1.95,24.42-65.56,28.34-59.19Z"/>
  <path class="cls-1" d="M89.17,793.09c3.75-25.92,6.96-53.53,19.77-76.24,2.49-1.76,4.93-5.08,7.03-8.8,8.43-14.91,20.51-27.45,34.82-37.93.54,13.61-5.74,22.43-8.46,33.28l-12.09,48.2c-2.18,8.71-.58,20.56-5.95,27.87-29.7,40.41-17.52,62.13-27.28,106.78-4.44-10.57-5.18-20.78-5.28-31.49l-.57-57.72c-.02-2.2-.02-4.21-1.99-3.94Z"/>
  <path class="cls-1" d="M798.39,954.88c1.88,4.47-3.98,10.23-3.79,14.13-5.48,2.19-9.11-1.22-13.06-5.24-11.35-11.58-23.43-22.39-29.88-37.76-2.68-6.38-4.45-12.82-9.53-16.58-6.33-14.67-8.11-30.95-11.6-46.39,1.14-.7,2.25-1.71,3.28-1.79,2.46-.19,3.56,2.11,4.84,4.13,11.23,17.77,26.79,31.04,43.02,44.22,20.24,16.44,10.74,31.1,16.72,45.28Z"/>
  <path class="cls-1" d="M207.14,863.04c-2.07,7.61-1.33,16.09-5.25,24.23-3.94,8.18-2.86,19.14-8.37,25.73-6.38,3.99-6.98,13.23-11.84,20.1-8.95,12.66-18.62,23.94-29.11,35.33-1.78,1.94-6.89,2.47-8.38,1.19-1.99-1.7-6.57-42.66,5.4-54.03,19.16-18.19,40.58-33.44,53.06-57.74l4.48,5.18Z"/>
  <path class="cls-1" d="M416.65,1690.34l-5.66,85.46c-1.4,21.12-7.99,61.22-14.85,80.63-.51,1.43-2.22,3.94-5.11,6.21-2.93-27.78.19-55.36,3.54-83.97,3.37-28.85,10.44-56.12,16.38-84.51.66-3.14,3.66-4.19,5.7-3.83Z"/>
  <path class="cls-1" d="M791,1186.44c-9.01-26.81-19.43-50.87-24.19-75.95l.82-12.08c14.14,28.88,29.26,56.71,38.88,88.09,2.86,9.32,27.45,96.85,18.9,95.89-3.12-.35-3.89-.75-4.63-3.9-2.89-12.45-20.93-91.42-29.79-92.05Z"/>
  <path class="cls-1" d="M533.77,1819.9c-5.66-29.64-8.31-59.6-10.48-90.67l-2.42-34.65c3.31-.56-.19-5.37,3.64-8.15,8.45,25.03,11.96,51.1,16.3,78.1,5.06,31.44,8.58,61.88,5.38,94.14-3.04-2.4-8.52-43.85-12.42-38.77Z"/>
  <path class="cls-1" d="M172.86,1102.88c-4.23,14.01-5.57,31.23-13.55,43.67-10.64,16.58-15.99,35.81-22.01,55.93-7.69,25.69-15.82,50.43-20.95,76.77-.45,2.32-2.87,3.51-4.07,3.63-1.37.14-3.7-1.24-3.24-4.3,9.35-62.95,28.46-122.64,59.64-178.33,2.33-.44,2.71,2.04,4.18,2.62Z"/>
  <path class="cls-1" d="M101.65,983.01c3.08,4.94,5.27,12.67,6.39,18.21-2.2,21.37.34,42.89-5.69,66.23l-11.43-60.28c-2.76-14.57-3.99-27.83-1.77-42.6-10.55,22.35-18.41,44.71-25.35,68.75-.93,3.24-.4,7.67-4.13,7.46-.39-35.8,2.62-71.09,15.25-106.18,1.63-4.52,2.5-8.93,6.51-11.29,5.43-3.13,10.33,25.82,10.85,29.75s-2.47,7.42-1.7,10.83c10.71-10.98,5.5,10.2,11.05,19.1Z"/>
  <path class="cls-1" d="M856.25,922.84c15.85,35.28,19.1,75.63,19.9,114.2-4.45-1.42-4.38-7.42-5.44-12.2-5.5-24.9-17.87-46.46-26-70.46-2.1-6.2,5.01-32.52,11.54-31.54Z"/>
  <path class="cls-1" d="M368.56,2175.9c-1.44,10.09-1.15,20.08-3.92,31.61-4.19,17.48-4.75,38.55-10.73,54.8-2.86,1.66-4.25,5.97-9.11,9.88-1.88-5.87,12.16-103.18,23.75-96.29Z"/>
  <path class="cls-1" d="M582.81,2259.86l-13.08-68.49c-1.03-5.39.08-11.14-.94-15.49,12.77-2.91,25.4,86.85,23.88,96.33-6.08-4.57-3.75-12.13-9.87-12.35Z"/>
  <path class="cls-1" d="M528.16,1132.91c-4.3,4.02-5.97,9.43-11.11,11.84,1.65-5.96,6.76-9.15,9.31-13.51-.86,1.48.44,2.6,1.81,1.68Z"/>
  <path class="cls-1" d="M99.26,1425.06c-1.05.78-2.22,1.38-3.49,1.71-.37-2.05-1.88-7.77,1.42-8.1s1.99,4.92,2.07,6.39Z"/>
  <path class="cls-1" d="M792.47,1388.36l-2.27.87c-3.35-.62-6.46-3.07-7.32-6.12,4.73,1.21,7.89,2.86,9.59,5.25Z"/>
  <path class="cls-1" d="M415.11,1140.06l1.97-.04c1.4.44,3.42.69,3.83,1.87s-.06,3.15-1.96,3.07c-3.3-.13-2.8-3.83-3.84-4.91Z"/>
  <path class="cls-1" d="M93.29,1470.54c-2.15-1.22-3.65-2.02-3.98-3.04-.36-1.1-.17-2.82,1.56-2.93.84,2.57.93,4.99,2.42,5.97Z"/>
  <path class="cls-1" d="M844.18,1468.65c1.63-1.2,2.16-1.2,2.02-.9s-.96.9-2.02.9Z"/>
  <path class="cls-1" d="M306.76,1694.47c-5.55,47.03-16.04,108.25-45.51,151.61-4.04-26.08-1.69-51.33-2.19-77.61-.71-37.24-2.17-72.83-5.73-109.93-5.76-59.96.77-137.18,29.68-189.8,9.93-18.08,27.95-29.45,47.93-27.93-6.37,47.25-14.45,85.74-16.63,133.08l-4.25,92.54-3.31,28.04Z"/>
  <path class="cls-1" d="M678.09,1850.24c-31.81-55.71-42.85-109.07-48.57-173.51-.84-9.41-3.59-18.37-2.52-28.3.66-6.15-3.22-69.65-4.21-79.79l-6.6-67.47c-1.99-20.38-6.07-39.41-11.81-59.38,20.15-3.28,37.45,6.97,47.84,23.67,36.52,58.75,35.46,144.91,30.31,213.03-2.81,37.21-3.65,72.69-3.95,109.83l-.49,61.92Z"/>
  <path class="cls-1" d="M364.84,1812.49c-8.53,3.38,8.61,48.62.3,49.76-14.5-24.79-20.99-51.56-29.72-78.52-11.17-34.47-14.92-69.01-17.41-105.13-1.4-20.29-.34-39.65.54-60.11l1.73-40.06c1.98-45.89,8.75-90.89,27.31-133.13,2.74-4.93,15.73-5.96,20.07-2.75,17.74,65.43,12.42,100.01,3.56,166.02-9.72,72.37-18.76,131.82-6.37,203.91Z"/>
  <path class="cls-1" d="M574.42,1860.03c-11.47,4.28,6.67-46.34-1.63-49.55l6.2-47.17c2.42-17.68,1.24-34.9-.84-53l-15.1-131.6-4.88-50.19c-2.92-30.08,5.35-58.45,12.49-87.65,17.83-2.54,22.21,9.36,27.78,26.14,13.58,40.87,18.11,82.26,19.31,125.24.68,24.45,3.71,47.84,2.33,72.27l-2.14,37.88c-2.73,48.3-11.98,70.74-26.1,114.74-4.93,15.35-11.36,28.96-17.43,42.88Z"/>
  <path class="cls-2" d="M624.24,2457.73c.08,2.84-.53,5.7-1.75,6.83-2.17,2.01-16.29,2.67-18.64-.5-1.48-2-3.15-6.69-2.46-10.24,14.81-75.75-2.57-200.41-20.95-277.9,24.02-11.26,36.77-46.17,44.1-73.13,10.79,23.12,17.86,53.41,47.71,53.06-31.7,87.27-40.26,140.42-47.82,231.55-1.97,23.73-.84,46.54-.18,70.33Z"/>
  <path class="cls-2" d="M335.18,2446.97c1.41,5.65.9,13.06-2.57,17.05s-13.75,3.5-18.29-.22c1.69-104.26-10.59-209.96-48.93-307.69,29.08.22,36.83-30.03,47.85-50.99,6.55,23.84,19.4,59.68,43.18,70.95-15.37,65.37-36.9,208.31-21.25,270.89Z"/>
  <path class="cls-1" d="M531.01,1671.35c-8.02-12.92-9.85-26.58-12.73-40.75l-9.21-45.43c-9.99-49.26-23.27-118.17-6.15-167.11,18.04,11.25,36.57,16.19,57.18,20.45l-9.08,71.97-5.01,54.13-15.01,106.74Z"/>
  <path class="cls-1" d="M421.66,1621.92c-3.34,17.29-5.51,32.91-14.36,49.08-16.24-78.68-15.08-152.54-31.17-232.36,22.43-4.17,41.31-10.16,60.94-21.25,9.9,43.25,8.17,84.88-.35,126.52l-15.06,78Z"/>
  <path class="cls-1" d="M574.23,1744.31c.24,35.62-10.03,96.16-19.3,130.29-1.07-43.52-2.45-84.66-9.51-127.04-6.07-36.47-7.32-72.21-2.19-109.11,2.88-20.68,4.08-40.59,11.68-62.01,8.32,46.61,19.04,125.11,19.32,167.87Z"/>
  <path class="cls-1" d="M382.34,1874.52c-3.15-4.36-2.36-10.24-3.42-15.93-5.15-27.62-11.27-53.99-13.71-82.15-3.14-36.09-.56-71.09,4.28-106.8,4.14-30.56,6.67-59.89,13.35-92.04,8.54,25,9.39,48.66,13.05,72.62,5.37,35.16,1.74,68.07-3.88,102.73-6.58,40.54-6.46,80.23-9.66,121.57Z"/>
  <path class="cls-1" d="M619.7,1856.75c-25.09-29.58-1.04-31.64,12.71-70.16,8.55,11.97,9.63,23.67,15.4,35.11l-28.12,35.05Z"/>
  <path class="cls-1" d="M329.78,1833.36c-3.84,9.52-6.5,16.65-12.53,24.04l-26.73-35.71c2.39-10.73,7.68-20.26,11.19-31.03.72-2.22,4.73-.41,5.53,1.3,6.59,14.06,13.23,26.96,22.53,41.41Z"/>
  <path class="cls-2" d="M574.42,1860.03l-11.56,26.54c-1.92-4.4-2.1-8.97-1.28-13.53l11.22-62.56c8.3,3.21-9.84,53.83,1.63,49.55Z"/>
  <path class="cls-2" d="M365.14,1862.25c8.31-1.15-8.83-46.38-.3-49.76,4.15,24.16,9.35,46.08,10.86,69.62-6.51,4.04-7.88-14.63-10.57-19.85Z"/>
  <path class="cls-2" d="M544.83,311.62c-6.24-7.62-10.23-17.71-19.99-20.6-2.25-3.23-6.11-5.33-9.8-6.96-9.23-4.06-27.96-4.67-31.41,7.69-3.76,13.45-1.28,29.52-1.09,43.54.42,31.4,9.72,59.65,22.28,87.85,21.06,47.29-3.11,63.62-10.39,99.66-5.55,27.45-6.28,54.84-8.77,83.41-6.04,69.17-4.33,137.87.29,207.14,1.32,19.76,2.41,37.84,2.72,57.52.02,1.48.68,3.13,1.89,2.42-.94,8.33-4.03,17.14-12.46,22.49-3.9-35.85-3.72-69.38-3.87-104.72l-.57-139.91c-.14-33.99,2.32-66.41-.62-100.03-.42-4.81-2.9-43.44-6.22-38.02,1.1,16.94-2.64,31.45-2.7,48.42l-.94,261.31c-.09,24.24-.4,46.57-3.58,71.71-9.76-4.27-11.18-15.97-13.65-23.37,2.16-6.05,2.35-12.7,2.76-20.14l5.45-100.32c.99-18.29,2.3-35.1,1.21-53.65-1.79-30.48.11-60.39-3.71-90.58l-3.06-40.74c-2.09-27.76-7.25-54.15-17.86-79.96-18.06-43.94,10.58-69.8,20.2-120.23,4.7-24.63,4.72-48.85,4.01-74.27-8.67-11.22-22.31-12.12-34.06-6.92-3.92,1.73-6.23,4.31-9.68,6.53-8.06,5.2-15.02,11.91-20.01,20.29-1.44-11.2,2.68-19.27,13.76-27.82,16.8-12.96,39.11-16.41,57.33-2.7,3.48,2.62,9.17,2.31,12.83-.24,21.45-14.94,47.92-9.55,63.47,10.82,5.3,6.94,5.94,12.84,6.24,20.39Z"/>
  <path class="cls-1" d="M153.99,897.46l1.19-25.97c5.03-27.91-.25-55.26-12.33-80.56-4.9-10.27-6.28-19.69-5.23-30.61,2.98-31.13,8.37-60.34,21.26-89.33,4.46-10.03,19.5-23.59,30.25-17.83,8.8,8.97,9.73,26.69,11.71,38.81l13.24,81.03c8.57,52.45-18.18,92.55-60.1,124.46Z"/>
  <path class="cls-1" d="M781.64,895.69c-22.54-14.84-37.96-34.72-49.58-56.77-4.36-12.54-8.08-24.63-10.67-37.75.74-22.3,3.72-43.4,7.4-65.13l11.86-70.06c.7-4.13,3.68-13.86,8.15-14.33,15.01-1.56,25.73,10.49,30.88,22.68,10.75,25.48,22.13,75.03,19.09,102.53-9.01,22.03-20.33,44.16-19.31,68l2.17,50.81Z"/>
  <path class="cls-1" d="M662.68,679.53c2.55-.36,3.22-1.82,3.78-2.7,12.36-5.48,19.39-16.59,27.58-26.14l25.31-29.52c7.89-2.3,16.36,11.05,15,19.11-3.51,20.81-2.36,42.4-10.91,62-12.57,28.83-73.07,46.92-103.86,24.68l34.53-36.46c3.57-3.77,9.01-5.6,8.57-10.98Z"/>
  <path class="cls-1" d="M666.46,676.82c-1.22.22-2.46.66-3.78,2.7-3.53.51-6.6,3.25-9.36,6.4-7.5,8.54-16.72,13.83-25.52,20.77l-16.42,12.96c-22.72-52.71.24-114.46,20.55-164.19,27.84-9.49,66.12,29,82.55,47.51-8.64,15.49-15.84,30.13-25.8,44.03-7.24,10.1-17.74,17.49-22.21,29.82Z"/>
  <path class="cls-1" d="M317.53,715.43c-27.76-21.71-50.42-45.81-72.11-72.89-7.94-9.91-12.75-22.44-19.24-33.39-4.02-6.79.59-12.03,4.81-15.92,16.72-15.44,39.3-37.68,63.96-39,8.48-.46,13.37,4.16,16,11.74,8.87,25.66,15.85,51.18,21.3,78.36,4.79,23.89.4,48.8-5.21,72.53-.6,2.56-7.71-.02-9.51-1.43Z"/>
  <path class="cls-2" d="M834.66,971.2c3.55,12.06-7.59,20.82-6.69,31.69-6.13,1.78-13.75,6.02-21,4.26-5.26-1.28-10.79-10.8-11.41-16.13-.97-8.31-.62-15.04-.95-22.01-.19-3.9,5.67-9.66,3.79-14.13,2.86-34.38-9.02-50.6-9.36-91.4-.16-19.53,1.98-52.5,18.98-66.01,15.74,14.45,19.82,34.18,22.97,53.48,10.91,66.8-6.02,87.38,3.67,120.25Z"/>
  <path class="cls-2" d="M108.04,1001.22c-1.12-5.54-3.31-13.28-6.39-18.21-1-9.66,3.08-19.28,3.84-29.97,1.21-16.92-3.31-33.09-4.09-50.03-.64-13.88,1.69-27.45,3.3-41.04,2.71-22.93,7.76-44.86,22.95-64.17,12.2,9.32,18.21,24.09,19.37,39.31,4.67,61.13-8.78,70.13-8.87,107.87-.05,21.91,13.41,46.73-9.48,63.67-6.47,1.5-15.28-4.71-20.63-7.43Z"/>
  <path class="cls-1" d="M94.67,1174.78c-4.34,39.11-6.33,76.01-13.48,113.58-.61,3.18-3.45,4.52-5.25,4.95-2.81.67-6.07-2.23-5.82-6.71,2.94-51.09,1.05-100.81-4.96-151.61-3.18-59-4.27-86.75,19.32-141l8.75,53.75c1.74,10.66,3.98,21.84,4.69,32.96,2.01,31.43.34,61.76-3.25,94.07Z"/>
  <path class="cls-1" d="M318.45,728.33c-37.36,18.47-80.13,5.93-104.1-23.43-3.29-19.16-22.61-79.22,2.56-85.44l38.43,45.81,63.11,63.06Z"/>
  <path class="cls-1" d="M827.97,1002.89c-.9-10.87,10.25-19.63,6.69-31.69,4.57.04,4.33-5.22,6.4-10.31,7.06,11.07,8.09,24.42,5.55,38.13-4.66,25.21-4.84,41.75-11.18,68.47-2.67-8.36-3.57-17.51-4.32-26.59l-3.14-38.02Z"/>
  <path class="cls-2" d="M822.87,1353.11c4.44,19,11.94,35.59,14.75,54.58-11.75-8.61-12.37-22.28-16.8-33.75-6.29-16.31-7.21-33.67-1.39-51.37,5.95,10.53,1,20.1,3.44,30.54Z"/>
  <path class="cls-2" d="M101.56,1406.67c-2.48-.16-3.35-.39-3.01-1.43.36-1.1-.82-3.06-.17-4.13,4.26-6.97,5.41-14.32,7.93-21.91,5.53-16.67,9.99-32.63,8.31-50.59-.17-1.78,1.28-2.53,2-2.63,2.03-.28,2.23.29,2.64,2.63,4.56,26.34-4.75,55.83-17.7,78.06Z"/>
  <path class="cls-2" d="M704.46,491.37c-.53,5.36-4.22,9.44-9.26,12.62l-38.99,24.61c-5.33,3.36-8.45,8.93-7.93,14.4-1.27-1.13-4.37-.15-5.18-1.51-7.72-13.02,51.34-45.49,61.36-50.12Z"/>
  <path class="cls-2" d="M289.06,533.09c-6.71-1.92-11.66-7.78-18.26-11.48-4.88-2.73-42.96-23.98-39.37-28.41,18.64,5.63,34.9,18.43,51.38,30.14,3.54,2.52,4.64,6.96,6.25,9.74Z"/>
  <path class="cls-1" d="M147.32,1388.49c2.27-3.25,4.17-7.01,8.23-7.2-1.14,5.07-5.5,4.98-8.23,7.2Z"/>
  <path class="cls-1" d="M544.83,311.62c.46,11.45,4.94,42.84,1.13,58.2-10.18-6.72-29.1-71.85-21.12-78.79,9.76,2.89,13.75,12.98,19.99,20.6Z"/>
  <path class="cls-1" d="M391.19,311.17c4.99-8.39,11.95-15.1,20.01-20.29,9.06-7.53-4.72,47.1-5.37,49.61-2.57,10.05-8.78,19.27-14.36,27.82-4.3-20.55,2.06-38.98-.28-57.14Z"/>
</svg>