<?xml version="1.0" encoding="UTF-8"?>
<svg id="Layer_1" data-name="Layer 1" xmlns="http://www.w3.org/2000/svg" viewBox="0 0 936 2606.22">
  <defs>
    <style>
      .cls-1 {
        fill: #e7e1ce;
      }

      .cls-2 {
        fill: #c46b2a;
      }
    </style>
  </defs>
  <path class="cls-1" d="M471.73,1438.72c-3.45,14.85-1.35,20.45-5.92,41.99-1.58,7.43-3.4,28.21-4.79,38.68l-2.88,21.66c-.65,4.87-7.85,43.16-9.25,49.33-4.46,19.59-8.04,39.14-10.28,59.26l-2.48,22.3-2.54,27.83c-1.11,12.14,1.17,24.02-1.85,35.73-2.77,10.71-.55,21.96-2.49,33.15l-5.09,29.33c-2.65,15.28-17.69,79.08-22.54,91.92-14.46,38.28,2.89,75.02,6.98,116.06l2.58,25.85c.9,9.02,1.11,18.92.06,27.91l-2.57,22.06c-.85,7.29-1.71,15.13-3.38,21.91l-11.87,48.06c-4.59,18.57-10.29,36.86-13.93,55.9l-13,68.1c-2.47,12.92-4.12,77.17-1.93,91.95,3.26,22.05,9.07,43.46-.7,65.52,5.83,22.67,22.96,61.2-2.39,75.77-5.43,3.12-10.1,6.89-15.68,10.54-4.78,3.13-14.83,4.48-17.56,10.3-7.34,15.65-19.26,24.06-31.92,34.11-17.29,13.72-37.91,18.89-58.12,7.23-10.83,5.74-55.89-7.46-62.35-13.82-10.31-10.16-9.63-30.21,1.06-41.24,10.09-10.42,23.33-17.18,35.28-26.32,19.71-15.08,33.73-35.3,49.3-54.51,4.76-5.87,6.96-10.83,3.71-18.57s2.32-36.13,4.47-39.62c4.68-7.63.8-14.48.22-21.91l-2.76-35.44-11.56-64-3.15-21.71-5.33-29.24c-1.76-9.65-2.36-19.28-4.34-29.16l-7.6-37.82-7.93-36.26c-4.97-22.69-8.25-74.78-5.22-97.2l2.74-20.25c.79-5.83,1.62-12.1,2.86-18l14.39-68.19c3.41-16.17,4.45-60.09,1.78-75.49-2.74-15.78.98-76.23-2.68-87.73-10.73-33.73-21.26-65.68-26.75-100.62l-6.85-43.61c-1.03-6.56-2.87-13.77-1.25-20.46,1.9-7.83-2.94-13.66-2.92-20.45l.41-160.53c.03-13.63,8.29-68.86,10.19-89.1-1.01,10.77,14.74-96.04,12.19-84.13l4.96-23.15c7.92-36.99,13.18-48.71,20.78-83.25,4.86-22.05-5.29-49.58.85-85.72,3.31-19.44,8.12-38.11,9.56-57.98.25-3.4-4.39-37.73-4.93-39.46l-26.76-84.8c-9.06,19.93-9.95,38.79-15.94,57.62-4.7,14.77-8.35,29.52-10.55,44.82-4.62,32.12,4.98,64.13-.17,91.29l-5.26,27.76c-7.42,39.12-14.08,67.85-28.78,105.05-3.76,9.51-5.96,19.56-8.74,29.33-43.33,152.57,3.38,73.89,15.4,168.3l2.58,20.3,7.03,38.12c1.54,8.34,2.39,19.79-.87,27.36-3.88,9-16.67,8.38-24.13,6.09-22.43-6.88-13.48-45.24-26.18-51.83-7.17,11.31-3.83,22.91-2.23,34.4,1.16,8.39,2.52,12.85,11.27,16.91,43.54,20.23,21.59,26.07,35.99,40.58,4.26,4.29,4.47,13.08,2.23,17.69-9.37,19.29-56.73-9.33-69.14-16.69-10.12-6.01-18.66-11.36-24.96-22.79l-10.49-19.02c-6.59-11.95-12.39-24.3-16.72-37.4-3.91-11.82-.45-25.34.8-37.31,1.13-10.8-1.48-21.85.85-31.89,3.15-13.55.08-25.26-.06-38.49l-1.12-107.66c-.1-9.37-3.65-27.94-4.3-48.4-.31-9.83-4.55-19.45-2.52-29.75-1.4,7.15-5-95.75-2.41-113.65l2.98-20.61c3.12-21.56,7.28-43.65,14.77-63.97,14.5-39.3,7.63-71.3,8.48-84.04l1.73-26.2c.89-13.44,3.39-45.27,6.57-57.3l11.06-41.89c8.8-33.33,11.3-8.92,2.07-59.55-3.75-20.55,3.33-49.1,7.39-69.93,1.4-7.18,4.62-12.64,6.81-19.07,7.43-21.8,18.63-39.28,33.23-56.71,13.4-16,29.87-26.59,49.71-33.94,48.68-18.06,40.63-5.86,95.23-35.98l32.88-18.14c20.41-11.26,49.56-22.31,52.84-46.98,1.61-12.1,4.24-23.61-.27-36.27-1.89-5.29,1.12-13.15-.55-18.77l-10.98-36.9c-.44-1.48-36.39-24.56-30.71-79.51.95-9.22,6.44-14.45,17.29-14.75-11.21-76.35,24.84-147.16,106.53-156.56,68.16-7.84,131,43.59,131.61,104.61l.51,50.44c2.33,2.59,7.31,1.25,9.36,3,12.22,10.73,9.8,26.54,7.37,40.91-3.59,21.21-11.37,39.99-31.15,50.57.07,14.05-6.73,25.17-8.37,37.59-2.6,19.69-.28,39.55-.86,59.46-.55,18.5,23.27,24.09,31.02,31.6,4.89,4.74,11.12,5.15,16.48,8.07l38.62,21.03c62.71,34.14,51.51,18.55,113.86,44.39,39.13,16.21,74.97,92.98,75.25,132.98.05,7.32,2.03,15.37,1.16,22.23-1.2,9.54.07,20.52-1.8,29.67-3.13,15.3-2.53,26.13,2.78,40.96,6.2,17.29,17.8,59.53,18.1,77.43l1.45,87.31,6.52,31.22c2.93,14.04,9.17,33.92,13.77,51.55l5.23,20.05c1.8,6.89,2.79,14.63,2.82,21.79l.45,115.62c.02,4.04-3.37,7.97-2.89,12.09,2.3,19.35-3.4,37.15-4.27,56.06l-1.61,35.1c-.87,19.09-1.67,39.26-.62,58.8.36,6.77.34,11.61-.09,18.3-1.72,26.67-1.65,52.95.11,79.35,3.66,54.89,2.36,40.32-20.11,88.7-6.19,13.33-14.69,25.26-27.98,31.34-17.64,8.06-46.16,29.32-70.26,21.26-8.14-26.71,9.82-21.44,6.75-36.88-2.64-13.33,27.87-20.84,35.06-30.45,9.96-13.33,9.38-33.54,3.32-48.93-7.45,13.63-8.66,27.46-13.04,40.53-5.87,17.52-26.82,17.72-32.88,12.73-4.82-3.96-6.8-9.31-5.94-15.92l7.27-55.66c4.27-32.68,6.42-56.61,29.78-80.52,8.26-8.45,8.18-20.7,6.11-31.63l-3.46-18.22c-6.18-32.52-15.6-63.31-26.45-94.58-8.31-23.95-14.37-47.03-19.85-71.6l-7.5-33.65c-2.03-9.09-.66-19.17-2.81-27.44-2.53-9.7-1.11-15.51-.04-24.71,2.14-18.37,1.9-55.06-2.91-73.31l-8.84-33.57c-4.8-18.21-10.95-35.46-12.45-55.16-4.87,3.54-3.5,9.48-6.15,13.78-3.97,6.43-5.28,12.63-7.38,19.79l-15.47,52.71c-9.04,30.8-4.06,58.85,2.29,91.88l3.17,16.5c4.79,24.9-6.94,50.55.92,79.68l18.81,69.76c1.85,6.86,1.95,13.39,3.02,20.02l7.67,47.65,2.41,22.3c1.2,11.07,5.41,20.35,5.66,31.68.3,14.24,5.07,24.8,4.57,36.69-.43,10.02,4.51,19.64,4.58,29.79l.39,55.9c.02,2.91,3.15,5.22,3.11,8.25l-1.33,100.53c-.3,22.71-4.47,47.87-7.31,71.42-5.62,46.7-18.93,90.37-34.17,134.32l-1.32,95.41c-.19,13.94-1.51,25.63.27,40.3l3.15,25.94,12.03,51.77c2.37,10.21,4.48,19.61,5.47,29.92l2.15,22.26c4.22,43.68.98,64.14-7.53,106.03l-8.64,42.53-20.57,117.9c-3.02,17.31-8.34,48.91-8.54,65.67-.12,10.18-4.02,19.33-5.78,29.5,11.93,17.88,7.58,38.51,8.86,57.43,1.86,15.51,19.11,26.57,27.55,38.53,11.67,16.54,28.41,25.08,43.6,37.6l13.87,11.43c8.06,6.64,8.74,14.32,9.42,23.14,1,13.16-4.3,22.31-16.82,25.79l-27.2,7.54c-7.88,2.18-17.47,1.15-24.68,1.06-19.65,8.49-40.13,7.38-56.85-7.7-8.41-7.59-21.22-13.38-27.06-23.71-4.15-7.34-6.49-12.23-14.45-16.78l-25.22-14.42c-24.63-14.08-6.57-55.93-4.1-77.26-3.42-10.58-8.06-34.69-4.39-44.65,13.9-37.81,6.78-81.15,1.4-122.04l-2.87-21.8-14.87-69.81c-9.51-44.64-30.42-88.27-24.62-133.95l2.78-21.93c3.07-24.18,3.02-33.44,8.57-58.78,2.01-9.16,2.42-17.86,3.83-26.64,1.38-8.62,2.58-15.18.01-23.98l-4.5-15.44-11.54-39.6-9.41-43.76c-1.44-6.68-2.05-14.86-3.25-21.92l-3.39-19.96c1.49,8.79-4.86-60.09-4.6-52.48l-.99-29.55c-.23-6.97-4.25-45.61-5.92-54.11-7.23-36.84-17.04-72.35-20.22-109.84-1.05-12.36-5.14-23.8-5.33-35.86-.13-8.02-1.29-14.69-2.17-22.38l-2.93-25.81c-1.05-9.23,3.51-18.49-1.83-27.68-4.88,9.49.17,18.49-2.18,28.6ZM548.09,331c9.37-11.65,13.93-22.8,15.15-37.15.5-5.88,2.96-11.46,2.78-18.18-.16-6.06,3.35-14.92,9.75-15.13,2.88.38,1.81,6.17,2.71,8.95,13.45-8.6,18.47-34.01,18.8-49.39.1-4.69,3.22-10.57-1.51-14.4-4.46-3.61-11.28,1.96-15.39.63-5.76-2.13-.55-10.51-.38-14.87,1.33-33.56,2.69-45.05-6.5-75.13-19.16-62.71-94.58-87.57-156.18-55.37-30.78,16.09-47.82,46.7-52.57,81.2-2.26,16.39-.5,32.62-.55,49.14-.02,5.33,4.25,10.68.84,15.46-5.43-.86-13.42-4.79-17.84-.4s.06,10.93.05,15.56c-.03,18.51,5.5,36.25,18.58,47.64,1.65-4.78.71-8.8,3.15-9.32,15.59-3.27,3.25,38.35,26.18,68.21,13.35,17.39,28.05,31.81,46.43,43.86,13.23,8.68,49.14,8.78,62.82-.06,17.06-11.04,30.61-24.99,43.67-41.24ZM389.46,387.75c-5.58,1.32-.16,25.81-9.23,50.03l-8.36,22.32c-3.76-4.59-1.02-8.64-1.83-12.57,4.25-13.19,7.79-26.83,8.53-41.8-21.73,15.73-44.99,25.56-66.94,39.28l-25.79,16.13c-10.47,6.55-23.12,10.64-35.52,14.99-11.19,3.93-23.29,3.07-32.47,9.23-6.54-.07-13.77,1.63-19.84,4.03-28.96,1.56-45.28,18.73-57.7,42.56-7.89,15.13-18.33,29.05-22.32,46.12-4.66,19.95-13.18,39.66-8.29,59.72-.04-.16,2.54,49.44,9.98,57.99.46,2.69-.47,6.42,1.99,8.18-.38,1.04.46,2.5.28,3.59-1.21,7.24,4.13,10.25,2.38,19.12s-7.96-15.9-11.15-15.65c-3.45,5.95-2.26,10.49-3.22,14.68-3.39,2.33-11.35,32.52-10.44,36.09-2.66,1.59-1.26,5.38-1.68,8-5.29,14.13-6.49,29.92-5.77,45.96.66,14.66-1.92,28.8,1.47,42.01-2.61,11.36,1.56,24.39-1.66,35.54l-6.47,22.35c-5.89,20.35-13.13,39.85-15.02,60.14-.54,5.8-1.04,11.86-2.11,17.59-2.67,14.29-3.82,59.63-1.4,67.99.54,15.85-4.68,69.33,3.13,80.4-.06.66,0,1.34,0,2l-.03,20.11c0,2.08.44,4.03,2.03,3.89-.03,9.22,1.17,18.3,1.17,27.44l.06,104.47c0,6.1,4.22,8.56,2.57,38.03-1.72,30.71-4.54,47.18-3.58,79.99.69,3.92,5.49,7.87,7.14,10.67,1.71-3.74,1.12-6.05,2.77-7.76,1.5-1.55,6.37-1.41,7.69,1.47l16.92,36.9c13.74,29.96,31.1,41.08,64.85,50.81-5.53-21.6-37.64-19.95-46.4-51.77-4.56-16.55-9.17-45.17.24-59.51,7.35-11.2-3.66-20.11,1.93-22.63,8.1-3.64,22.44,23.92,23.18,26.92l8.66,35.23c1.01,4.12,8.43,12.04,12.17,7.7,5.86-6.82.47-18.3.15-26.03-.35-8.56-1.75-15.71-2.84-23.93l-2.4-18.04c-8.55-64.16-28.5-56.74-34.23-81.69-2.66-11.58-2.17-25.56,1.1-36.71,1.3-4.43,2.54-8.86,3.15-13.5l.09-1.89c1.48-1.74,1.55-3.99,1.69-6.17l.48-7.87c2.56-2.1,10.67-32.68,10.02-38.14,2.46-1.68,1.67-5.08,1.96-7.69,17.36-41.61,29.44-85.47,38.63-130.62,8.15-40.09-.73-90.92.74-99.6s3.82-17.26,1.52-28.13c-1.5,5.92-29.38,34.25-32.22,34.29-1.72.02-2.19-2.67-2.87-3.94l23.82-30.55c6.69-8.57,13.9-17.33,18.24-27.35l6.12-14.13c4.08-9.43,4.74-19.49,8.32-29.34,4.2-11.53,4.97-24.7,6.97-37.09l3.25-20.13,3.02-29.65c1.42-13.91.9-28.2-.03-42.03l-2.02-30.1c-.69-10.33-5.8-19.1-8.64-30.45-26.64,17.47-52.58,36.62-69.38,62.82-2.55,1.16-3.93,5.42-9.54,3.16,9.46-23.23,27.41-41.24,47.55-55.75,11.3-8.14,20.6-18.41,33.83-23.73-1.68-11.83-2.91-23.35,3.89-31.93,5.08,13.96.11,33.33,3.35,40.73l9.1,20.83c5.73,13.13,11.35,23.31,19.89,34.29,3.91,5.03,5.51,10.66,10.94,15.23,10.23,8.62,24.64,21.61,36.94,25.22,6.97,2.04,12.73,7.69,20.07,5.64,7.01,3.72,16.44,2.68,24,.74,14.43-3.7,31.08-3.89,51.36-9.57s43.74-9.75,55-24.61c3.93-5.18,3.47-12.37,7.64-16.64v-7.93c2.95-1.46,1.88-5.26,2.38-8.01,3.9-21.66,1.92-44.66,1.78-68.06.06,11.05-7.43-37.62-7.39-40.12.34-18.26-2.95-35.45-8.16-51.94,11.47,1.48,17.98,71.05,17.69,72.1-1.52,5.53,1.98,9.82,2.26,14.58,1.11,19.23.16,38.02.29,57.52.08,12.52-5.51,23.91-6.65,36.06-3.27,35.04-33.52,37.43-57.6,44.65-34.87,10.45-77.66,22.24-110.47,5.35-24.5-12.61-42.94-31.62-56.93-54.37-1.71,10.05.91,18.32,1.38,26.61.55,9.82-1.94,19.89-.07,29.73.72,3.79-.26,8.02-.21,11.85.02,1.71.23,4.46-.34,6.04-4.14,11.58-2.14,24.6.31,36,3.7,17.15,10.81,33.34,16.2,50.14,5.69,17.71,15.13,42.65,16.05,61.92.29,6.02-2.29,11.9,1.82,15.94,1.53,10.72-3.29,54.93-5.95,65.22-5.87,22.67-5.9,45.41-1.45,69.06,1.51,8.05,10.08,11.86,15.86,16.72,12.59,10.6,23.96,21.31,35.79,32.35,16.5,15.4,27.13,32.86,35.44,52.78-.39,3,1.8,6.08-.28,10.19-9.13-19.29-20.16-36.9-36.31-51.92l-46.48-43.21c-5.22,5.75-2.83,12.47-5.02,16.87-4.65,9.36-5.05,20.01-8.43,29.94-.88,2.58-2.53,5-1.94,8.01-7.62,17.92-12.34,37.55-15.24,57.96l-15.35,108.14c-1.21,8.56-6.4,50.8-5.56,55.92,1.62,9.91-1.51,19.26-1.47,27.96.08,17.43-.78,34.74.98,52.19,1.68-13.74.68-25.9,3.77-38.19,8.54-33.92,20.16-66.21,33.8-99.33,18.88-45.83,36.63-96.21,33.03-146.43-.53-7.46-2.26-15.03-1.56-21.58,5.01,1.91,7.95,8.02,8.59,14.67,4.18,43.76-4.06,87.44-20.09,128.64l-18.09,46.52c-2.88,7.41-3.39,14.51-4.45,21.53l-3.96,26.19-.12,15.81c-.05,6.02.12,11.96.14,18-6.79-1.32-4.2,31.71-2.16,38.17,2.58,8.19-2.21,17.75,1.68,25.77,2.03,4.19-1.82,10.33,1.9,14.06-1.39,10.44,2.96,32.7,4.91,44.72,6.45,39.74,15.23,77.55,29.24,115.24,7.31,19.64,13.79,38.55,17.35,58.09-.05-.26.69,22.59-5.03,29.03-1.51,1.7-4.33,1.15-5.68-.99,4.01-39.82-5.42-60.08-19.81-98.18-12.86-34.05-19.44-69.26-25.18-105.43-.58-3.65-.79-8.35-2.85-10.43l-.36-11.87c-.03-1.12-.91-3.41-1.73-4.18,1.11-4.22-1.65-8.25-1.77-12.01l-1.41-44.78c-.34-10.74-1.93-21.12-1.26-31.06l2.41-35.93c.13-2.02,3.86-4.8.86-8.34-2.62,2.16-1.36,6.46-2.92,8.74-7.07,10.31-4.3,24.54-8.15,35.52-5.2,14.83-7.18,30.21-10.06,45.84-4.49,24.4-.6,49.8-2.26,75.78-.08,1.33.95,2.61,1.76,2.22-.07,11.36-.29,23.53,1.36,35.56,3.73,27.17,7.98,53.01,13.9,79.65,5.92,26.67,14.57,52.6,30.92,73.29.52,7.46,6.49,13.2,8.88,21.99-4.37,4.51-9.2-.6-14.69-2.8-.7,42.23,2.26,82.58-.83,123.68-1.24,16.47-12.34,54.42-14.27,70.54-1.48,1.18-.1,4.79-1.23,6.09-2.05,2.36-1.34,5.17-1.73,8-1.63,11.99-4.16,23.85-4.1,36-.88-.25-1.65.8-1.66,2.14l-.09,47.69c3.54,6.47,1.26,14.36,2.26,22.15l2.99,23.42,15.87,79.27,7.38,44.62c.51,3.08-.2,6.82,3.02,8.7.52,17.15,3.64,34.26,6.21,51.97l10.43,71.76c1.71,11.75.43,24.8-3.86,36.59-3.8,10.43-.37,21.14.22,31.77.63,11.41-25.81,39.54-33.9,48.68-8.87,10.03-16.76,19.59-28.07,27.76l-26.47,19.12c7.98,3.43,13.32-3.73,19.4,2.84-11.57,6.02-23.06,14.08-20.93,27.81,2.73-12.89,34.92-42.42,30.17-23.06-.98,3.99-13.26,11.26-17.87,23.19-1.16,3.01,7.66,4.57,8.69.97,3.4-11.85,25.23-35.45,29.16-27.66,2.77,5.49-13.04,13.82-20.04,30.72-1.85,4.47,11.49,7.52,12.43,4.07,3.58-13.47,9.23-24.71,22.65-31.25,3.86-1.88,10.07-9.4,14.62-4.23,2.96,3.37-1.76,10.2-5.17,11.84-9.22,4.44-20.31,19.08-20.07,20.08,2.52,10.57,28.35,11.4,40.08.41,12.74-11.93,26.58-15.49,33.28-32.77,3.35-8.63,5.96-16.83,14.8-20.44.92,3.25,2.14,5.77,3.83,5.65,1.93-.14,22.28-10.41,24.72-15.76,4.08-8.97,2.96-22.69-.08-31.5-3.59-1.84-9.1-1.51-10.32-4.8-1.65-4.48.59-7.96.73-12.01.4-11.54,2.99-20.08,7.28-30.78,8.3-20.73-9.46-38.22-6.8-67,2.04-22.15-4.47-42.39-7.44-63.64l-4.56-32.67-1.16-27.42c-.42-9.85-6.2-33.25-4.66-42.22s-1.6-16.14-2.14-24.21c-1.15-17.27-1.05-34.42.04-51.81.58-9.3,3.2-18.3,2.14-27.97-1.99-18.17,1.26-34.45,4.63-52.08,5.95-31.16,17.33-59.77,34.32-86.33,8.03-12.55,11.7-24.64,14.43-39.4,3.91-21.13,11.74-40.79,16.78-61.75,7.99-33.18,11.56-48.78,13.55-82.48.82-3.72,3.24-8.19.66-11.98-4.18,3.81-1.83,9.31-3.31,12.04-8.6,15.86-16.79,34.14-33.97,43.42-5.75,3.1-20.09,3.39-25.89.07-20.03-11.49-28.91-33.37-34.29-55.06-2.37-9.56-.39-21.48-1.17-30.49,7.15-49.76,25.09-97.77,32.1-148.47.39-2.85,5.37-54.3,5.35-51.81l.3-37.78c.02-2.01-1.16-4.14-2.31-3.93-.02-7.22,1.52-15.57-1.16-23.37-19.23-55.95-26.25-64.95-40.98-127.45l-6.24-26.49c-2.45-10.41-1.67-21.15-4.64-30.68l5.11-1.83c5.04,10.23,5.96,22.76,8.62,34.66,6.84,30.6,13.55,59.98,24.58,89.22l27.88,73.92c11.94,31.66,21.99,62.91,31.54,94.84,7.78,26.04,11.8,51.6,17.59,76.95,3.67,16.07,2.33,32.8,4.42,50.54,5.87-19.03,3.62-36,7.72-56.51,2.82-4.91,4.34-12.04,3.84-17.78l10.05-52.07c3.06-4.43,2.37-10.68,2.21-15.94,3.01-3.06,1.12-8.09,1.73-12.06,2.9-2.5,2.65-7.82,3.27-12.04l8.29-56.41c2.68-18.23,3.68-35.78,2.21-53.31-.32-3.84,2.62-9.39-.63-13.21-2.77-3.25-8.47-1.74-12.03-4.22-7.63-5.33-14.76-12.93-21.22-18.66-3.67-8.03-35.02-78.81-28.86-82.07,2.63-1.39,6.37.08,7.64,2.99l30.37,69.08c10.22,23.25,44.97,25.6,63.47,13.01,9.55-6.5,14.05-16.67,18.3-26.64l12.58-29.48c3.65-8.56,8.79-16.13,11.16-25.6.64-2.53,3.77-3.84,6.37-3.56,1.55.16,2.84,1.44,2.61,4.09-6.63,8.52-5.01,21.44-9.2,30.67l-22.45,49.41c-17.32,15.2-9.5,13.19-32.12,22.15l-.08,37.91c0,1.93.21,4.14,1.7,3.95,1.47,10.45,2.31,41.08,6.08,48,1.08,4.6-1.41,10.03,1.8,14-1.33,12.82,7.61,59.54,11.19,73.58,5.06,19.81,4.99,29.78,9.65,48.42-1.25,5.42,2.15,9.98,3.48,15.74,6.46,27.93-1.35,34.8,5.84,44.44.29-21.24,2.97-40.75,6.47-62.24,9.68-59.38,37.96-137.11,60.3-195.34,11.4-29.71,21.18-58.18,30.24-88.42,6.83-22.83,10.61-45.36,15.35-68.61.46-2.28,2.31-3.47,3.61-4.08l3.96,2.26c-2.7,5.3-1.26,11.69-1.62,18.3-.29,5.34-2.56,9.46-2.51,13.96.03,2.39-3.07,5.18-1.88,8-7.11,25.33-13.93,50.44-22.71,76.44-8.21,24.28-18.4,47.05-24.47,71.67-7.13,28.94-2.44,57.85-.94,85.83l.55,10.21c1.06,19.75,5.15,39.55,10.41,59.73l16.15,61.95c4.43,17,9.56,33.35,9.91,50.07.53,25.52-7.35,50.6-23.91,70.37-7.61,9.09-16,11.09-27.09,11.05-10.19-.04-16.22-2.25-23.22-9.87-11.9-12.96-17.54-27.3-24.92-44.99.76,25.68,5.34,48.7,9.47,73.34,4.79,28.63,19.99,64.28,21.55,86.32,1.88,26.53,33.46,49.69,46.42,112.68,4.18,20.31,8.09,40.07,5.77,61.17-.94,8.53,2.12,16.08,2.49,24.17.87,18.57,1.39,37.22.02,55.91l-2.65,36.05-2.67,31.9c-.79,9.47-2.87,18.19-2.93,28.14.01-1.85-9.29,59.2-9.17,53.85l-.94,42.02c-.33,14.96-16.94,42.23-6.77,71.9,2.08,6.05,7.85,29.59,6.91,34.12-.82,3.95-7.67,2.06-9.85,5.21-3.3,4.77-5.45,14.3-5.06,20.46.82,12.73,14.78,16.72,23.25,22.99l4.09,3.02c2.15,1.59,2.78-3.77,4.66-4.7,4.4-.81,9.13,6.45,10.43,10.81,5.56,18.66,19.15,28.22,33.54,38.57,13.52,9.73,30.8,17.41,45.56,3.05-6.43-15.2-30.59-21.93-25.31-31.99,4.15-7.92,35.07,15.77,35.93,34.45.12,2.66,6.26,2.05,8.29,1.83,19.32-2.11-15.04-27.34-15.57-32.94-1.36-14.51,23.15,4.97,29.07,22.98.49,1.48,2.18,4.14,3.26,3.7,1.46-.59,3.1-1.09,4.15-1.65,2.24-1.21,1.07-4.25-.73-6.42l-15.03-18.08c-1.05-1.26-.97-4.41.06-5.06,8.58-5.34,25.61,18.44,29.97,26.13.45-14.59-18.28-25.35-18.28-25.18,0-2.81,1.7-4.15,4.78-4.02,4.03.17,7.01,3.67,11.4.76-20.5-18.72-33.91-21.06-51.8-44.07-5.65-7.27-33.39-38.44-34.26-46.06-1.34-11.64,1.69-24-.83-35.36-3.71-16.72-6.69-32.46-2.4-48.46,2.39-29.36,7.65-55.78,12.15-85.91l3.25-21.78c.47-3.12,7.7-48.19,7.69-48.12l12.25-62.11,7.28-37.9c5.14-26.77,7.3-53.11,4.09-80.29l-2.89-24.55c-1.61-13.66-5.67-25.08-7.95-37.34l-4.88-26.18c-10.79-57.86-10.4-36.09-7.68-95.68,1.1-24.04.32-46.93-.1-70.83-5.74,6.11-10.46,11.15-16.74,7.12,6.08-14.76,13.34-27.36,21.13-40.26,3.43-5.68,4.31-11.27,6.33-16.19,14.61-35.68,21.09-73.23,25.9-111.99l3.08-24.81c1.98-15.99,1.57-31.79,1.44-47.2,1.11.36,1.46-.8,1.47-2.18l.1-41.82c.02-7.46-1.96-14.54-2.02-22l-.57-78-3.78-32.11c-9.12-77.35-18.22-157.46-43.73-229.77-1.73-4.92.24-11.57-3.96-16.6-36.34,33.5-58.83,47.06-81.99,90.35l-2.48-.05-.54-4.28c7.39-22.06,20.01-40.59,38.31-56.49l48.05-41.74,2.65-17.54c1.83-12.12-.31-24.73-1.44-37.77l-2.09-24.16-3.62-23.83c-2.18-14.32-5.39-28.31-.85-42.29-.86-22.84,12.04-49.31,14.13-69.72,2.16,3.44,24.75-65.39,19.89-56.01,2.97-5.74.47-11.46.44-18.11l-.14-27.84c-.01-2.11-1.39-3.29-2.7-3.68l.41-10.37c2.74-14.58,2.66-29.76,1.25-45.67-15.83,25.82-37.31,47.89-65.79,58.3-35.44,12.94-86.77-8.03-121.58-15.59-19.27-4.19-31.72-17.45-36.75-36.66-8.71-33.28-8.7-62.74-6.53-98.15.46-7.58,2.05-14.38,1.84-22.49-.29-10.97,5.05-21.59,5.43-31.73,4.67-1.6,1.67,35.86,1.36,40.47-1.57,23.26-.94,45.89-.86,69.58.06,17.96,2.46,36.59,10.96,52.39,8.16,15.16,34.02,17.95,53.72,24.54,6.91,2.31,46.71,10.17,52.93,9.51,7.43,4,16.55.77,24.17,0,46.65-4.69,84.36-63.75,94.02-106,5.18-22.67-2.18-45.3-6.19-66.48,8.31,3.04,16.74,50.65,11.49,62.49,12.54,1.95,19.16,10.84,28.34,17.44,21.3,15.33,40.34,32.13,52.69,55.81,1.48,2.83,3.28,5.63-.46,8.61-4.17-3.15-6.24-6.51-9.62-8.51-1.99-9.92-47.46-53-60.7-54.66-.85-1.87-3.99-5.95-6.25-3.96-1.69,1.48-.88,3.69-1.61,4.9-9.12,15.13-10.53,82.95-8.58,101.8l2.28,22.04c2.62,25.29,3.77,24.92,8.43,46.83,4.66,21.91,8.31,43.52,21.02,61.99,7.25,10.54,13.75,20.36,22.09,29.86,6.21,7.07,9.92,15.93,16.54,21.73-.13,1.39.11,3.8-2.23,5.27-12.53-10.3-23.63-22.07-33.71-35-3,5.46.9,10.96,1.08,17.03l1.29,44.5c-1.19.97-2.09,3.17-2.07,5.64l.27,40.08c.26,39.11,14.25,75.69,26.74,112.84,10.24,30.44,17.57,60.4,26.39,91.19l4.52,15.78c1.8,6.29,1.74,12.41,3.93,19.94,3.06,10.55-.91,25.53-8.04,35.05-10.31,13.78-19.62,25.68-23.92,43.12-3.29,13.34-3.63,26.13-5.51,39.52l-6.82,48.66c-.36,2.54,1.23,4.91,2.17,5.81,1.08,1.03,4.35,1.04,6.02.12,7.97-4.35,6.49-12.82,8.89-19.63,3.09-8.8,5.92-16.75,7.98-26.31,1.24-5.75,16.27-30.66,22.49-22.72-7.6,28.48,14.59,19.61,4.75,68.1-9.99,49.21-40.14,36.78-48.14,63.87,17.14-4.57,35.52-11.8,48.23-25.17,19.29-20.28,25.72-65.05,36.93-63.01,9.64,1.75-2.2,16.33-3.98,26.56-.68,3.92-8.08,7.11-4.94,13.1,4.41-3.13,5.63-8.29,7.28-12.66,15.12-40.06,15.91-16.46,11.57-79.16-1.42-20.44-2.78-41.97.29-62.07,2.12-13.85,1.81-25.33-.17-39.2-2.4-16.83,1.82-67.81,1.17-69.8-1.56-4.73,1.99-9.1,2.33-13.47l4.59-59.06c.92-11.85-1.51-23.03,1.12-35.31,2.56-12,.67-24.54.21-35.9,4.14-7.95-1.23-49.89-2.67-60.14-.87-6.2-3.47-14.1-3.65-19.91-.46-15.12-7.24-28.97-11.17-44.32l-8.72-34.09c-1.9-7.42.66-17.89-2.69-25.53,2.32-29.63,5.01-59.98-1.48-89.84-4.33-19.91-5.56-40.38-15.82-56.73-1.21-3.17.17-8.79-3.43-10.9-1.07,8.41-6.87,11.86-10.08,17.5-1.41-5.44-2.35-10.04-.97-13.81,6.12-16.72,10.44-35.31,10.39-54.26-.02-7,2.71-12.16,3.21-18.51,1.95-25.24-3.25-51.78-13.53-74.53-7.43-16.45-14.6-31.47-24.74-45.88-16.34-23.21-41.49-37.5-68.87-37.72-8.33-6.45-20.22-4.61-30.49-9.24-12.21-5.5-26.78-9.69-37.76-16.01-14.69-13.16-63.67-34.32-78.52-45.18l-12.54-9.17c3.22,16.47,3.91,33.43,10.2,47.69-.7,1.63.74,3.81-2.5,6.69-1.6-9.56-8.33-17.28-11.03-26.29-4.16-13.91-6.38-28.81-7.11-44.12l-2.12-43.99c-6.28,5.95-18.4,12.23-20.38,20.98l-6.84,30.26c-1.29,5.69.13,12.42-5,17.47-2.01,1.98.02,6.28-1.05,7.89-5.49,8.35-6.13,17.88-9.69,26.68-6.48,16.03-11.75,31.41-17.03,46.73-2.56,7.43-5.81,15.18-11.83,22.14-3.92-2.98-2.58-6.85-2.84-9.84,18.23-41.93,32.24-85.5,44.03-134.73-31.73,21.93-67.34,22.68-99.63,1.19l7.15,36.47c4.28,1.81,3.39,4.91,3.72,8.09,1.16,11.02,7.47,20.65,10.11,31.21,2.4,9.6,4.18,18.76,8.95,27.52,5.42,9.95,5.46,21.64,11.84,30.09.5,2.89.76,7.38-.34,11.85-5.29-5.72-6.58-14.06-13.32-18.07.13-3.19.2-6.69-1.19-10.35l-14.79-39.01c-9.49-25.04-16.66-50.46-21.57-76.91-1.42-7.68-3.13-11.76-9.54-16.85-4.14-3.29-6.91-9.69-13.03-8.66-.02-3.76,1.54-8.43-4.12-10.02,3.67,16.54,2.04,32.32,1.58,47.99ZM240.89,1383.74c1.78-4.73,1.94-6.99-.37-8.13-.83,3.57-1.22,6.02.37,8.13ZM86.37,1444.02c1.01,7.19,4.07,13.93,9.62,19.91-1.85-7.4-4.13-14.69-9.62-19.91-1.68-4.74-.68-9.85-4.44-15.87-4.64,7.27.71,12.31,4.44,15.87ZM100.23,1467.78c0-1.23-1-2.23-2.23-2.23s-2.23,1-2.23,2.23,1,2.23,2.23,2.23,2.23-1,2.23-2.23ZM154,1472.78c0-.55-.45-1-1-1s-1,.45-1,1,.45,1,1,1,1-.45,1-1ZM794.3,1473.59c-1.69-3.35-4.45-2.25-4.62.91.36,5.06,4.97,4.49,4.62-.91ZM153.69,1476.98c.24,3.21,2.12,3.43,3.3,2.81,1.09-.58,1.55-1.85,1.02-2.98s-2.25-2.22-4.31.17ZM533.97,1681.96c-.36,13.15-.18,26.1,1.67,39.82,1.43,10.56,2.02,20.47,6.48,31.67,5.51,13.84,11.86,27.01,24.73,35.79,8.6,5.87,18.17,4.7,26.57-2.23,16.2-13.4,22.5-33.82,24.6-55.39.61-6.31.7-13.81,0-21.77-1.6-18.37-5.7-36.39-11.15-55.02-8.24-28.19-23.83-87.78-24.59-114.91l-1.6-57.36-5.9,16.33c-19.55,50.49-32.99,102.51-39.32,156.61-1.07,9.18,2.07,17.65-1.5,26.46ZM365.84,1505.78c-4.19,52.53-5.71,69.39-19.09,121.19l-10.66,41.29c-4.16,16.13-7.66,31.71-8.2,47.51-.17,5.11-.57,10.96.06,16.02,2.42,19.5,7.73,39.09,21.93,53.81,4.48,4.65,9.88,7.63,15.2,7.99,6.34.43,12.64-2.2,17-7.76,2.3-2.93,5.96-4.61,8.18-7.78,10.28-14.74,19.46-31.83,21.03-50.43,1.54-18.22,2.17-78.78-5.13-91.42-.03-2.87,1.01-7.03-2.17-8.43,2.63-13.04-3.78-25.47-6.5-38.28-6.81-32.07-13.84-64.68-28.91-92.31-1.21-2.22.97-5.61-2.05-7.61l-.7,16.2ZM564.13,2142.54c18.85-20.6,27.09-44.4,36.64-68.52,4.96-12.52,2.69-25.4.25-38.73-5.19-28.37-14.51-54.22-28.57-79.54l-11.14-20.05-10.67,82.38c-2.56,19.76-1.72,39.63-.94,59.48.31,7.92,10.08,44.52,10.08,44.39.05,7.16.28,14.47,4.36,20.58ZM394.83,2087.91c5.45-25.16,3.16-80.5-4.1-105.02-.42-14.95-3.1-28.11-6.09-44.35-25.33,37.31-40.56,78.42-42.81,123.21,8.4,30.41,20.83,57.6,41.02,81.49l11.98-55.33ZM595.99,2110.13c-8.51,15.62-17.09,30.69-28.93,45.88,10.26,42.7,17.95,85.08,24.12,126.05,5.64-16.41,5.65-31.98,8.96-48.04,3.42-16.62,4.1-33.65,3.81-50.07,1.13.84,1.46-.89,2.17-2.28l-.82-92.33c-6.27,6.7-5.93,14.59-9.31,20.79ZM341.92,2165.94c-.05,11.42-.49,23.35,1.01,35.46.76,6.1,3.71,11.56,2.59,18.4-.64,3.88,2.52,40.27,6.17,41.98,1.29,4-1.8,8.69,2.36,13.38,4.38-5.35.64-10.78,2.57-15.24,3.1-7.15,4.03-15.49,5.4-24.19,3.82-24.33,9.78-47.24,14.99-71.12.63-2.89,4.5-6.43,2.04-9.56-12.36-15.77-22.01-32.38-31.06-49.26-.42-.78-.88-1.54-1.55-2.14-.15-.59,0-1.25-.1-1.85l-6.1-10.25-.21,72.17c.27,1.39.77,3.07,1.9,2.24ZM756.47,2524.2c-1.73,1.94.31,3.27,1.45,4.61,1.05,1.23,2.04.84,2.05-.18.03-2.08.32-3.22,0-3.89-.42-.9-2.29-1.91-3.51-.54Z"/>
  <path class="cls-2" d="M217.85,485.36c12.94.14,26.16-.83,39.98.38,5.46.48,10.2,2.79,16.09,2.24,8.49-.79,16.24.24,24.95,3.94-7.07,7.55-12.83,14.4-20.24,20.82-3.58,3.1-8.89,5.2-8.32,10.67,13.72-11.13,24.11-25.04,39.37-32.17,33.13-.13,94.2,8.87,124.86,24.32,3.01,1.52,7.91,1.98,7.89,5.77-.02,5.72,5.62,8.76,6.2,14.32,5.21,16.49,8.49,33.68,8.16,51.94-.05,2.5,7.45,51.18,7.39,40.12.14,23.4,2.12,46.4-1.78,68.06-3.57.79-2.38,5.22-2.38,8.01v2c-1.88-.31-2.07,1.58-2.12,3s.18,3.34,2.12,2.93c-4.17,4.26-3.71,11.46-7.64,16.64-11.26,14.86-34.84,18.96-55,24.61s-36.93,5.87-51.36,9.57c-7.89-1.58-15.99-.4-24-.74-7.33,2.05-13.1-3.6-20.07-5.64-12.3-3.61-26.71-16.6-36.94-25.22-5.43-4.58-7.04-10.21-10.94-15.23-8.54-10.98-14.16-21.16-19.89-34.29l-9.1-20.83c-3.23-7.4,1.73-26.77-3.35-40.73-8.49-23.35,32.69-72.89,44.8-93.73-12.32,5.63-17.74,16.55-25.1,26.67-35.87,49.35-23.86,72.73-41.16,100.95-5.96,9.72-16.24,14.74-24.3,22.19-13.59,12.56-26.35,25.14-38.75,38.93-2.34,2.61-4.09,6.02-7.96,4.74-5.78-1.92-5.21-15.52-7.29-12.05.18-1.09-.65-2.55-.28-3.59,1.32-3.63.14-5.73-1.99-8.18-7.45-8.55-10.02-58.15-9.98-57.99.81,11.21,5.38-28.08,5.03-24.26,1.35-14.42,8.66-37.19,3.27-35.45,3.99-17.08,14.43-30.99,22.32-46.12,1.94-.2,4.45-1.45,5.93-3.74,12.54-19.4,31.28-30.72,51.77-38.82,6.07-2.4,13.3-4.1,19.84-4.03Z"/>
  <path class="cls-2" d="M631.99,490.46c13.57,11.24,27.65,21.73,39.2,36.15,6.08,7.59,15.69,12.04,18.86,20.85,2.36,6.55,18.63,34.51,23.94,40.31.04.65-.12,1.36,0,2,4.01,21.18,11.36,43.82,6.19,66.48-9.65,42.25-47.37,101.31-94.02,106-8.02-.77-16.15-.86-24.17,0-6.21.66-46.01-7.2-52.93-9.51-19.7-6.59-45.56-9.39-53.72-24.54-8.51-15.8-10.9-34.43-10.96-52.39-.09-23.69-.71-46.31.86-69.58.31-4.6,3.32-42.07-1.36-40.47.6-15.96,7.48-29.36,14.42-43.52,16.51-12.08,35.97-19.98,57.43-22.61,10.9-1.33,21.15-5.13,32.03-5.56,15.54-.62,29.8-4.32,44.22-3.63Z"/>
  <path class="cls-2" d="M684.54,1331.65c2.16,1.45,3.55,4.52,4.36,7.86,9.73,40.22,13.24,80.59,11.94,122.17-.25,7.91.99,15.91-2.68,22.1-3.05,5.15-3.89,12.65-.43,18-.68,28.89-6.74,58.23-15.17,86-.93,3.05-1.87,4-2.09,8-1.13,20.48-10.28,39.54-16.48,59.82-7.1,23.22-14.58,45-18.94,67.76-2.97,1.01-5.91,3.29-9.7,2.5-2.77-.58-3.98-4.66-6.88-6.18-.35-16.72-5.48-33.07-9.91-50.07l-16.15-61.95c-5.26-20.18-9.36-39.98-10.41-59.73,2.18-.84,2.17-3.28,2.2-5.14.03-2.22.1-5.12-2.74-5.07-1.5-27.98-6.19-56.9.94-85.83,6.06-24.62,16.26-47.38,24.47-71.67,8.79-26,15.6-51.11,22.71-76.44.63-2.23,4.76-4.58,1.88-8-.05-4.5,2.22-8.61,2.51-13.96.36-6.62-1.08-13,1.62-18.3,1.77-3.47,3.61-6.77,4.91-11.91,4.66,3.51,4.28,8.78,6.27,13.87l22.43,57.29c1.44,3.68,2.57,7.01,5.35,8.88Z"/>
  <path class="cls-2" d="M300.97,1263.78c2.97,9.53,2.19,20.27,4.64,30.68l6.24,26.49c14.73,62.51,21.76,71.5,40.98,127.45,2.68,7.8,1.14,16.15,1.16,23.37l.1,39.84c0,1.44.86,2.71,1.9,1.87.02-2.49-4.95,48.96-5.35,51.81-7.01,50.71-24.94,98.71-32.1,148.47-.93-1.87.64-4.91-2.15-6.12-1.37,5.86,1.25,13.07-3.58,16.78-4.61,3.54-8.88-2.01-11.91-4.61-3.56-19.54-10.04-38.45-17.35-58.09-14.02-37.69-22.8-75.5-29.24-115.24-1.95-12.02-6.3-34.28-4.91-44.72.61-4.57,2.77-11.65-1.9-14.06-3.89-8.03.9-17.59-1.68-25.77,1.29-.32,2.3-1.85,2.29-4.03l-.13-34.14c-.02-6.04-.19-11.98-.14-18,3.78-3.6,3.51-12.05.12-15.81l3.96-26.19c4.52-.6,3.38-5.56,4.49-9.55,7.83-28.16,21.09-52.83,30.11-81.53,3.25-10.34,4.7-20.84,11.65-28.85.84,9.31.97,14.18,2.77,19.94Z"/>
  <path class="cls-2" d="M726.14,485.24c27.39.22,52.53,14.51,68.87,37.72,10.14,14.4,17.31,29.42,24.74,45.88,10.28,22.75,15.48,49.29,13.53,74.53-.49,6.36-3.23,11.51-3.21,18.51.06,18.95-4.27,37.54-10.39,54.26-2.83,2.91-10.15,3.15-12.56-1.39-6.71-12.58-18.58-18.71-27.92-28.58-32.38-34.19-45.26-23.95-51.04-69.59-2.12-16.72-9.73-29.72-16.84-43.94-8.45-16.92-19.07-30.59-31.83-44.4-7.53-8.15-13.35-16.67-23.21-22.86-4.91-3.08-9.37-8.82-13.28-13.57,12.47-5.03,23.42-.02,34.58-3.27,5.49-1.6,9.96-3.62,16.43-3.56l32.11.26Z"/>
  <path class="cls-2" d="M156.31,956.08c-3.22.08-7.07,1.13-10.48-.52-5.07-2.45-5.53-9.7-8.28-19.84-4.6-16.95-11.34-52.28-9.99-69.52.04-.55,2.14-36.35-1.73-32.6.85-9.47.9-18.24,2.7-28,3.6-19.63,2.28-40.46,11.2-57.83,2.1.22,2.12-1.31.24-1.89l.51-4.36c5.73-1.92,3.1-9.73,5.49-13.45,16.8-26.2,42.74-45.35,69.38-62.82,2.84,11.35,7.95,20.12,8.64,30.45l2.02,30.1c.93,13.82,1.44,28.12.03,42.03l-3.02,29.65-3.25,20.13c-2,12.39-2.77,25.55-6.97,37.09-3.58,9.85-4.24,19.91-8.32,29.34l-6.12,14.13c-4.34,10.01-11.55,18.77-18.24,27.35l-23.82,30.55Z"/>
  <path class="cls-2" d="M735.74,670.97c13.24,1.66,58.71,44.74,60.7,54.66,1.2,5.99,5.5,11.11,7.21,16.14,14.73,43.33,12.47,90.87,14.35,96.02-1.57-.14-2.03,1.81-2.04,3.9l-.09,22.24c0,2.32,1.03,3.88,2.54,4.03l-1.73,24.31c-1.11,15.5-6.83,31.21-9.21,45.99-4,.89-1.14,12.91-7.38,16.81-3.3,2.06-7.08,1.58-10.43,1.11-6.62-5.8-10.33-14.67-16.54-21.73-8.35-9.5-14.84-19.32-22.09-29.86-12.71-18.47-16.35-40.08-21.02-61.99-4.66-21.91-5.81-21.54-8.43-46.83l-2.28-22.04c-1.95-18.86-.55-86.67,8.58-101.8l7.86-.93Z"/>
  <path class="cls-2" d="M352.04,1185.91c-8.31-19.93-18.94-37.38-35.44-52.78-11.83-11.04-23.2-21.75-35.79-32.35-5.77-4.86-14.34-8.67-15.86-16.72-4.45-23.65-4.42-46.39,1.45-69.06,2.67-10.3,7.48-54.51,5.95-65.22,3.89-6.14-1.45-25.73,2.57-27.92,1.15-.63,4.18.28,5.23,1.95,9.09,14.45,22.13,24.08,35.42,34.28,7.32,5.62,12.8,12.25,21.12,17.14,15.56,9.16,19.13,71.81,21.63,86.76l4.02,24.12c5.38,32.26,14.01,62.5,22.58,94,1.71,6.28,5.24,16.52,1.04,21.47-7.26,8.56-19.41,3.03-25.61-3.95-3.62-4.07-3.36-10.85-8.32-11.71Z"/>
  <path class="cls-2" d="M674.01,943.5c-4.54,13.98-1.32,27.96.85,42.29l3.62,23.83,2.09,24.16c-.41.37-2.07,43.71,1.44,37.77l-2.65,17.54-48.05,41.74c-18.3,15.9-30.92,34.43-38.31,56.49-6.68-1.26-2.11,16.62-21.01,17.07-24.85.59-6.36-36.83-.81-58.63l4.53-17.82c5.74-22.55,8.69-44.59,12.22-68.19,3.84-25.64,4.14-53.95,17.08-76.9,9.12-16.18,29.85-24.45,42.1-37.78l24.22-26.36c3.6,10.17-2.81,18.07,2.69,24.8Z"/>
  <path class="cls-2" d="M618.03,1709.85c-3.49,5.91-3.48,15.86,0,21.77-2.1,21.56-8.4,41.99-24.6,55.39-8.39,6.94-17.97,8.1-26.57,2.23-12.87-8.78-19.22-21.95-24.73-35.79-4.46-11.2-5.06-21.12-6.48-31.67-.06-1.49,2.02-44.96-1.67-39.82,3.57-8.81.43-17.28,1.5-26.46,6.33-54.09,19.77-106.11,39.32-156.61l5.9-16.33,1.6,57.36c.75,27.13,16.35,86.72,24.59,114.91,5.45,18.64,9.55,36.65,11.15,55.02Z"/>
  <path class="cls-2" d="M404,1627.78c-.99,4.92.99,6.39,2.17,8.43,7.3,12.63,6.67,73.2,5.13,91.42-1.57,18.6-10.75,35.69-21.03,50.43-2.21,3.17-5.88,4.85-8.18,7.78-4.36,5.56-10.66,8.19-17,7.76-5.32-.36-10.71-3.34-15.2-7.99-14.2-14.72-19.51-34.31-21.93-53.81,3.49-3.85,3.6-12.27-.06-16.02.54-15.81,4.03-31.38,8.2-47.51l10.66-41.29c13.37-51.8,14.89-68.66,19.09-121.19,1.37-2.25,3.4-5.48,2.75-8.59,15.07,27.63,22.1,60.24,28.91,92.31,2.72,12.81,9.13,25.25,6.5,38.28Z"/>
  <path class="cls-2" d="M432.26,1607.78c.5,5.74-1.02,12.87-3.84,17.78-1.44,2.5-2.62,5.39-4.21,8.75-1.98,4.18-6.77-.35-7.94-2.77-5.79-25.35-9.8-50.91-17.59-76.95-9.55-31.93-19.6-63.18-31.54-94.84l-27.88-73.92c-11.03-29.24-17.73-58.62-24.58-89.22-2.66-11.89-3.57-24.43-8.62-34.66-4.22-8.56-5.08-15.67-5.09-26.34-.01-17.33-2.83-34.21-1.03-51.84.76-7.47-3.3-15.45,3.39-23.06,13.18,19.95,17.78,43.16,24.29,66.09l22.6,79.54,37.06,102.42c16.26,44.93,35.75,94.34,40.04,143.15l4.91,55.88Z"/>
  <path class="cls-2" d="M641.62,1261.26c-1.3.61-3.14,1.81-3.61,4.08-4.74,23.24-8.51,45.78-15.35,68.61-9.05,30.24-18.84,58.7-30.24,88.42-22.34,58.22-50.63,135.96-60.3,195.34-5.19-.54-1.61,36.35-12.31,17.81-1.33-5.76-4.73-10.31-3.48-15.74,5-5.92-1.14-11.86-.93-17.83,3.39-98.42,19.2-123.31,49.61-208.52l29.38-82.3,34.06-116.95c3.6-12.35,6.53-23.91,13.94-36.33,7.96,14.07,4.82,29.66,4.35,44.45l-1.57,49.17c-.12,3.69-4.62,6.43-3.56,9.79Z"/>
  <path class="cls-2" d="M854.16,895.45l8.72,34.09c3.92,15.35,10.71,29.2,11.17,44.32-3.99,7.2-7.03,31.17-10.8,45.19-16.77,62.27-29.52,124.62-34.32,188.56l-6.13-3.78-10.77-56.71c-1.43-7.55-2.72-14.36-2.38-21.34.23-4.59,2.27-11.01-1.76-14-.42-2.63-.46-5.34-.35-8,.25-5.71,2.41-11.77-1.91-16.06-2.24-2.22-1.19-6.98-1.92-9.76,1.41-.28,2.4-1.81,2.39-4.06l-.1-50.19c0-1.94-.27-3.97-1.7-3.93,2.54-30.96,15.09-56.16,22.28-85.45,7.22,2.58,18.45-40.56,27.56-38.88Z"/>
  <path class="cls-2" d="M118.03,932.23c2.67,14.91,10.73,28.39,12.41,43.55.36,3.23-.09,3.42,1.83,6.01,4,5.38,5.54,13.31,5.74,20.03-3.93,2.06,2.33,35.27,1.62,47.85-.75,13.2-4.34,26.53.34,38.27.29,9.61-.94,20.91-2.66,31.22l-7.34,43.87c-2.81,16.79-4.62,32.83-9.06,48.41-1.61.37-4.43-1.01-4.58-3.83-1.97-38-6.93-74.32-15.52-111.63l-26.04-113.03c-.76-3.3-1.89-6.26-4.39-7.16,1.89-20.29,9.13-39.79,15.02-60.14l6.47-22.35c6.65-2.36,19.06,35.05,26.16,38.93Z"/>
  <path class="cls-2" d="M235.85,1429.95c-.67,9.94.92,20.32,1.26,31.06l1.41,44.78c-1.22,3.73-1.07,9.89,1.77,12.01.82.77,1.7,3.06,1.73,4.18-4.06,2.84-2.67,8.79.36,11.87,2.05,2.09,2.27,6.78,2.85,10.43,5.74,36.17,12.32,71.38,25.18,105.43,14.38,38.09,23.81,58.36,19.81,98.18-3.12,1.95-4.08,6.07-7.62,8.85-3.87,3.04-9.63-.22-10.95-4.56-1.63-5.31-5.61-6.92-7.96-9.89-16.34-20.69-25-46.61-30.92-73.29-5.91-26.64-10.16-52.48-13.9-79.65-1.65-12.03-1.44-24.2-1.36-35.56l.49-78c2.87-15.62,4.86-31,10.06-45.84,2.77-.99,2.67-4.27,5.28-6.44,1.81,3.03.58,5.4,2.52,6.44Z"/>
  <path class="cls-2" d="M715.42,1416.15c3.21,13.27,4.94,26.59,7.81,40.93l3.76,18.84c1.32-6.19,2.2-13.04.78-18.14h2.27c.05,7.46,2.03,14.54,2.02,22-3.89-4.03-1.59,41.81-1.57,44,.13,15.4.54,31.2-1.44,47.2l-3.08,24.81c-4.81,38.76-11.28,76.31-25.9,111.99l-30.62,49.53c-4.55,4.07-11.63-6.22-13.38-9.55-3.29-26.67,1.98-52.03,12.06-77.8,16.57-42.31,28.16-84.86,33.78-130.05l7.97-64.12c2.24-17.99,2.83-36.34,1.83-56.11-.07-1.32,1.05-2.76,1.52-3.27.43-.46,1.41-.29,2.2-.25Z"/>
  <path class="cls-2" d="M285.99,1152.42c-.7,6.54,1.03,14.12,1.56,21.58,3.59,50.21-14.16,100.59-33.03,146.43-13.64,33.12-25.26,65.41-33.8,99.33-4.72-3.42-1.03-14.51-4.75-14-.04-8.71,3.09-18.05,1.47-27.96-.84-5.11,4.35-47.36,5.56-55.92l15.35-108.14c2.9-20.41,7.62-40.04,15.24-57.96,1.02-2.41,4.45-4.41,1.94-8.01,3.38-9.93,3.78-20.58,8.43-29.94,3.38-.48,5.48,2.03,7.14,5.29l14.91,29.29Z"/>
  <path class="cls-2" d="M681.96,1117.89c25.51,72.31,34.61,152.42,43.73,229.77l3.78,32.11c-3.57-1.75,1.29,33.49-6.91,30.13-7.03-24.89-15.2-49.25-24.94-74.41-11.34-29.3-24.22-57.24-30.7-88.19-1.11-5.31,1.43-8.62-2.43-14.45-7-10.54-5.22-65.01-4.5-79.12,4.21-1.39,12.7-40.72,21.98-35.85Z"/>
  <path class="cls-2" d="M479.61,507.94c-4.6.76-9.29.99-13.83-.15-6.38-8.45-6.42-20.13-11.84-30.09-4.77-8.76-6.55-17.92-8.95-27.52-2.64-10.56-8.95-20.19-10.11-31.21-.34-3.17.56-6.28-3.72-8.09l-7.15-36.47c32.29,21.5,67.9,20.74,99.63-1.19-11.78,49.23-25.8,92.8-44.03,134.73Z"/>
  <path class="cls-2" d="M793.67,1023.78l.6,56c-4.67-5.54-.19,28.24.05,29.97l6.61,46.97c.5,3.57,2.08,5.02,3.62,6.91,3.24,3.97,2.9,10,3.97,15.71,5.08,27.21,11.77,53.6,11.09,80.3-3.8.16-5.12-3.92-7.69-6.13l-4.52-15.78c-8.82-30.79-16.16-60.75-26.39-91.19-12.49-37.15-26.48-73.73-26.74-112.84l-.27-40.08c-.02-2.47.88-4.67,2.07-5.64,4.79-3.88-.56-29.87,3.15-37.34,19.27,28.78,34.06,39.18,34.43,73.15Z"/>
  <path class="cls-2" d="M394.83,2087.91l-11.98,55.33c-20.19-23.89-32.62-51.08-41.02-81.49,2.25-44.79,17.48-85.9,42.81-123.21,2.99,16.25,5.67,29.4,6.09,44.35,7.27,24.52,9.55,79.87,4.1,105.02Z"/>
  <path class="cls-2" d="M564.13,2142.54c-4.07-6.11-4.31-13.43-4.36-20.58,0,.13-9.77-36.48-10.08-44.39-.78-19.85-1.62-39.73.94-59.48l10.67-82.38,11.14,20.05c14.06,25.31,23.38,51.17,28.57,79.54,2.44,13.33,4.71,26.21-.25,38.73-9.55,24.12-17.78,47.92-36.64,68.52Z"/>
  <path class="cls-2" d="M189.88,953.87c-1.46,8.69,7.42,59.52-.74,99.6-9.18,45.15-21.27,89.01-38.63,130.62-1.35,3.23-2.53,2.97-1.96,7.69.65,5.46-7.46,36.04-10.02,38.14-1.55,1.28-3.48,1.82-2.74,4.75.29,1.16.12,3.41,2.25,3.12-.13,2.18-.21,4.43-1.69,6.17-.94-.54,1.05-3.05-.5-3.71-2.62-1.12-2.3,2.57-1.35,3.72.46.56.96,1.17,1.76,1.88-.62,4.64-1.86,9.07-3.15,13.5l-8.56.38c.46-6.23-.39-12.65,1.16-19.8,5.3-24.5,7.01-49.01,13.9-72.08,5.52-7.23,5.05-17.15,6.84-26.58,5.24-27.6,6.36-54.75,8.64-82.45,2.92-35.56-6.44-51.36,3.91-67.61l26.57-41.71c2.93.57,3.36,3.24,4.3,4.38Z"/>
  <path class="cls-2" d="M702.02,1949.79c2.29,12.26,6.34,23.68,7.95,37.34l2.89,24.55c3.2,27.18,1.05,53.52-4.09,80.29l-7.28,37.9-12.25,62.11c.01-.07-7.22,45-7.69,48.12l-3.25,21.78c-4.49,30.13-9.76,56.55-12.15,85.91-3.32,4.24-3.13,10.28-6.57,15.81-6.19,0-17.35-3.68-18.6-10.33-3.69-19.69,2.4-38.49,6.04-57.57,4.88-25.62,10.66-49.52,17.55-74.73l21.59-78.99c4.75-17.38,7.28-34.02,8.78-51.9.5-5.96,3.33-11.66,2.34-18.3-1.52-10.31,1.11-19.87,1.94-30.06,2.44-30.29-.51-59.71-3.9-89.76-.28-2.44,1.15-4.97,3.02-3.61.96.7,2.43,1.06,3.69,1.46Z"/>
  <path class="cls-2" d="M563.51,433.73c-6.63,1.86,9.78,30.96,12.32,34.35,5.27,7.03,7.71,13.01,3.78,20.89-6,1.98-12.01,2.42-18.98,3.31-19.78,2.51-37.26,8.54-54.45,16.02-2.47-.59-5.83-.15-7.94-1.69-3.83-2.79-1.08-15.4-3.94-10.97,5.29-15.32,10.55-30.71,17.03-46.73,3.56-8.81,4.2-18.34,9.69-26.68,1.07-1.62-.97-5.91,1.05-7.89,5.14-5.05,3.72-11.77,5-17.47l6.84-30.26c1.98-8.75,14.1-15.03,20.38-20.98l2.12,43.99c.74,15.31,2.95,30.21,7.11,44.12Z"/>
  <path class="cls-2" d="M452.12,501.56c-3.55,3.35-6.51,7.85-11.83,7.11-8.3-1.19-14.8-7.85-22.45-10.46.07-2.8-2.49-4-5.78-4.56l-34.09-5.76c-3.3-.56-8.42.51-10.4-2.2-1.37-1.87-4.86-4.94-2.86-8.45,4.69-8.24,21.44-33.56,15.51-39.47,9.07-24.22,3.65-48.71,9.23-50.03,1.25-.3,2.7-1.6,2.69-3.78l-.16-34.19c6.12-1.03,8.89,5.38,13.03,8.66,6.41,5.09,8.11,9.18,9.54,16.85,4.91,26.45,12.08,51.87,21.57,76.91l14.79,39.01c1.38,3.65,1.32,7.16,1.19,10.35Z"/>
  <path class="cls-2" d="M282.14,2357.5l-10.43-71.76c-2.58-17.71-5.69-34.82-6.21-51.97-.09-3.01,1.3-5.88.28-9.91-1.57.09-2.52.77-3.3,1.21l-7.38-44.62-15.87-79.27-2.99-23.42c-.99-7.79,1.28-15.68-2.26-22.15,1,.7,1.99-.58,1.98-2.02l-.23-47.81c-.06-12.15,2.47-24.01,4.1-36,3.46-.83,2.08-5.37,1.73-8,1.13-1.3-.25-4.91,1.23-6.09,3.29-2.62,2.57-7.74,7.28-10.38,2.37,13.83-2.58,25.61-2.92,38.33-.55,20.94-2.49,41.27-.44,61.96l2.2,22.3c1.57,15.93,2.7,31.56,5.77,47.37,7.7,39.72,18.86,77.33,30.12,116.12,6.82,23.49,11.24,45.95,15.67,69.94,3.28,17.72,8.46,35.78,4.18,53.69-1.37,5.74-13.15,9.09-17.73,8.39l-4.77-5.91Z"/>
  <path class="cls-2" d="M834.18,723.35c10.26,16.35,11.49,36.82,15.82,56.73,6.49,29.86,3.79,60.21,1.48,89.84-1.32-3.02-.67-6.07-2.94-10.24.69,12.34-3.87,23.25-9.46,34.74-3.12,6.42-3.72,13.81-11.24,17.65-1.56-2.21-1.92-4.77-3.43-6.2-1.69-10.96,3.58-22.5,3.68-33.42.87.57,1.77,1.48,4.2,1.04l-1.62-63.12-7.28-56.52c-1.46-11.36,1.78-25.01,10.79-30.5Z"/>
  <path class="cls-2" d="M603.95,2183.95c.29,16.42-.39,33.45-3.81,50.07-3.31,16.06-3.31,31.63-8.96,48.04-6.18-40.97-13.86-83.35-24.12-126.05,11.84-15.19,20.42-30.26,28.93-45.88,1.91-.29,2.89-2.29,6.99-2.2.23,16.81,3.22,34.65-.13,51.08-1.99,9.77.96,16.98,1.1,24.94Z"/>
  <path class="cls-2" d="M370.04,447.53c-5.1,15.81-14.63,29.28-29.78,35.95-22.22.52-32.08-4.33-51.95-9.64-1.07-4.75-6.12-8.52-2.47-12.7l25.79-16.13c21.94-13.73,45.21-23.55,66.94-39.28-.73,14.97-4.27,28.61-8.53,41.8Z"/>
  <path class="cls-2" d="M346.32,2101.79c.11.6-.04,1.26.1,1.85.22.88.84,1.62,1.55,2.14,9.05,16.88,18.71,33.49,31.06,49.26,2.45,3.13-1.41,6.67-2.04,9.56-5.21,23.88-11.17,46.79-14.99,71.12-1.37,8.7-2.3,17.04-5.4,24.19l-4.93,1.86c-3.65-1.7-6.8-38.09-6.17-41.98,1.12-6.85-1.83-12.3-2.59-18.4-1.5-12.11-1.06-24.04-1.01-35.46l.27-63.65c0-.93,4.31-.6,4.13-.49Z"/>
  <path class="cls-2" d="M93.53,857.75c-3.39-13.21-.8-27.35-1.47-42.01-.72-16.04.48-31.83,5.77-45.96,1.18-3.14,2.73-3.87,1.68-8-.91-3.57,7.05-33.76,10.44-36.09,5.62-.06,7.93,6.09,10.54,11.3,5.58,11.1-1.79,35.03-3.98,54.83l-2.21,20.05c-2.2,19.93-.43,39.74.03,59.93.31,13.57,6.07,26,3.21,41.2-10.08-14.33-17.17-29.95-20.01-46.81-.64-3.81-1.95-6.54-4-8.43Z"/>
  <path class="cls-2" d="M657.9,459.99c.49,2.51,2.55,5.61,1.11,8.04-2.01,3.41-40.45,18-59.8,9.94-7.89-3.28-18.62-16.58-22.17-24.65-6.28-14.26-6.98-31.22-10.2-47.69l12.54,9.17c14.85,10.86,63.84,32.02,78.52,45.18Z"/>
  <path class="cls-2" d="M460.02,1405.96c1.47,17.53.46,35.07-2.21,53.31l-8.29,56.41c-.62,4.22-.37,9.54-3.27,12.04-3.89,3.35-1.87,7.47-1.73,12.06.16,5.25.85,11.51-2.21,15.94-6.12,8.86-.64,16.11-8.78,16.89-1.24-13.03-2.34-24.55-1.39-36.51l5.44-68.37.67-79.65c11.64-.12,18.92,8.16,21.77,17.89Z"/>
  <path class="cls-2" d="M506.69,1571.36c-3.59-14.04-12.52-60.76-11.19-73.58.63-6.03.91-9.04-1.8-14-3.77-6.92-4.61-37.55-6.08-48,8.57-13.61-6.06-28.14,8.06-43.33,2.07-2.22,9.72-4.13,12.36-.19-.89,51.04.86,100.7,7.04,151.31,1.15,9.41-3.81,18.53-1.08,27.55-3.74.95-5.22.37-7.31.24Z"/>
  <path class="cls-2" d="M877.7,993.77c1.44,10.25,6.8,52.19,2.67,60.14-3.64.88-2.18,4.28-2.93,8.02-8.04,39.82-17.36,79.88-38.96,115.62-.08-39.19,8.58-73.99,17.41-109.68l16.59-67.04c.81-3.28,2.32-7.01,5.23-7.06Z"/>
  <path class="cls-2" d="M66.87,1061.37c-2.41-8.36-1.27-53.7,1.4-67.99,4.97-1.33,8.39,21.57,10.18,28.38,11.35,43.12,21.87,85.5,27.75,129.79,1.17,8.81,4.04,17.17.44,24.94-20.91-37.48-28.72-76.83-39.77-115.12Z"/>
  <path class="cls-2" d="M540.57,1322.35c4.19-9.22,2.57-22.15,9.2-30.67,7.45-2.78,7.26-18.44,16.98-27.25,15.58,61.18,21.01,55.91-2.09,114.29-10.23-22.42-16.9-36.52-24.09-56.37Z"/>
  <path class="cls-2" d="M73.17,1195.22c0-9.14-1.21-18.22-1.17-27.44l.08-20.11c0-2.06-.63-4.04-2.08-3.89,0-.66-.06-1.34,0-2,.8-9.03-4.14-40.48-.83-52.41,5.73,20.86,10.52,39.71,19.2,58.66,14.35,31.33,8.43,80.44,9.85,118.22-6.22-7.44-6.83-16.19-10.35-24.6-5.9-14.08-10.08-28.02-11.01-43.28-.13-2.13-2.56-3.26-3.68-3.14Z"/>
  <path class="cls-2" d="M275.1,815.94c-2.29,4.96-.75,11.68-4.61,15.85-2.66,2.88-3.38,5.79-2.49,9.99.11.52.06,1.49,0,2-5.75,5.68.57,28.47-5.4,31.8-2.28,1.27-4.14-5.34-6.29-4.55-.68.25-1.27.62-1.82.9-5.4-16.81-12.51-32.99-16.2-50.14,1.47.07,1.74-1.96,1.74-3.92l.03-28.19c0-2.09-.51-4.07-2.09-3.9.57-1.58.36-4.33.34-6.04,4.29,1.49,7.85,4.59,11.32,8.47,14.26,15.9,20.38,12.98,25.47,27.73Z"/>
  <path class="cls-2" d="M294.58,781.62c-2,5.33-9.42,9.66-12.33,14.41-18.18,6.61-37.81-14.18-41.76-32.24-.72,1.53-.24,3.47-1.99,4.09-1.87-9.84.61-19.91.07-29.73,1.79-1.96,3.08-4.99,6.17-6.69l26.08,25.29c3.57,3.46,28.18,18.85,23.76,24.87Z"/>
  <path class="cls-2" d="M706.03,757.78l-.41,10.37c-7.08,16.18-20.74,29.17-38.85,30.11-2.12-7.98-7.07-12.2-11.76-17.34-9.14-10.04,24.45-21.75,41.73-48.1,1.52-2.32,1.84-4.98,4.34-5.12,11.93-.7-2.52,23.21,4.95,30.1Z"/>
  <path class="cls-2" d="M708.03,817.78c4.86-9.38-17.73,59.45-19.89,56.01-14,7.08-2.61-42.65-12.25-36.01l-.4-4c6.15-1.96-5.8-16.97-1.14-23.17,8.03-10.7,18.49-17.91,28.06-28.08,5.94,8.16,1.34,37.03,5.62,35.25Z"/>
  <path class="cls-2" d="M86.37,1444.02c5.48,5.22,7.76,12.52,9.62,19.91-5.55-5.98-8.61-12.73-9.62-19.91Z"/>
  <path class="cls-2" d="M859.25,1447.86c-1.65,4.37-2.87,9.52-7.28,12.66-3.14-5.99,4.26-9.17,4.94-13.1.82-1.27,1.72-.39,2.34.44Z"/>
  <path class="cls-2" d="M416.52,1755.78l-2.65.06c1.48-2.73-.88-8.23,3.31-12.04,2.58,3.79.16,8.26-.66,11.98Z"/>
  <path class="cls-2" d="M238.27,1394.02l-2.06.4c1.56-2.28.29-6.58,2.92-8.74,3,3.54-.74,6.32-.86,8.34Z"/>
  <path class="cls-2" d="M596.01,1191.65c-.6,1.11.07,2.67.15,3.36.13,1.2-.53,3.58-3.1,2.85-2.28-.65-.84-4.95.48-6.26l2.48.05Z"/>
  <path class="cls-2" d="M794.3,1473.59c.35,5.4-4.27,5.97-4.62.91.17-3.16,2.93-4.26,4.62-.91Z"/>
  <path class="cls-2" d="M756.47,2524.2c1.22-1.37,3.09-.36,3.51.54.31.67.03,1.81,0,3.89-.02,1.01-1.01,1.41-2.05.18-1.14-1.34-3.18-2.67-1.45-4.61Z"/>
  <path class="cls-2" d="M240.89,1383.74c-1.59-2.11-1.2-4.55-.37-8.13,2.31,1.14,2.15,3.4.37,8.13Z"/>
  <circle class="cls-2" cx="98" cy="1467.78" r="2.23"/>
  <path class="cls-2" d="M153.69,1476.98c2.07-2.39,3.77-1.33,4.31-.17s.07,2.4-1.02,2.98c-1.18.63-3.06.4-3.3-2.81Z"/>
  <circle class="cls-2" cx="153" cy="1472.78" r="1"/>
  <path class="cls-1" d="M340.26,483.48c2.87,4.55,9.15.83,13.81,2.38,14.6,4.86,52.35,8.46,63.78,12.35,7.65,2.61,14.15,9.26,22.45,10.46l7.83,9.3c2.48,2.95-3.53,4.1-5.71,3.35.01-3.79-4.88-4.26-7.89-5.77-30.66-15.45-91.73-24.45-124.86-24.32-.93-4.93-33.27-14.08-21.36-17.4,19.87,5.32,29.74,10.16,51.95,9.64Z"/>
  <path class="cls-2" d="M416.36,1233.32c-14.8-64.96-45.45-121.7-39.91-191.31,24.1-6.1,30.19-.05,56.45,3.8,12.09,1.77,22.76,7.91,26.7,20.61,3.5,11.27,6.56,24.11,6.6,36.95l.48,164.33c.01,4.24-.4,8.35-2.65,10.88-8.2,9.23-36.37-2.93-42.34-34.5-.84-4.43-1.24-9.44-5.34-10.76Z"/>
  <path class="cls-2" d="M568.28,1042.04l.32,3.57c-.5.17-1.98,33.03,1.43,28-2.74,24.56-6.89,48.86-14.79,73.35l-25.37,78.64c-2.45,7.6-6.26,13.94-7.73,23.43-2.76,17.89-18.84,34.11-37.29,32.05-5.41-.6-7.06-11.22-7.06-15.98l.05-159.05c0-7.16,2.33-14.32,3-21.37,3.9-41.09,32.87-37.71,48.33-42.06,13.62-3.83,26.62-5.27,39.12-.58Z"/>
  <path class="cls-2" d="M576.09,949.64c1.63,22.82,4.81,47.39-7.98,68.45-12.82,9.08-50.19,8.15-65.34,13.38-10.63-4.51-17.41-12.25-17.11-23.98.62-24.23-2.51-47.17,4.37-69.51,9.66-10.88,27.32-1.33,50.75,2.46,12.66,2.05,23.35,8.97,35.32,9.19Z"/>
  <path class="cls-2" d="M455.86,937.98c-.87,4.16,1.19,8.06,4.6,11.94l-.57,57.86c-1.68,11.73-7.45,19.92-17.77,22.22-19.41-1.82-44.1-4.1-64.05-10.22-13.34-29.38-10.58-36.54-9.5-67.66,19-9.56,39.87-10.82,59.84-16.74,10.3-3.05,19.02-4.3,27.46,2.61Z"/>
  <path class="cls-2" d="M458.04,833.81c3.33,16.93,3.67,47.35,1.97,65.67-.48,5.17-5.54,9.27-5.18,15.6l-58.55,11.31c-6.63,1.28-18.55,5.13-23.92-.28-11.54-16.56-13.82-39.31-5.16-56.21,2.68-5.22,8.1-9.77,13.71-12.79l58.71-31.58c6.5-3.45,14.27,4.77,18.43,8.28Z"/>
  <path class="cls-2" d="M577.76,865.36c3.32,14.29,9.84,50.23-5.31,60.86-7.41,5.19-16.82.84-24.2-.72-.38-4.24-4.79-4.25-8.25-3.72-.59.09-1.43.17-2,0-2.37-3.29-9.53-3.45-11.72.01l-33.56-7.21c-3.85-.83-7.83-10.55-8.1-14.61-1.25-19.29-1.19-49.21,1.57-66.29,10.61-18.21,53.48,10.07,68.72,18.52,8.18,4.53,16.37,7.53,22.86,13.17Z"/>
  <path class="cls-1" d="M659.98,1153.75c-.72,14.1-2.5,68.58,4.5,79.12,3.87,5.82,1.32,9.13,2.43,14.45,6.48,30.95,19.36,58.89,30.7,88.19,9.74,25.16,17.91,49.52,24.94,74.41,8.43,29.86.13,29.59,5.21,47.87,1.42,5.1.53,11.95-.78,18.14l-3.76-18.84c-2.87-14.34-4.6-27.66-7.81-40.93l-5.42-22.37c-1.17-4.81-2.03-9.72-5.55-14.25-.69,5.74.63,9.95,1.55,14.25,3.01,14.06,4.1,28.57,4.04,44l-.16,38-7.97,64.12c-5.62,45.2-17.21,87.74-33.78,130.05-10.09,25.77-15.36,51.13-12.06,77.8-9.24,9.32-11.64-21.11-11.01-24.4,4.36-22.76,11.84-44.54,18.94-67.76,6.2-20.28,15.35-39.34,16.48-59.82,2.51-1.78,1.78-5.28,2.09-8,8.43-27.77,14.48-57.11,15.17-86l.43-18c3.66-6.19,2.43-14.19,2.68-22.1,1.3-41.58-2.21-81.94-11.94-122.17-.81-3.34-2.2-6.41-4.36-7.86-.31-4-1.69-8.14-3.67-12.7-14.05-32.26-24.03-64.95-29.25-99.99-1.38-9.25-6.15-67.6,8.37-65.22Z"/>
  <path class="cls-2" d="M383.69,837.3c-5.15,2.47-9.86,7.89-17.45,6.45-7.27-1.37-9.74-9.01-10.43-15.58-1.68-15.92-10.55-30.4-2.97-37.33,13.34-12.2,29.86-17.67,46.74-23.08,12.91-4.14,24.59-8.75,37.13-13.83,6.78-2.75,16.39-4.04,22.08.68,10.52,8.73,12.18,45.1-1.26,48.97-24.48,7.05-48.33,14.44-70.16,27.69-2.77,1.68-4.45,3.03-3.67,6.03Z"/>
  <path class="cls-2" d="M586.3,833.78c-1.08,1.21-.87,3.58-2.82,5.8-4.41.64-11.14,1.95-15.74-1.26-22.31-15.56-46.04-24.84-72.23-31.96-5.73-1.56-14.73-4.93-16.18-11.45-2.35-10.57-.67-23.02,2.37-32.88,2.66-8.63,9.95-13.16,18.44-10.29l44.28,14.98c18.17,6.14,35.51,12.16,49.96,25.5,3.22,18.23-6.29,27.93-8.08,41.57Z"/>
  <path class="cls-2" d="M518.13,1371.76l21.89-33.42c4.34,6.14,4.81,12.25,7.73,18.25,20.03,41.3,9.66,39.13-.8,67.23-11.69,31.4-19.38,62.29-28.34,95.38-5.69-16.33-5.71-31.16-5.96-46.74l-1.04-66.54c-.2-12.78,1.83-23.37,6.53-34.17Z"/>
  <path class="cls-2" d="M426.13,1369.87c4.29,8.73,8.2,15.71,7.96,24.18-.78,27,1.28,53.52-.93,80.34-1.23,14.93.2,28.94-5.91,43.99l-9.79-36.75c-7.79-29.24-18.46-56.29-29.34-84.52-3.16-8.2,1.28-18.86,4.31-26.39l13.75-34.19c3.39,5.53,16.26,34.9,19.96,33.33Z"/>
  <path class="cls-2" d="M672.35,880.09c.44.17.96.14,1.41.27,1.6,4.97,3.59,9.97.79,15.77-12.84,26.58-35.09,55.81-64.99,63.3-11.46,2.87-8.38-29.98-7.89-35.75.59-6.96,4.62-12.57,10.45-16.14,16.59-10.13,43.27-27.96,53.6-42.57,6.02-8.52,1.88,13.31,6.64,15.12Z"/>
  <path class="cls-2" d="M273.73,879.73c2.83-6.12,1.42-10.78,6.32-15.1,10.39,13.83,23.14,22.7,36.77,32.24,27.25,19.06,29.94,11.16,27.23,55.89-.18,3-2.87,5.11-4.04,6.12-1.41,1.22-4.34.98-6.81.22-27.81-8.52-53.64-41.5-63.2-67.87-1.59-4.4,3.17-8.14,3.73-11.5Z"/>
  <path class="cls-2" d="M664.31,829.83c.96,4.35,4.31,8.99,2.28,13.95-1.24,3.03,3.44,12.81-14.91,29.58-6.64,6.07-41.01,32.37-46.29,30.01-9.88-4.43-4.82-38.38,4.94-51.44,5.47-7.32,17.88-8.89,25.16-13.94l14.57-10.12c5.14-3.57,10.84-2.18,14.25,1.96Z"/>
  <path class="cls-2" d="M280,845.78c-1.85-5.73.19-10.76,1.51-16,1.79-1.67,3.66-3.93,5.65-4.29,3.07-.55,5.71.72,8.26,2.56l11.72,8.44c7.97,5.73,20.54,7.17,27.43,14.95,13.8,15.58,15.46,57.09,4.32,52.03-16.96-7.69-31.36-19.45-45.42-31.12-5.11-4.24-8.58-10.44-12.56-15.53-2.5-3.2.02-8.17-.9-11.03Z"/>
  <path class="cls-2" d="M588.08,1312.41c-7.23-8.8-7.83-19.96-10.32-30.67-3.83-9.52-4.2-19.38-3.83-29.68,4.78-12.19,12.32-22.21,19.81-32.81,9.58-13.55,16.95-27.66,28.13-40.82,8.72,2.94-12.95,50.77-12.86,62.18-5.66,23.88-10.82,46.78-20.94,71.79Z"/>
  <path class="cls-2" d="M370.93,1249.42c4.55,9.98-5.12,52.33-12.87,63.63-8.94-20.2-12.23-39.86-17.54-60.06-5.82-22.13-11.02-43.44-18.68-65.14-1.02-2.9-1.15-7.46,2.41-8.55,9.88,13,20.85,25.5,28.34,39.71,5.65,10.73,13.34,19.42,18.34,30.41Z"/>
  <path class="cls-2" d="M399.28,1339.56l-17.33,37.97c-23.49-53.5-17.09-56.62-2.44-111.91,12.72,15.67,15.54,33.27,21.16,49.99,2.8,8.32,2.66,15.08-1.39,23.95Z"/>
  <path class="cls-1" d="M367.2,869.9c-8.67,16.89-6.38,39.65,5.16,56.21,5.37,5.4,17.29,1.56,23.92.28l58.55-11.31c-.36-6.32,4.7-10.43,5.18-15.6,1.7-18.32,1.35-48.74-1.97-65.67,12.54-.64,11.17,34.78,11.22,43.99.14,25.56.18,44.27-25.16,49.03l-64.13,12.04c-19.04,3.57-36.65-40.7-18.64-71.87,1.18-2.03,4.49-1.92,5.43-.3.56.97,1.21,1.96.44,3.22Z"/>
  <path class="cls-1" d="M486.19,833.68c-2.76,17.08-2.82,47-1.57,66.29.26,4.06,4.24,13.78,8.1,14.61l33.56,7.21c3.48.75,8.23-1.07,11.72-.01.57.17,1.41.09,2,0v2c0,1.15.88,1.99,2,2,2.09.02,4.17-.12,6.25-.28,7.39,1.56,16.8,5.91,24.2.72,15.15-10.62,8.63-46.57,5.31-60.86,5.43-.87,7.81,1.99,8.87,6.13,4.9,19.04,5.92,39.7-3.34,56.85-8.17,15.13-26.04,10.36-41.39,5.69-17.61-5.36-52.6-5.6-59.24-16.53-7.98-13.13-6.96-28.77-7.01-43.65-.03-8.81-.48-40.45,10.53-40.19Z"/>
  <path class="cls-1" d="M529.86,1225.6l25.37-78.64c7.9-24.49,12.06-48.79,14.79-73.35,1.01-9.1-.64-19.13-1.43-28l-.32-3.57c1.98.74,5.61-1.64,6.91,1.27,3.76,8.42,2.75,38.92,1.03,49.02-4.06,23.87-8.12,46.44-15.9,69.38l-18.95,55.83c-2.11,6.22-4.91,11.31-9.56,16.67-2.9-2.86-1.39-5.94-1.95-8.6Z"/>
  <path class="cls-2" d="M657.95,810.24c-1.6,12.84-49.58,41.99-49.51,23.6.05-13.72,12.78-51.65,33.47-47.82,10.12,1.87,12.31,16.69,16.04,24.23Z"/>
  <path class="cls-2" d="M287.58,811.96c1.44-9,5.99-22.63,16.34-25.77,16.57-5.03,34.36,31.63,33.28,48.85-.37,5.91-11.11,4.71-14.83,3.2-14.31-5.8-26.12-14.86-34.79-26.28Z"/>
  <path class="cls-1" d="M376.45,1042.01c-5.54,69.61,25.12,126.34,39.91,191.31-1.94.04-5.21-.49-6.37-3.45-18.4-47.12-38.05-102.92-41.38-153.19-.38-5.77-4.51-37.48,7.84-34.67Z"/>
  <path class="cls-1" d="M355.81,828.17c.69,6.58,3.16,14.21,10.43,15.58,7.59,1.44,12.31-3.99,17.45-6.45,21.17-10.14,46.22-24.75,72.48-27.54,3.18-.34,6.17-1.54,6.09,3.04-.14,7.53-23.81,7.95-22.64,12.73-7.51-5.79-48.13,19.18-58.62,25.13-7.65,4.35-19.5,4.91-25.39-2.41-6.87-8.54-21.91-39.83-12.66-41.43,6.03-1.04,7.3,17.31,12.87,21.34Z"/>
  <path class="cls-1" d="M583.48,839.57c1.95-2.22,1.75-4.59,2.82-5.8,8.25-9.26,9.11-27.4,14.74-27.11,10.52.56-5.29,33.49-11,41.53-13.7,19.27-45.92-14.05-69.13-20.63l-29.78-8.44c-4.65-1.32-9.46-3.64-8.95-9.88,24.88,1.65,47.6,10.7,69.13,22.72,6.19,3.46,30.97,18.63,32.16,7.61Z"/>
  <path class="cls-1" d="M502.77,1031.48c15.15-5.24,52.52-4.31,65.34-13.38,12.79-21.06,9.61-45.63,7.98-68.45,16.08.3,12.83,67.77-7.01,79.25-9.77,5.66-63.09,10.54-65.43,6.59-.63-1.07-.59-2.7-.89-4Z"/>
  <path class="cls-1" d="M631.99,490.46c-14.42-.69-28.68,3.02-44.22,3.63-10.88.43-21.13,4.22-32.03,5.56-21.46,2.63-40.92,10.52-57.43,22.61,2.58-5.27-7.11,4.98,7.86-13.97,17.19-7.47,34.68-13.5,54.45-16.02,6.97-.88,12.98-1.32,18.98-3.31,2.99-.99,8.49-1.61,12.4-2.14l24.03-3.27c29.21-3.98,29.99-11.37,45.63-8.71l-15.69,10.65c-4.59,3.11-9.16,5.2-13.97,4.97Z"/>
  <path class="cls-1" d="M368.57,952.12c-1.08,31.12-3.84,38.28,9.5,67.66,19.95,6.12,44.65,8.4,64.05,10.22,7.21,11.79-31.65,5.44-36.26,4.92l-16.61-1.88c-23.66-2.68-27.22-27.17-29.48-49.28-.33-3.25,1.88-48.04,8.81-31.63Z"/>
  <path class="cls-1" d="M303.92,786.19c-10.35,3.14-14.9,16.78-16.34,25.77-3.33,4.88-4.53,11.69-6.07,17.82-1.32,5.24-3.35,10.27-1.51,16-5.3,10.16-6.94,22.49-6.27,33.95-10.36,4.12-2.74-25.99-5.73-35.95.06-.51.11-1.48,0-2,3.32-2.03,2.06-6.61,2.49-9.99,3.86-4.18,2.32-10.9,4.61-15.85,2.87-6.21,3.55-14,7.16-19.9,2.91-4.75,10.32-9.08,12.33-14.41,1.63-1.45,6.5-3.76,9.22-2.65,2.57,1.05.38,5.56.11,7.21Z"/>
  <path class="cls-1" d="M675.49,833.78l.4,4,3.24,32.02c.51,5.02-.58,9.95-5.37,10.57-.45-.13-.98-.11-1.41-.27,1.06-9.63-3.06-27.62-5.76-36.31,2.03-4.96-1.32-9.6-2.28-13.95-1.53-6.94-3.23-13.27-6.36-19.59-3.73-7.53-5.92-22.35-16.04-24.23-.4-1.52-1.52-7.72,1.9-7.48,18.04,1.28,30.11,43.05,31.68,55.24Z"/>
  <path class="cls-1" d="M490.03,937.99c-6.88,22.34-3.75,45.28-4.37,69.51-8.74,4.73-13.21-78.41,4.37-69.51Z"/>
  <path class="cls-1" d="M459.89,1007.78l.57-57.86c-3.41-3.87-5.47-7.78-4.6-11.94,16.89-5.06,12.52,69.14,4.03,69.8Z"/>
  <path class="cls-1" d="M484.2,1049.12c-8.87,1.73-17.06.98-26.85.36,3.6-9.62,19.69-10.28,26.34-6.84,1.43.74,2.58,6.07.5,6.48Z"/>
  <path class="cls-2" d="M634.52,2283.77c-1.71-16.19,5.77-40.61,6.63-62.58l1.75-44.75c1.15-29.51.06-59.26,4.75-82.6,1.72.15,2.47-1.63,2.44-3.96l-.18-12.26-.23-29.87c4.05-7.6,1.14-15.91,2.94-23.66,1.25-5.4,2.17-10.51,3.14-16.14,4.98-28.84,13.31-56,22.3-83.65,1.35-4.15.28-8.76,3.57-11.01.94,1.52,5.27,1.63,5.5,5.51,1.07,18.34,5.32,36.27,5.36,54.84.01,7.41,2.22,13.42,2.74,20.38,1.28,17.04,1.79,34.65-.12,51.59-.85,7.54-2.44,14.06-2.65,22.33-1.07,42.46-14.77,87.31-26.18,127.74l-27.28,96.61c-2.04-2.91-4.26-6.5-4.47-8.52Z"/>
  <path class="cls-1" d="M681.63,1913.29c-3.3,2.25-2.23,6.86-3.57,11.01-8.99,27.65-17.32,54.81-22.3,83.65-.97,5.63-1.89,10.73-3.14,16.14-1.79,7.75,1.12,16.06-2.94,23.66l.23,29.87c-3.88,4.22-1.16,10.78-2.26,16.22-4.69,23.34-3.6,53.1-4.75,82.6l-1.75,44.75c-.86,21.98-8.34,46.39-6.63,62.58-3.03,9.73-3.54,21.01-5.87,32.02l-5.5,25.9c-.5,2.34-.99,3.8-1.49,4.84-.59,1.23-5.09,1.87-5.16.33-.27-5.74-2.23-13.36.1-18.86,3.12-7.39,9.84-59.65,11.5-72.16,1.64-12.35,1.3-23.72,1.8-36.25.35-8.62,4.51-16.7,2.33-25.89-1.26-5.31,2.23-10,2.35-14.76l1.98-78.31,2-40.86,2.36-24.07c1.56-15.88,4.55-31.65,8.75-46.94l9.92-36.14c3.94-14.37,10.51-27.38,12.93-42.55.61-3.83,4.51-5.86,7.33-3.37,1.41,1.24.74,4.87,1.8,6.6Z"/>
  <path class="cls-1" d="M651.55,1908.92c-5.95-7.05,7.88-34.74,9.49-60.88.33-5.43,3.79-44.83,7.21-46.68,9.32-2.67,3.93,35.06,3.44,40.3-2.12,23.04-4.93,46.89-20.15,67.26Z"/>
  <path class="cls-1" d="M591.39,1864.3c2.88,11.72,30.35,47.47,18.73,49.98-18.16-21.86-23.84-34.44-31.27-60.82-2.17-7.69-11.95-37.22-5.3-38.46,1.7-.32,5.68-.23,6.34,2.49l11.5,46.81Z"/>
  <path class="cls-2" d="M265.96,1911.38c2.9,1.77,1.96,5.89,2.96,9.5l17.13,61.3,6.05,33.8c1.5,8.4,5.73,39.06,5.93,45.99l1.19,41.13c.12,4.27,2.39,7.72,2.41,12.64.08,20.2-.38,39.81,1.04,59.9l1.86,26.24,2.77,33.87,2.63,20.11c1.13,8.66,4.19,17.54,2.23,25.78-1.23,5.17-.34,9.85-1.07,16.84-6.88-10.94-8.62-23.3-12.18-35.91l-26.49-93.87c-7.41-26.25-13.83-51.61-16.85-78.78l-4.75-42.79c-1.99-17.93-1.89-36.72.04-54.81.98-9.19,2.98-17.16,3.18-26.3.06-2.84,3.54-62.23,11.9-54.61Z"/>
  <path class="cls-1" d="M312.18,2281.62c1.96-8.24-1.1-17.12-2.23-25.78l-2.63-20.11-2.77-33.87-1.86-26.24c-1.42-20.09-.96-39.7-1.04-59.9-.02-4.91-2.28-8.37-2.41-12.64l-1.19-41.13c-.2-6.93-4.43-37.59-5.93-45.99l-6.05-33.8-17.13-61.3c-1.01-3.61-.06-7.73-2.96-9.5.32-2.63.24-6.15,4.63-7.64,13.63,32.75,30.31,92.69,33.89,127.27l4.91,47.44,2.79,76.42c-.33-8.99,2.71,90.06,4.49,66.81-1.22,15.93,2,30.6,4.03,45.98l2.67,20.26,2.24,22.15c2,19.69,10.94,37.59-.7,38.52-3.88-10.6-4.31-21.11-7.41-31.81-3.4-11.77-.84-24.51-5.33-35.16Z"/>
  <path class="cls-1" d="M342.08,1907.73c-2.73,3.92-7.55,8.29-12.71,4.61,2.8-8.67,7.58-15.01,11.67-22.02,12.74-21.89,19.94-46.47,24.42-71.41.46-2.56,2.66-3.45,3.99-3.82,10.86-3.02.23,26.93,1.28,21.93-5.34,25.57-13.67,49.23-28.65,70.71Z"/>
  <path class="cls-1" d="M284.77,1847.03c1.59,12.15,12.84,59.61,13.21,58.98-.57.99-3.18,1.98-4.44,1.34-1.01-.51-2.08-1.94-3.03-3.89-13.58-27.88-17.24-58.49-15.92-89.7.24-5.73-1.25-12.34,5.69-15.01,4.19,5.43.13,11.65,1.88,17,3.32,10.12,1.12,19.79,2.62,31.28Z"/>
  <path class="cls-1" d="M714,587.78c-5.3-5.8-21.58-33.77-23.94-40.31,6.03,3.37,23.55,34.18,23.94,40.31Z"/>
  <path class="cls-1" d="M140.49,741.53l-.51,4.36c-.2.57.03,1.36-.24,1.89-8.92,17.37-7.59,38.21-11.2,57.83-1.79,9.76-1.84,18.53-2.7,28,.45-5.04-6.47,37.37,1.73,32.6-1.35,17.24,5.39,52.57,9.99,69.52-.71.18.16,4.66-.88,4.73-9.92.68-17.44-49.02-17.92-57.69-1.19-21.53-2.75-43.26-.28-64.95l2.53-22.15c1.14-9.94,5.91-60.76,19.48-54.14Z"/>
  <path class="cls-1" d="M828.08,872.44c-.1,10.92-5.37,22.46-3.68,33.42-2.57.16-10.08,46.5-16.93,32.38,2.38-14.77,8.1-30.49,9.21-45.99l1.73-24.31c.7-9.76,3-20.86-.41-30.17-1.88-5.15.38-52.69-14.35-96.02,4.15-1.27,9.42.62,11,6.02,11.72,40.17,13.81,84.35,13.44,124.66Z"/>
  <path class="cls-1" d="M826.6,934.32c-7.19,29.3-19.74,54.49-22.28,85.45-.24,2.92-2.45,6.35-2.25,10.08.9,16.65-2.31,32.94,1.66,48.1.73,2.78-.32,7.54,1.92,9.76,1.07,5.29-1.46,11.41,1.91,16.06-.12,2.66-.07,5.37.35,8,.74,4.64-1.64,10.38,1.76,14-.34,6.98.94,13.79,2.38,21.34l10.77,56.71c2.18,11.5,4.54,23.58,5.29,36.32l2.06,35.45c.12,2-1.42,6.18-2.77,5.79-6.4-1.86-7.69-24.67-7.76-21.75.68-26.7-6.01-53.09-11.09-80.3-1.07-5.7-.73-11.73-3.97-15.71.93-11.73-9.31-61.82-8.33-69.52.79-6.17-1.92-10.19-1.96-14.32l-.6-56c6.25-29.38,11.05-59.74,26.84-87.18.98-1.7,1.67-3.14,3.13-3.85,1.02-.49,1.97,1.22,2.96,1.57Z"/>
  <path class="cls-2" d="M847.98,1264.08c-1.61-22.35-1.55-40.62.24-60.09l3.82-41.51c10.21-21.49,16.28-43.03,22.98-64.98,3.68,8.78,2.35,17.46,1.47,26.41l-5.03,51.48c-3.05,31.2-7.88,61.42-23.48,88.69Z"/>
  <path class="cls-2" d="M833.5,1279.38c-3.48-26.75-5.82-80.66,12.97-101.03-1.78,28.35-3.11,52.82-2.3,79.35.25,8.31,1.24,18.1-10.67,21.68Z"/>
  <path class="cls-2" d="M866.36,1280.36c-1.46,6.03-17.19-.76-15.62-6.26,3.96-13.86,9.85-26.15,16.37-40.74.04,15,3.19,30.7-.75,47Z"/>
  <path class="cls-2" d="M876.89,1095.74c-1.59-2.11-1.2-4.55-.37-8.13,2.31,1.14,2.15,3.4.37,8.13Z"/>
  <path class="cls-1" d="M139.62,1167.84c-6.89,23.07-8.61,47.59-13.9,72.08-1.55,7.16-.7,13.57-1.16,19.8-.21,2.78-1.71,22.85-5.69,21.49-7.96-2.73,1.09-66.42,2.04-69.78,4.44-15.58,6.25-31.62,9.06-48.41l7.34-43.87c1.73-10.31,2.95-21.61,2.66-31.22,4.02-2.96,1.67-63.87.91-70.09-.72-5.84-2.71-10.71-2.87-16.03-.21-6.72-1.74-14.65-5.74-20.03-.14-2.1.24-4.78-1.83-6.01-1.68-15.16-9.75-28.64-12.41-43.55,15.56-.13,27.64,65.59,30.91,79.52,5.55,23.65,5.1,60.78-.44,84.23.19-.82-3.69,33.9-4.53,40.02l-4.35,31.84Z"/>
  <path class="cls-2" d="M102.86,1272.24c-2.01-14.72-1.62-28.29-.66-42.4.53-7.77-4.48-35.64-1.36-52.5,13.83,26.34,15.23,56.58,11.6,86.28-.57,4.63,1.16,9.86-1.65,13.71-1.96,2.68-7.36-.95-7.93-5.09Z"/>
  <path class="cls-2" d="M94.93,1274.53c1.52,4.54-12.39,10.28-16.37,6.36-1.58-14.27-2.07-31.34.34-45.74,7.33,12.47,10.97,25.69,16.03,39.38Z"/>
  <path class="cls-2" d="M710,1393.78h-4c-.92-4.3-2.24-8.51-1.55-14.25,3.52,4.53,4.38,9.44,5.55,14.25Z"/>
  <path class="cls-2" d="M542,925.78c-1.12,0-2-.85-2-2,.74.59,1.41,1.26,2,2Z"/>
</svg>