<svg width="1080" height="1080" viewBox="0 0 1080 1080" fill="none" xmlns="http://www.w3.org/2000/svg">
<rect width="1080" height="1080" fill="black"/>
<path d="M574.883 152.212H703.933V507.502H524.888L572.918 424.755H624.403V280.1L465.071 507.502H364.066L596.019 176.582L574.883 152.212Z" fill="url(#paint0_linear_3_92)"/>
<path d="M489.08 576.725H396.92L414.658 597.191V793.569H466.588V707.063H489.411C510.249 707.063 526.787 701.139 538.984 689.207C551.181 677.317 557.259 661.325 557.259 641.273C557.259 621.221 551.512 604.69 540.059 593.504C528.606 582.318 511.613 576.725 489.08 576.725ZM498.465 656.478C495.158 660.123 490.568 661.988 484.697 661.988H466.588V621.884H484.697C490.568 621.884 495.158 623.624 498.465 627.187C501.814 630.75 503.468 635.556 503.468 641.604C503.468 647.653 501.814 652.832 498.465 656.478Z" fill="url(#paint1_linear_3_92)"/>
<path d="M886.535 793.569H826.17L783.336 727.447C776.638 737.266 770.395 746.795 764.565 755.951C758.735 765.148 753.526 773.393 748.936 780.726C744.347 788.017 741.618 792.326 740.791 793.569H682.329L753.319 681.708L684.851 576.725H748.316L786.148 636.26L822.738 576.725H884.013L816.164 683.283L886.535 793.569Z" fill="url(#paint2_linear_3_92)"/>
<path d="M624.156 744.682H675.424V793.569H571.977V597.191L554.199 576.725H674.514V625.612H624.156V659.171H672.985V707.395H624.156V744.682Z" fill="url(#paint3_linear_3_92)"/>
<path d="M349.204 793.569L331.029 741.865H262.717L244.856 793.569H193.465L262.201 597.018L244.634 576.725H324.449L404.668 793.569H349.204ZM296.873 643.157L277.758 697.995H315.988L296.873 643.157Z" fill="url(#paint4_linear_3_92)"/>
<path d="M457.566 866.611L443.886 903.835H434.31L420.63 866.611V903.835H411.414V854.011H426.318L439.494 890.803L452.67 854.011H467.214V903.835H457.566V866.611ZM497.243 903.835H474.203V854.011H497.027V863.371H484.211V873.739H496.667V882.955H484.211V894.475H497.243V903.835ZM528.954 863.371H519.882V903.835H509.874V863.371H500.802V854.011H528.954V863.371ZM573.364 854.011V903.835H563.356V883.027H543.484V903.835H533.476V854.011H543.484V873.523H563.356V854.011H573.364ZM578.295 878.995C578.295 871.603 580.695 865.435 585.495 860.491C590.343 855.547 596.511 853.075 603.999 853.075C611.823 853.075 618.135 855.523 622.935 860.419C627.735 865.267 630.135 871.411 630.135 878.851C630.135 886.291 627.735 892.483 622.935 897.427C618.135 902.323 611.895 904.771 604.215 904.771C596.391 904.771 590.103 902.347 585.351 897.499C580.647 892.651 578.295 886.483 578.295 878.995ZM592.911 867.043C590.175 870.163 588.807 874.123 588.807 878.923C588.807 883.723 590.223 887.683 593.055 890.803C595.887 893.875 599.607 895.411 604.215 895.411C608.919 895.411 612.663 893.875 615.447 890.803C618.231 887.731 619.623 883.771 619.623 878.923C619.623 874.123 618.207 870.163 615.375 867.043C612.543 863.923 608.799 862.363 604.143 862.363C599.439 862.363 595.695 863.923 592.911 867.043ZM645.015 862.867V894.979H645.591C650.343 895.027 654.063 893.659 656.751 890.875C659.439 888.043 660.783 884.035 660.783 878.851C660.783 873.715 659.439 869.755 656.751 866.971C654.111 864.187 650.391 862.819 645.591 862.867H645.015ZM635.007 854.011H645.087C653.247 854.011 659.631 856.219 664.239 860.635C668.895 865.051 671.223 871.123 671.223 878.851C671.223 886.531 668.895 892.627 664.239 897.139C659.583 901.603 653.199 903.835 645.087 903.835H635.007V854.011Z" fill="white"/>
<path d="M457.566 866.611L443.886 903.835H434.31L420.63 866.611V903.835H411.414V854.011H426.318L439.494 890.803L452.67 854.011H467.214V903.835H457.566V866.611ZM497.243 903.835H474.203V854.011H497.027V863.371H484.211V873.739H496.667V882.955H484.211V894.475H497.243V903.835ZM528.954 863.371H519.882V903.835H509.874V863.371H500.802V854.011H528.954V863.371ZM573.364 854.011V903.835H563.356V883.027H543.484V903.835H533.476V854.011H543.484V873.523H563.356V854.011H573.364ZM578.295 878.995C578.295 871.603 580.695 865.435 585.495 860.491C590.343 855.547 596.511 853.075 603.999 853.075C611.823 853.075 618.135 855.523 622.935 860.419C627.735 865.267 630.135 871.411 630.135 878.851C630.135 886.291 627.735 892.483 622.935 897.427C618.135 902.323 611.895 904.771 604.215 904.771C596.391 904.771 590.103 902.347 585.351 897.499C580.647 892.651 578.295 886.483 578.295 878.995ZM592.911 867.043C590.175 870.163 588.807 874.123 588.807 878.923C588.807 883.723 590.223 887.683 593.055 890.803C595.887 893.875 599.607 895.411 604.215 895.411C608.919 895.411 612.663 893.875 615.447 890.803C618.231 887.731 619.623 883.771 619.623 878.923C619.623 874.123 618.207 870.163 615.375 867.043C612.543 863.923 608.799 862.363 604.143 862.363C599.439 862.363 595.695 863.923 592.911 867.043ZM645.015 862.867V894.979H645.591C650.343 895.027 654.063 893.659 656.751 890.875C659.439 888.043 660.783 884.035 660.783 878.851C660.783 873.715 659.439 869.755 656.751 866.971C654.111 864.187 650.391 862.819 645.591 862.867H645.015ZM635.007 854.011H645.087C653.247 854.011 659.631 856.219 664.239 860.635C668.895 865.051 671.223 871.123 671.223 878.851C671.223 886.531 668.895 892.627 664.239 897.139C659.583 901.603 653.199 903.835 645.087 903.835H635.007V854.011Z" fill="url(#paint5_linear_3_92)"/>
<defs>
<linearGradient id="paint0_linear_3_92" x1="364.066" y1="392.096" x2="813.573" y2="384.585" gradientUnits="userSpaceOnUse">
<stop stop-color="#944C1D"/>
<stop offset="0.4375" stop-color="#E2996A"/>
<stop offset="1" stop-color="#944C1D"/>
</linearGradient>
<linearGradient id="paint1_linear_3_92" x1="193.465" y1="723.133" x2="1107.52" y2="672.102" gradientUnits="userSpaceOnUse">
<stop stop-color="#944C1D"/>
<stop offset="0.4375" stop-color="#E2996A"/>
<stop offset="1" stop-color="#944C1D"/>
</linearGradient>
<linearGradient id="paint2_linear_3_92" x1="193.465" y1="723.133" x2="1107.52" y2="672.102" gradientUnits="userSpaceOnUse">
<stop stop-color="#944C1D"/>
<stop offset="0.4375" stop-color="#E2996A"/>
<stop offset="1" stop-color="#944C1D"/>
</linearGradient>
<linearGradient id="paint3_linear_3_92" x1="193.465" y1="723.133" x2="1107.52" y2="672.102" gradientUnits="userSpaceOnUse">
<stop stop-color="#944C1D"/>
<stop offset="0.4375" stop-color="#E2996A"/>
<stop offset="1" stop-color="#944C1D"/>
</linearGradient>
<linearGradient id="paint4_linear_3_92" x1="193.465" y1="723.133" x2="1107.52" y2="672.102" gradientUnits="userSpaceOnUse">
<stop stop-color="#944C1D"/>
<stop offset="0.4375" stop-color="#E2996A"/>
<stop offset="1" stop-color="#944C1D"/>
</linearGradient>
<linearGradient id="paint5_linear_3_92" x1="408" y1="895.901" x2="757.573" y2="877.085" gradientUnits="userSpaceOnUse">
<stop stop-color="#944C1D"/>
<stop offset="0.4375" stop-color="#E2996A"/>
<stop offset="1" stop-color="#944C1D"/>
</linearGradient>
</defs>
</svg>
