<svg width="1080" height="1080" viewBox="0 0 1080 1080" fill="none" xmlns="http://www.w3.org/2000/svg">
<rect width="1080" height="1080" fill="white"/>
<path d="M493.433 404.541H378.292L400.452 430.111V675.459H465.332V567.382H493.846C519.88 567.382 540.543 559.98 555.781 545.073C571.02 530.217 578.613 510.237 578.613 485.185C578.613 460.133 571.433 439.48 557.124 425.504C542.816 411.529 521.585 404.541 493.433 404.541ZM505.159 504.181C501.026 508.736 495.292 511.066 487.957 511.066H465.332V460.961H487.957C495.292 460.961 501.026 463.135 505.159 467.586C509.343 472.038 511.409 478.042 511.409 485.599C511.409 493.156 509.343 499.626 505.159 504.181Z" fill="url(#paint0_linear_3_167)"/>
<path d="M493.433 404.541H378.292L400.452 430.111V675.459H465.332V567.382H493.846C519.88 567.382 540.543 559.98 555.781 545.073C571.02 530.217 578.613 510.237 578.613 485.185C578.613 460.133 571.433 439.48 557.124 425.504C542.816 411.529 521.585 404.541 493.433 404.541ZM505.159 504.181C501.026 508.736 495.292 511.066 487.957 511.066H465.332V460.961H487.957C495.292 460.961 501.026 463.135 505.159 467.586C509.343 472.038 511.409 478.042 511.409 485.599C511.409 493.156 509.343 499.626 505.159 504.181Z" fill="url(#paint1_linear_3_167)"/>
<path d="M990 675.459H914.582L861.067 592.848C852.699 605.116 844.899 617.021 837.615 628.46C830.332 639.951 823.823 650.251 818.089 659.413C812.355 668.523 808.946 673.906 807.913 675.459H734.872L823.565 535.704L738.023 404.541H817.314L864.58 478.922L910.295 404.541H986.849L902.082 537.671L990 675.459Z" fill="url(#paint2_linear_3_167)"/>
<path d="M990 675.459H914.582L861.067 592.848C852.699 605.116 844.899 617.021 837.615 628.46C830.332 639.951 823.823 650.251 818.089 659.413C812.355 668.523 808.946 673.906 807.913 675.459H734.872L823.565 535.704L738.023 404.541H817.314L864.58 478.922L910.295 404.541H986.849L902.082 537.671L990 675.459Z" fill="url(#paint3_linear_3_167)"/>
<path d="M662.192 614.381H726.245V675.459H597.002V430.111L574.79 404.541H725.109V465.619H662.192V507.546H723.197V567.796H662.192V614.381Z" fill="url(#paint4_linear_3_167)"/>
<path d="M662.192 614.381H726.245V675.459H597.002V430.111L574.79 404.541H725.109V465.619H662.192V507.546H723.197V567.796H662.192V614.381Z" fill="url(#paint5_linear_3_167)"/>
<path d="M250.753 404.541H349.157V675.459H212.631L249.255 612.362H288.513V502.059L167.019 675.459H90L266.87 423.123L250.753 404.541Z" fill="url(#paint6_linear_3_167)"/>
<path d="M250.753 404.541H349.157V675.459H212.631L249.255 612.362H288.513V502.059L167.019 675.459H90L266.87 423.123L250.753 404.541Z" fill="url(#paint7_linear_3_167)"/>
<defs>
<linearGradient id="paint0_linear_3_167" x1="117.43" y1="664.921" x2="990" y2="404.541" gradientUnits="userSpaceOnUse">
<stop stop-color="#E9A07C"/>
<stop offset="0.293269" stop-color="#C56121"/>
<stop offset="0.66" stop-color="#E68758"/>
<stop offset="1" stop-color="#C56121"/>
</linearGradient>
<linearGradient id="paint1_linear_3_167" x1="90" y1="587.459" x2="1276.67" y2="518.598" gradientUnits="userSpaceOnUse">
<stop stop-color="#82502F"/>
<stop offset="0.4375" stop-color="#D09D7C"/>
<stop offset="1" stop-color="#82502F"/>
</linearGradient>
<linearGradient id="paint2_linear_3_167" x1="117.43" y1="664.921" x2="990" y2="404.541" gradientUnits="userSpaceOnUse">
<stop stop-color="#E9A07C"/>
<stop offset="0.293269" stop-color="#C56121"/>
<stop offset="0.66" stop-color="#E68758"/>
<stop offset="1" stop-color="#C56121"/>
</linearGradient>
<linearGradient id="paint3_linear_3_167" x1="90" y1="587.459" x2="1276.67" y2="518.598" gradientUnits="userSpaceOnUse">
<stop stop-color="#82502F"/>
<stop offset="0.4375" stop-color="#D09D7C"/>
<stop offset="1" stop-color="#82502F"/>
</linearGradient>
<linearGradient id="paint4_linear_3_167" x1="117.43" y1="664.921" x2="990" y2="404.541" gradientUnits="userSpaceOnUse">
<stop stop-color="#E9A07C"/>
<stop offset="0.293269" stop-color="#C56121"/>
<stop offset="0.66" stop-color="#E68758"/>
<stop offset="1" stop-color="#C56121"/>
</linearGradient>
<linearGradient id="paint5_linear_3_167" x1="90" y1="587.459" x2="1276.67" y2="518.598" gradientUnits="userSpaceOnUse">
<stop stop-color="#82502F"/>
<stop offset="0.4375" stop-color="#D09D7C"/>
<stop offset="1" stop-color="#82502F"/>
</linearGradient>
<linearGradient id="paint6_linear_3_167" x1="117.43" y1="664.921" x2="990" y2="404.541" gradientUnits="userSpaceOnUse">
<stop stop-color="#E9A07C"/>
<stop offset="0.293269" stop-color="#C56121"/>
<stop offset="0.66" stop-color="#E68758"/>
<stop offset="1" stop-color="#C56121"/>
</linearGradient>
<linearGradient id="paint7_linear_3_167" x1="90" y1="587.459" x2="1276.67" y2="518.598" gradientUnits="userSpaceOnUse">
<stop stop-color="#82502F"/>
<stop offset="0.4375" stop-color="#D09D7C"/>
<stop offset="1" stop-color="#82502F"/>
</linearGradient>
</defs>
</svg>
