<svg width="1080" height="1080" viewBox="0 0 1080 1080" fill="none" xmlns="http://www.w3.org/2000/svg">
<rect width="1080" height="1080" fill="white"/>
<path d="M493.433 361.989H378.292L400.452 387.559V632.906H465.332V524.829H493.846C519.88 524.829 540.543 517.427 555.781 502.52C571.02 487.665 578.613 467.685 578.613 442.633C578.613 417.58 571.433 396.928 557.124 382.952C542.816 368.977 521.585 361.989 493.433 361.989ZM505.159 461.629C501.026 466.184 495.292 468.513 487.957 468.513H465.332V418.408H487.957C495.292 418.408 501.026 420.582 505.159 425.034C509.343 429.485 511.409 435.49 511.409 443.047C511.409 450.604 509.343 457.074 505.159 461.629Z" fill="url(#paint0_linear_1_32)"/>
<path d="M990 632.906H914.582L861.067 550.296C852.699 562.563 844.899 574.468 837.615 585.907C830.332 597.398 823.823 607.699 818.089 616.861C812.355 625.971 808.946 631.354 807.913 632.906H734.872L823.565 493.151L738.023 361.989H817.314L864.58 436.37L910.295 361.989H986.849L902.082 495.118L990 632.906Z" fill="url(#paint1_linear_1_32)"/>
<path d="M662.192 571.828H726.245V632.906H597.002V387.559L574.79 361.989H725.109V423.067H662.192V464.993H723.197V525.243H662.192V571.828Z" fill="url(#paint2_linear_1_32)"/>
<path d="M250.753 361.989H349.157V632.906H212.631L249.255 569.81H288.513V459.507L167.019 632.906H90L266.87 380.571L250.753 361.989Z" fill="url(#paint3_linear_1_32)"/>
<path d="M434.528 735.271L417.048 782.835H404.812L387.332 735.271V782.835H375.556V719.171H394.6L411.436 766.183L428.272 719.171H446.856V782.835H434.528V735.271ZM485.227 782.835H455.787V719.171H484.951V731.131H468.575V744.379H484.491V756.155H468.575V770.875H485.227V782.835ZM525.747 731.131H514.155V782.835H501.367V731.131H489.775V719.171H525.747V731.131ZM582.493 719.171V782.835H569.705V756.247H544.313V782.835H531.525V719.171H544.313V744.103H569.705V719.171H582.493ZM588.794 751.095C588.794 741.65 591.86 733.769 597.994 727.451C604.188 721.134 612.07 717.975 621.638 717.975C631.635 717.975 639.7 721.103 645.834 727.359C651.967 733.554 655.034 741.405 655.034 750.911C655.034 760.418 651.967 768.33 645.834 774.647C639.7 780.903 631.727 784.031 621.914 784.031C611.916 784.031 603.882 780.934 597.81 774.739C591.799 768.545 588.794 760.663 588.794 751.095ZM607.47 735.823C603.974 739.81 602.226 744.87 602.226 751.003C602.226 757.137 604.035 762.197 607.654 766.183C611.272 770.109 616.026 772.071 621.914 772.071C627.924 772.071 632.708 770.109 636.266 766.183C639.823 762.258 641.602 757.198 641.602 751.003C641.602 744.87 639.792 739.81 636.174 735.823C632.555 731.837 627.771 729.843 621.822 729.843C615.811 729.843 611.027 731.837 607.47 735.823ZM674.047 730.487V771.519H674.783C680.855 771.581 685.609 769.833 689.043 766.275C692.478 762.657 694.195 757.535 694.195 750.911C694.195 744.349 692.478 739.289 689.043 735.731C685.67 732.174 680.917 730.426 674.783 730.487H674.047ZM661.259 719.171H674.139C684.566 719.171 692.723 721.993 698.611 727.635C704.561 733.278 707.535 741.037 707.535 750.911C707.535 760.725 704.561 768.514 698.611 774.279C692.662 779.983 684.505 782.835 674.139 782.835H661.259V719.171Z" fill="black"/>
<defs>
<linearGradient id="paint0_linear_1_32" x1="90" y1="544.906" x2="1276.67" y2="476.045" gradientUnits="userSpaceOnUse">
<stop stop-color="#944C1D"/>
<stop offset="0.4375" stop-color="#E2996A"/>
<stop offset="1" stop-color="#944C1D"/>
</linearGradient>
<linearGradient id="paint1_linear_1_32" x1="90" y1="544.906" x2="1276.67" y2="476.045" gradientUnits="userSpaceOnUse">
<stop stop-color="#944C1D"/>
<stop offset="0.4375" stop-color="#E2996A"/>
<stop offset="1" stop-color="#944C1D"/>
</linearGradient>
<linearGradient id="paint2_linear_1_32" x1="90" y1="544.906" x2="1276.67" y2="476.045" gradientUnits="userSpaceOnUse">
<stop stop-color="#944C1D"/>
<stop offset="0.4375" stop-color="#E2996A"/>
<stop offset="1" stop-color="#944C1D"/>
</linearGradient>
<linearGradient id="paint3_linear_1_32" x1="90" y1="544.906" x2="1276.67" y2="476.045" gradientUnits="userSpaceOnUse">
<stop stop-color="#944C1D"/>
<stop offset="0.4375" stop-color="#E2996A"/>
<stop offset="1" stop-color="#944C1D"/>
</linearGradient>
</defs>
</svg>
