<svg width="149" height="100" viewBox="0 0 149 100" fill="none" xmlns="http://www.w3.org/2000/svg">
<rect x="0.5" y="0.5" width="147.5" height="43" rx="4.5" fill="#191715"/>
<rect x="0.5" y="0.5" width="147.5" height="43" rx="4.5" stroke="#393532"/>
<path d="M74.9499 23.9264C72.3627 23.9264 70.254 25.8943 70.254 28.6047C70.254 31.2986 72.3627 33.283 74.9499 33.283C77.5382 33.283 79.6469 31.2986 79.6469 28.6047C79.6458 25.8943 77.5371 23.9264 74.9499 23.9264ZM74.9499 31.4416C73.532 31.4416 72.3099 30.2723 72.3099 28.6058C72.3099 26.9217 73.5331 25.77 74.9499 25.77C76.3678 25.77 77.5899 26.9217 77.5899 28.6058C77.5899 30.2712 76.3678 31.4416 74.9499 31.4416ZM64.7045 23.9264C62.1173 23.9264 60.0086 25.8943 60.0086 28.6047C60.0086 31.2986 62.1173 33.283 64.7045 33.283C67.2928 33.283 69.4015 31.2986 69.4015 28.6047C69.4015 25.8943 67.2928 23.9264 64.7045 23.9264ZM64.7045 31.4416C63.2866 31.4416 62.0645 30.2723 62.0645 28.6058C62.0645 26.9217 63.2877 25.77 64.7045 25.77C66.1224 25.77 67.3445 26.9217 67.3445 28.6058C67.3456 30.2712 66.1224 31.4416 64.7045 31.4416ZM52.5187 25.363V27.3474H57.2685C57.1266 28.4639 56.7548 29.279 56.1872 29.8455C55.4964 30.5363 54.4151 31.2986 52.5187 31.2986C49.5949 31.2986 47.3091 28.9413 47.3091 26.0175C47.3091 23.0937 49.5949 20.7364 52.5187 20.7364C54.0961 20.7364 55.2478 21.3568 56.0981 22.1543L57.4984 20.754C56.3104 19.6199 54.7341 18.752 52.5187 18.752C48.5136 18.752 45.1465 22.0124 45.1465 26.0175C45.1465 30.0226 48.5136 33.283 52.5187 33.283C54.6802 33.283 56.3115 32.5735 57.5864 31.2447C58.8976 29.9335 59.3057 28.0899 59.3057 26.6016C59.3057 26.1418 59.2705 25.7161 59.199 25.3619H52.5187V25.363ZM102.357 26.9041C101.968 25.8591 100.78 23.9264 98.3524 23.9264C95.9423 23.9264 93.9392 25.8228 93.9392 28.6047C93.9392 31.2271 95.9247 33.283 98.5823 33.283C100.726 33.283 101.967 31.9718 102.482 31.2095L100.887 30.1458C100.355 30.9257 99.6284 31.4394 98.5823 31.4394C97.5373 31.4394 96.7926 30.9609 96.3141 30.0215L102.57 27.4343L102.357 26.9041ZM95.9775 28.4639C95.9247 26.6555 97.3778 25.7348 98.4239 25.7348C99.239 25.7348 99.9298 26.1429 100.161 26.727L95.9775 28.4639ZM90.8922 33.0003H92.947V19.2492H90.8922V33.0003ZM87.524 24.9725H87.4536C86.9927 24.4225 86.1061 23.9264 84.9907 23.9264C82.651 23.9264 80.5071 25.9823 80.5071 28.6234C80.5071 31.2458 82.651 33.2841 84.9907 33.2841C86.1072 33.2841 86.9927 32.788 87.4536 32.2215H87.524V32.8947C87.524 34.6844 86.567 35.6414 85.0259 35.6414C83.7675 35.6414 82.9876 34.7383 82.6686 33.976L80.8789 34.7207C81.3926 35.9604 82.7566 37.485 85.0259 37.485C87.436 37.485 89.4743 36.0671 89.4743 32.6109V24.2113H87.5251V24.9725H87.524ZM85.1678 31.4416C83.7499 31.4416 82.563 30.2536 82.563 28.6234C82.563 26.9745 83.7499 25.77 85.1678 25.77C86.567 25.77 87.6659 26.9745 87.6659 28.6234C87.6659 30.2536 86.567 31.4416 85.1678 31.4416ZM111.987 19.2492H107.069V33.0003H109.12V27.7907H111.986C114.261 27.7907 116.498 26.144 116.498 23.5205C116.498 20.897 114.262 19.2492 111.987 19.2492ZM112.04 25.8767H109.12V21.1632H112.04C113.574 21.1632 114.445 22.4337 114.445 23.5205C114.445 24.5853 113.574 25.8767 112.04 25.8767ZM124.725 23.9022C123.239 23.9022 121.7 24.5567 121.063 26.0076L122.885 26.7677C123.274 26.0076 124 25.759 124.76 25.759C125.822 25.759 126.901 26.3959 126.918 27.5278V27.6697C126.546 27.4574 125.75 27.1395 124.778 27.1395C122.814 27.1395 120.814 28.2186 120.814 30.2349C120.814 32.0752 122.425 33.2599 124.229 33.2599C125.608 33.2599 126.369 32.6406 126.847 31.9146H126.917V32.9761H128.899V27.7038C128.9 25.264 127.077 23.9022 124.725 23.9022ZM124.476 31.4383C123.805 31.4383 122.867 31.1017 122.867 30.2701C122.867 29.2086 124.035 28.8016 125.044 28.8016C125.945 28.8016 126.37 28.9963 126.918 29.2614C126.759 30.5363 125.662 31.4383 124.476 31.4383ZM136.118 24.2025L133.765 30.1645H133.694L131.252 24.2025H129.041L132.703 32.535L130.615 37.1704H132.756L138.4 24.2025H136.118ZM117.631 33.0003H119.682V19.2492H117.631V33.0003Z" fill="white"/>
<path d="M52.1589 11.2665C52.1589 12.1883 51.8861 12.922 51.3394 13.4698C50.719 14.121 49.9094 14.4466 48.915 14.4466C47.9624 14.4466 47.1517 14.1166 46.4862 13.4566C45.8196 12.7955 45.4863 11.9771 45.4863 11.0003C45.4863 10.0224 45.8196 9.20403 46.4862 8.54403C47.1517 7.88293 47.9624 7.55293 48.915 7.55293C49.388 7.55293 49.8401 7.64533 50.2691 7.82903C50.6992 8.01383 51.0435 8.25913 51.3009 8.56603L50.7212 9.14683C50.2845 8.62433 49.6828 8.36363 48.9139 8.36363C48.2187 8.36363 47.6181 8.60783 47.111 9.09623C46.6039 9.58463 46.3509 10.2193 46.3509 10.9992C46.3509 11.7791 46.6039 12.4138 47.111 12.9022C47.6181 13.3906 48.2187 13.6348 48.9139 13.6348C49.6509 13.6348 50.2658 13.3895 50.7575 12.8978C51.0765 12.5777 51.2613 12.1322 51.3108 11.5613H48.9139V10.7682H52.1116C52.1446 10.9409 52.1589 11.107 52.1589 11.2665Z" fill="white"/>
<path d="M57.23 8.50999H54.2248V10.6022H56.9352V11.3953H54.2248V13.4875H57.23V14.2993H53.3767V7.69929H57.23V8.50999Z" fill="white"/>
<path d="M60.806 14.2993H59.9579V8.50999H58.1143V7.69929H62.6496V8.50999H60.806V14.2993Z" fill="white"/>
<path d="M65.9309 14.2993V7.69929H66.779V14.2993H65.9309Z" fill="white"/>
<path d="M70.54 14.2993H69.6919V8.50999H67.8483V7.69929H72.3836V8.50999H70.54V14.2993Z" fill="white"/>
<path d="M80.9689 13.4468C80.3199 14.1134 79.5136 14.4467 78.5489 14.4467C77.5842 14.4467 76.7779 14.1134 76.13 13.4468C75.481 12.7802 75.1576 11.964 75.1576 10.9993C75.1576 10.0346 75.481 9.21838 76.13 8.55178C76.7779 7.88518 77.5842 7.55078 78.5489 7.55078C79.5081 7.55078 80.3133 7.88628 80.9645 8.55618C81.6157 9.22608 81.9413 10.0401 81.9413 10.9993C81.9413 11.964 81.6168 12.7802 80.9689 13.4468ZM76.7559 12.8935C77.2443 13.3885 77.8416 13.6349 78.5489 13.6349C79.2562 13.6349 79.8546 13.3874 80.3419 12.8935C80.8303 12.3985 81.0756 11.7671 81.0756 10.9993C81.0756 10.2315 80.8303 9.60008 80.3419 9.10508C79.8546 8.61008 79.2562 8.36368 78.5489 8.36368C77.8416 8.36368 77.2443 8.61118 76.7559 9.10508C76.2686 9.60008 76.0233 10.2315 76.0233 10.9993C76.0233 11.7671 76.2686 12.3985 76.7559 12.8935Z" fill="white"/>
<path d="M83.1315 14.2993V7.69929H84.1633L87.3709 12.833H87.4072L87.3709 11.5614V7.69929H88.219V14.2993H87.3335L83.9774 8.91589H83.9411L83.9774 10.1875V14.2993H83.1315Z" fill="white"/>
<path d="M52.1589 11.2665C52.1589 12.1883 51.8861 12.922 51.3394 13.4698C50.719 14.121 49.9094 14.4466 48.915 14.4466C47.9624 14.4466 47.1517 14.1166 46.4862 13.4566C45.8196 12.7955 45.4863 11.9771 45.4863 11.0003C45.4863 10.0224 45.8196 9.20403 46.4862 8.54403C47.1517 7.88293 47.9624 7.55293 48.915 7.55293C49.388 7.55293 49.8401 7.64533 50.2691 7.82903C50.6992 8.01383 51.0435 8.25913 51.3009 8.56603L50.7212 9.14683C50.2845 8.62433 49.6828 8.36363 48.9139 8.36363C48.2187 8.36363 47.6181 8.60783 47.111 9.09623C46.6039 9.58463 46.3509 10.2193 46.3509 10.9992C46.3509 11.7791 46.6039 12.4138 47.111 12.9022C47.6181 13.3906 48.2187 13.6348 48.9139 13.6348C49.6509 13.6348 50.2658 13.3895 50.7575 12.8978C51.0765 12.5777 51.2613 12.1322 51.3108 11.5613H48.9139V10.7682H52.1116C52.1446 10.9409 52.1589 11.107 52.1589 11.2665Z" stroke="white" stroke-width="0.2" stroke-miterlimit="10"/>
<path d="M57.23 8.50999H54.2248V10.6022H56.9352V11.3953H54.2248V13.4875H57.23V14.2993H53.3767V7.69929H57.23V8.50999Z" stroke="white" stroke-width="0.2" stroke-miterlimit="10"/>
<path d="M60.806 14.2993H59.9579V8.50999H58.1143V7.69929H62.6496V8.50999H60.806V14.2993Z" stroke="white" stroke-width="0.2" stroke-miterlimit="10"/>
<path d="M65.9309 14.2993V7.69929H66.779V14.2993H65.9309Z" stroke="white" stroke-width="0.2" stroke-miterlimit="10"/>
<path d="M70.54 14.2993H69.6919V8.50999H67.8483V7.69929H72.3836V8.50999H70.54V14.2993Z" stroke="white" stroke-width="0.2" stroke-miterlimit="10"/>
<path d="M80.9689 13.4468C80.3199 14.1134 79.5136 14.4467 78.5489 14.4467C77.5842 14.4467 76.7779 14.1134 76.13 13.4468C75.481 12.7802 75.1576 11.964 75.1576 10.9993C75.1576 10.0346 75.481 9.21838 76.13 8.55178C76.7779 7.88518 77.5842 7.55078 78.5489 7.55078C79.5081 7.55078 80.3133 7.88628 80.9645 8.55618C81.6157 9.22608 81.9413 10.0401 81.9413 10.9993C81.9413 11.964 81.6168 12.7802 80.9689 13.4468ZM76.7559 12.8935C77.2443 13.3885 77.8416 13.6349 78.5489 13.6349C79.2562 13.6349 79.8546 13.3874 80.3419 12.8935C80.8303 12.3985 81.0756 11.7671 81.0756 10.9993C81.0756 10.2315 80.8303 9.60008 80.3419 9.10508C79.8546 8.61008 79.2562 8.36368 78.5489 8.36368C77.8416 8.36368 77.2443 8.61118 76.7559 9.10508C76.2686 9.60008 76.0233 10.2315 76.0233 10.9993C76.0233 11.7671 76.2686 12.3985 76.7559 12.8935Z" stroke="white" stroke-width="0.2" stroke-miterlimit="10"/>
<path d="M83.1315 14.2993V7.69929H84.1633L87.3709 12.833H87.4072L87.3709 11.5614V7.69929H88.219V14.2993H87.3335L83.9774 8.91589H83.9411L83.9774 10.1875V14.2993H83.1315Z" stroke="white" stroke-width="0.2" stroke-miterlimit="10"/>
<g filter="url(#filter0_ii_788_347)">
<path d="M11.48 8.29319C11.1599 8.63199 10.9707 9.15779 10.9707 9.83869V34.1663C10.9707 34.8483 11.1599 35.373 11.48 35.7118L11.5614 35.791L25.1893 22.1631V22.0025V21.8419L11.5614 8.21289L11.48 8.29319Z" fill="url(#paint0_linear_788_347)"/>
<path d="M29.7314 26.7071L25.1895 22.163V22.0024V21.8418L29.7325 17.2988L29.8348 17.3571L35.2171 20.4151C36.7538 21.2885 36.7538 22.7174 35.2171 23.5919L29.8348 26.6499L29.7314 26.7071Z" fill="url(#paint1_linear_788_347)"/>
<g filter="url(#filter1_i_788_347)">
<path d="M29.8351 26.6484L25.1887 22.002L11.4805 35.7113C11.9865 36.2481 12.8236 36.3141 13.7663 35.7795L29.8351 26.6484Z" fill="url(#paint2_linear_788_347)"/>
</g>
<path d="M29.8351 17.3552L13.7663 8.22515C12.8236 7.68945 11.9865 7.75655 11.4805 8.29335L25.1898 22.0027L29.8351 17.3552Z" fill="url(#paint3_linear_788_347)"/>
</g>
<rect x="0.5" y="56.5" width="147" height="43" rx="6.5" fill="#191715"/>
<rect x="0.5" y="56.5" width="147" height="43" rx="6.5" stroke="#393532"/>
<path d="M100.548 77.1204V79.6405H98.7765V81.2932H100.548V86.9087C100.548 88.8262 101.52 89.5932 103.967 89.5932C104.397 89.5932 104.806 89.5475 105.165 89.4927V87.8583C104.858 87.8857 104.663 87.904 104.325 87.904C103.23 87.904 102.749 87.4474 102.749 86.4065V81.2932H105.165V79.6405H102.749V77.1204H100.548Z" fill="white"/>
<path d="M111.398 89.7301C114.653 89.7301 116.65 87.7853 116.65 84.5621C116.65 81.3571 114.643 79.4031 111.398 79.4031C108.142 79.4031 106.136 81.3571 106.136 84.5621C106.136 87.7853 108.132 89.7301 111.398 89.7301ZM111.398 87.9861C109.483 87.9861 108.408 86.7352 108.408 84.5621C108.408 82.4072 109.483 81.1471 111.398 81.1471C113.302 81.1471 114.387 82.4072 114.387 84.5621C114.387 86.7261 113.302 87.9861 111.398 87.9861Z" fill="white"/>
<path d="M118.358 89.5384H120.559V83.6672C120.559 82.2702 121.736 81.3297 123.405 81.3297C123.794 81.3297 124.449 81.3937 124.633 81.4484V79.5127C124.398 79.4579 123.978 79.4305 123.651 79.4305C122.197 79.4305 120.958 80.1427 120.641 81.1197H120.477V79.5949H118.358V89.5384Z" fill="white"/>
<path d="M130.099 81.0741C131.727 81.0741 132.791 82.0876 132.842 83.649H127.212C127.335 82.0967 128.471 81.0741 130.099 81.0741ZM132.832 86.8539C132.423 87.63 131.512 88.0592 130.181 88.0592C128.42 88.0592 127.283 86.9543 127.212 85.2103V85.1008H135.084V84.416C135.084 81.2932 133.211 79.4031 130.109 79.4031C126.966 79.4031 124.97 81.421 124.97 84.5986C124.97 87.7761 126.925 89.7301 130.119 89.7301C132.668 89.7301 134.45 88.6344 134.951 86.8539H132.832Z" fill="white"/>
<path d="M86.1132 85.8664C86.2829 88.3081 88.5643 89.8696 91.9598 89.8696C95.5888 89.8696 97.8596 88.2324 97.8596 85.6203C97.8596 83.5667 96.565 82.431 93.4242 81.778L91.737 81.4089C89.7421 80.9925 88.9357 80.4341 88.9357 79.4594C88.9357 78.2291 90.1878 77.4246 92.0659 77.4246C93.8486 77.4246 95.0795 78.2101 95.3023 79.4688H97.6155C97.4776 77.1691 95.2068 75.5508 92.0978 75.5508C88.7553 75.5508 86.527 77.1691 86.527 79.6013C86.527 81.6077 87.7897 82.8001 90.5592 83.3774L92.5328 83.8033C94.5595 84.2291 95.4509 84.8538 95.4509 85.8948C95.4509 87.1062 94.0502 87.9863 92.1402 87.9863C90.0923 87.9863 88.6704 87.1629 88.4688 85.8664H86.1132Z" fill="white"/>
<path d="M63.3121 79.4305C61.797 79.4305 60.4865 80.1062 59.8109 81.2384H59.6471V79.5949H57.5279V92.8437H59.729V88.0318H59.903C60.4865 89.0818 61.7458 89.7027 63.3326 89.7027C66.148 89.7027 67.9395 87.7213 67.9395 84.5621C67.9395 81.4028 66.148 79.4305 63.3121 79.4305ZM62.6876 87.9405C60.8449 87.9405 59.688 86.6439 59.688 84.5712C59.688 82.4894 60.8449 81.1928 62.6979 81.1928C64.5611 81.1928 65.677 82.462 65.677 84.5621C65.677 86.6713 64.5611 87.9405 62.6876 87.9405Z" fill="white"/>
<path d="M75.6415 79.4305C74.1263 79.4305 72.8159 80.1062 72.1402 81.2384H71.9764V79.5949H69.8573V92.8437H72.0583V88.0318H72.2324C72.8159 89.0818 74.0752 89.7027 75.662 89.7027C78.4773 89.7027 80.2689 87.7213 80.2689 84.5621C80.2689 81.4028 78.4773 79.4305 75.6415 79.4305ZM75.017 87.9405C73.1742 87.9405 72.0174 86.6439 72.0174 84.5712C72.0174 82.4894 73.1742 81.1928 75.0273 81.1928C76.8905 81.1928 78.0064 82.462 78.0064 84.5621C78.0064 86.6713 76.8905 87.9405 75.017 87.9405Z" fill="white"/>
<path d="M53.5787 89.5384H56.1042L50.5758 75.882H48.0186L42.4902 89.5384H44.9308L46.342 85.9137H52.1781L53.5787 89.5384ZM49.1752 78.3615H49.3556L51.5733 84.1345H46.9469L49.1752 78.3615Z" fill="white"/>
<path d="M43.9707 65.582V72.1699H46.6376C48.8387 72.1699 50.1133 70.96 50.1133 68.8554C50.1133 66.7827 48.8285 65.582 46.6376 65.582H43.9707ZM45.1173 66.5133H46.5096C48.0402 66.5133 48.9462 67.3807 48.9462 68.8691C48.9462 70.3802 48.0555 71.2385 46.5096 71.2385H45.1173V66.5133Z" fill="white"/>
<path d="M54.0169 72.2657C55.6447 72.2657 56.6428 71.2933 56.6428 69.6817C56.6428 68.0792 55.6396 67.1022 54.0169 67.1022C52.3891 67.1022 51.3858 68.0792 51.3858 69.6817C51.3858 71.2933 52.384 72.2657 54.0169 72.2657ZM54.0169 71.3937C53.0597 71.3937 52.5222 70.7683 52.5222 69.6817C52.5222 68.6043 53.0597 67.9742 54.0169 67.9742C54.969 67.9742 55.5116 68.6043 55.5116 69.6817C55.5116 70.7637 54.969 71.3937 54.0169 71.3937Z" fill="white"/>
<path d="M65.1431 67.1981H64.0426L63.0496 70.992H62.9625L61.8159 67.1981H60.7614L59.6148 70.992H59.5329L58.5348 67.1981H57.4189L58.9545 72.1699H60.0858L61.2324 68.5084H61.3194L62.4711 72.1699H63.6126L65.1431 67.1981Z" fill="white"/>
<path d="M66.4106 72.1699H67.5111V69.2617C67.5111 68.4856 68.0281 68.0016 68.842 68.0016C69.6559 68.0016 70.0449 68.3988 70.0449 69.1978V72.1699H71.1455V68.9512C71.1455 67.7688 70.4595 67.1022 69.2157 67.1022C68.3762 67.1022 67.8234 67.4355 67.5521 67.9879H67.4702V67.1981H66.4106V72.1699Z" fill="white"/>
<path d="M72.8787 72.1699H73.9792V65.2578H72.8787V72.1699Z" fill="white"/>
<path d="M78.1183 72.2657C79.7461 72.2657 80.7443 71.2933 80.7443 69.6817C80.7443 68.0792 79.741 67.1022 78.1183 67.1022C76.4905 67.1022 75.4873 68.0792 75.4873 69.6817C75.4873 71.2933 76.4854 72.2657 78.1183 72.2657ZM78.1183 71.3937C77.1611 71.3937 76.6236 70.7683 76.6236 69.6817C76.6236 68.6043 77.1611 67.9742 78.1183 67.9742C79.0704 67.9742 79.613 68.6043 79.613 69.6817C79.613 70.7637 79.0704 71.3937 78.1183 71.3937Z" fill="white"/>
<path d="M84.0234 71.4257C83.4245 71.4257 82.9894 71.1655 82.9894 70.7181C82.9894 70.2798 83.3375 70.0469 84.1053 70.0013L85.4669 69.9237V70.3391C85.4669 70.9555 84.8526 71.4257 84.0234 71.4257ZM83.7418 72.2521C84.4738 72.2521 85.083 71.969 85.4157 71.4714H85.5027V72.1699H86.5623V68.7732C86.5623 67.7231 85.774 67.1022 84.3766 67.1022C83.1122 67.1022 82.2113 67.6501 82.0987 68.5038H83.1634C83.2863 68.1523 83.7111 67.9514 84.3254 67.9514C85.0779 67.9514 85.4669 68.2482 85.4669 68.7732V69.2023L83.9568 69.28C82.6311 69.353 81.8837 69.8689 81.8837 70.7637C81.8837 71.6722 82.6669 72.2521 83.7418 72.2521Z" fill="white"/>
<path d="M90.297 72.2521C91.0648 72.2521 91.7149 71.9279 92.0476 71.3846H92.1347V72.1699H93.1891V65.2578H92.0886V67.9879H92.0067C91.7047 67.4401 91.0597 67.1159 90.297 67.1159C88.8893 67.1159 87.9833 68.1112 87.9833 69.6817C87.9833 71.2568 88.8791 72.2521 90.297 72.2521ZM90.6093 67.9971C91.5306 67.9971 92.1091 68.6499 92.1091 69.6863C92.1091 70.7272 91.5358 71.3709 90.6093 71.3709C89.6776 71.3709 89.1197 70.7363 89.1197 69.6817C89.1197 68.6362 89.6827 67.9971 90.6093 67.9971Z" fill="white"/>
<path d="M100.326 72.2657C101.954 72.2657 102.952 71.2933 102.952 69.6817C102.952 68.0792 101.948 67.1022 100.326 67.1022C98.698 67.1022 97.6947 68.0792 97.6947 69.6817C97.6947 71.2933 98.6929 72.2657 100.326 72.2657ZM100.326 71.3937C99.3686 71.3937 98.8311 70.7683 98.8311 69.6817C98.8311 68.6043 99.3686 67.9742 100.326 67.9742C101.278 67.9742 101.82 68.6043 101.82 69.6817C101.82 70.7637 101.278 71.3937 100.326 71.3937Z" fill="white"/>
<path d="M104.409 72.1699H105.509V69.2617C105.509 68.4856 106.026 68.0016 106.84 68.0016C107.654 68.0016 108.043 68.3988 108.043 69.1978V72.1699H109.143V68.9512C109.143 67.7688 108.458 67.1022 107.214 67.1022C106.374 67.1022 105.821 67.4355 105.55 67.9879H105.468V67.1981H104.409V72.1699Z" fill="white"/>
<path d="M114.212 65.9609V67.2209H113.327V68.0473H114.212V70.855C114.212 71.8138 114.698 72.1973 115.922 72.1973C116.137 72.1973 116.342 72.1744 116.521 72.147V71.3298C116.367 71.3435 116.27 71.3527 116.101 71.3527C115.553 71.3527 115.313 71.1244 115.313 70.6039V68.0473H116.521V67.2209H115.313V65.9609H114.212Z" fill="white"/>
<path d="M117.998 72.1699H119.099V69.2663C119.099 68.513 119.6 68.0062 120.501 68.0062C121.279 68.0062 121.694 68.408 121.694 69.2023V72.1699H122.794V68.9604C122.794 67.7779 122.062 67.1068 120.875 67.1068C120.035 67.1068 119.447 67.4401 119.175 67.9971H119.088V65.2578H117.998V72.1699Z" fill="white"/>
<path d="M126.764 67.9377C127.578 67.9377 128.111 68.4445 128.136 69.2252H125.321C125.382 68.449 125.951 67.9377 126.764 67.9377ZM128.131 70.8276C127.926 71.2157 127.471 71.4303 126.805 71.4303C125.925 71.4303 125.357 70.8779 125.321 70.0059V69.9511H129.257V69.6087C129.257 68.0473 128.321 67.1022 126.77 67.1022C125.198 67.1022 124.2 68.1112 124.2 69.7C124.2 71.2887 125.178 72.2657 126.775 72.2657C128.049 72.2657 128.94 71.7179 129.191 70.8276H128.131Z" fill="white"/>
<path d="M30.5488 78.3302C30.5756 76.4811 31.689 74.7314 33.4553 73.7629C32.341 72.3436 30.4746 71.4437 28.5328 71.3895C26.4618 71.1956 24.454 72.4948 23.3986 72.4948C22.3228 72.4948 20.6979 71.4087 18.9481 71.4408C16.6674 71.5066 14.5411 72.6631 13.4315 74.4415C11.0462 78.1248 12.8254 83.5379 15.1103 86.5152C16.2535 87.9731 17.5895 89.6016 19.3377 89.5438C21.0484 89.4805 21.6874 88.5709 23.7523 88.5709C25.7981 88.5709 26.3976 89.5438 28.1812 89.5071C30.0169 89.4805 31.1735 88.0427 32.2765 86.571C33.0979 85.5322 33.7299 84.3841 34.1492 83.1693C31.992 82.3555 30.5514 80.4192 30.5488 78.3302Z" fill="white"/>
<path d="M27.1798 69.4315C28.1807 68.3598 28.6738 66.9825 28.5544 65.5918C27.0252 65.735 25.6128 66.3869 24.5984 67.4174C23.6064 68.4242 23.0902 69.7774 23.1878 71.1149C24.7175 71.1289 26.2213 70.4948 27.1798 69.4315Z" fill="white"/>
<defs>
<filter id="filter0_ii_788_347" x="10.9707" y="7.85547" width="25.3984" height="28.293" filterUnits="userSpaceOnUse" color-interpolation-filters="sRGB">
<feFlood flood-opacity="0" result="BackgroundImageFix"/>
<feBlend mode="normal" in="SourceGraphic" in2="BackgroundImageFix" result="shape"/>
<feColorMatrix in="SourceAlpha" type="matrix" values="0 0 0 0 0 0 0 0 0 0 0 0 0 0 0 0 0 0 127 0" result="hardAlpha"/>
<feOffset dy="-0.15"/>
<feComposite in2="hardAlpha" operator="arithmetic" k2="-1" k3="1"/>
<feColorMatrix type="matrix" values="0 0 0 0 0 0 0 0 0 0 0 0 0 0 0 0 0 0 0.12 0"/>
<feBlend mode="normal" in2="shape" result="effect1_innerShadow_788_347"/>
<feColorMatrix in="SourceAlpha" type="matrix" values="0 0 0 0 0 0 0 0 0 0 0 0 0 0 0 0 0 0 127 0" result="hardAlpha"/>
<feOffset dy="0.15"/>
<feComposite in2="hardAlpha" operator="arithmetic" k2="-1" k3="1"/>
<feColorMatrix type="matrix" values="0 0 0 0 1 0 0 0 0 1 0 0 0 0 1 0 0 0 0.25 0"/>
<feBlend mode="normal" in2="effect1_innerShadow_788_347" result="effect2_innerShadow_788_347"/>
</filter>
<filter id="filter1_i_788_347" x="11.4805" y="22.002" width="18.3555" height="14.1465" filterUnits="userSpaceOnUse" color-interpolation-filters="sRGB">
<feFlood flood-opacity="0" result="BackgroundImageFix"/>
<feBlend mode="normal" in="SourceGraphic" in2="BackgroundImageFix" result="shape"/>
<feColorMatrix in="SourceAlpha" type="matrix" values="0 0 0 0 0 0 0 0 0 0 0 0 0 0 0 0 0 0 127 0" result="hardAlpha"/>
<feOffset dy="-0.15"/>
<feComposite in2="hardAlpha" operator="arithmetic" k2="-1" k3="1"/>
<feColorMatrix type="matrix" values="0 0 0 0 0 0 0 0 0 0 0 0 0 0 0 0 0 0 0.08 0"/>
<feBlend mode="normal" in2="shape" result="effect1_innerShadow_788_347"/>
</filter>
<linearGradient id="paint0_linear_788_347" x1="23.9813" y1="9.58129" x2="5.52109" y2="28.0415" gradientUnits="userSpaceOnUse">
<stop stop-color="#00A0FF"/>
<stop offset="0.0066" stop-color="#00A1FF"/>
<stop offset="0.2601" stop-color="#00BEFF"/>
<stop offset="0.5122" stop-color="#00D2FF"/>
<stop offset="0.7604" stop-color="#00DFFF"/>
<stop offset="1" stop-color="#00E3FF"/>
</linearGradient>
<linearGradient id="paint1_linear_788_347" x1="37.2174" y1="22.0024" x2="10.6019" y2="22.0024" gradientUnits="userSpaceOnUse">
<stop stop-color="#FFE000"/>
<stop offset="0.4087" stop-color="#FFBD00"/>
<stop offset="0.7754" stop-color="#FFA500"/>
<stop offset="1" stop-color="#FF9C00"/>
</linearGradient>
<linearGradient id="paint2_linear_788_347" x1="27.3118" y1="24.5252" x2="2.27744" y2="49.5596" gradientUnits="userSpaceOnUse">
<stop stop-color="#FF3A44"/>
<stop offset="1" stop-color="#C31162"/>
</linearGradient>
<linearGradient id="paint3_linear_788_347" x1="8.02801" y1="0.194931" x2="19.2065" y2="11.3735" gradientUnits="userSpaceOnUse">
<stop stop-color="#32A071"/>
<stop offset="0.0685" stop-color="#2DA771"/>
<stop offset="0.4762" stop-color="#15CF74"/>
<stop offset="0.8009" stop-color="#06E775"/>
<stop offset="1" stop-color="#00F076"/>
</linearGradient>
</defs>
</svg>
