<svg width="193" height="24" viewBox="0 0 193 24" fill="none" xmlns="http://www.w3.org/2000/svg">
<g clip-path="url(#clip0_788_352)">
<path d="M24 12C24 5.37258 18.6274 0 12 0C5.37258 0 0 5.37258 0 12C0 17.9895 4.3882 22.954 10.125 23.8542V15.4688H7.07812V12H10.125V9.35625C10.125 6.34875 11.9166 4.6875 14.6576 4.6875C15.9701 4.6875 17.3438 4.92188 17.3438 4.92188V7.875H15.8306C14.34 7.875 13.875 8.80008 13.875 9.75V12H17.2031L16.6711 15.4688H13.875V23.8542C19.6118 22.954 24 17.9895 24 12Z" fill="#87817D"/>
</g>
<g clip-path="url(#clip1_788_352)">
<path d="M73.0725 0H69.0278V16.3478C69.0278 18.2957 67.4722 19.8957 65.5363 19.8957C63.6003 19.8957 62.0447 18.2957 62.0447 16.3478C62.0447 14.4348 63.5658 12.8695 65.4326 12.8V8.69567C61.3187 8.7652 58 12.1391 58 16.3478C58 20.5913 61.3879 24 65.5708 24C69.7538 24 73.1416 20.5565 73.1416 16.3478V7.9652C74.6627 9.07827 76.5295 9.73913 78.5 9.77393V5.66957C75.4579 5.56522 73.0725 3.06087 73.0725 0Z" fill="#87817D"/>
</g>
<g clip-path="url(#clip2_788_352)">
<path d="M124 2.16094C127.206 2.16094 127.586 2.175 128.847 2.23125C130.019 2.28281 130.652 2.47969 131.073 2.64375C131.631 2.85938 132.034 3.12188 132.452 3.53906C132.873 3.96094 133.131 4.35938 133.347 4.91719C133.511 5.33906 133.708 5.97656 133.759 7.14375C133.816 8.40937 133.83 8.78906 133.83 11.9906C133.83 15.1969 133.816 15.5766 133.759 16.8375C133.708 18.0094 133.511 18.6422 133.347 19.0641C133.131 19.6219 132.869 20.025 132.452 20.4422C132.03 20.8641 131.631 21.1219 131.073 21.3375C130.652 21.5016 130.014 21.6984 128.847 21.75C127.581 21.8062 127.202 21.8203 124 21.8203C120.794 21.8203 120.414 21.8062 119.153 21.75C117.981 21.6984 117.348 21.5016 116.927 21.3375C116.369 21.1219 115.966 20.8594 115.548 20.4422C115.127 20.0203 114.869 19.6219 114.653 19.0641C114.489 18.6422 114.292 18.0047 114.241 16.8375C114.184 15.5719 114.17 15.1922 114.17 11.9906C114.17 8.78438 114.184 8.40469 114.241 7.14375C114.292 5.97187 114.489 5.33906 114.653 4.91719C114.869 4.35938 115.131 3.95625 115.548 3.53906C115.97 3.11719 116.369 2.85938 116.927 2.64375C117.348 2.47969 117.986 2.28281 119.153 2.23125C120.414 2.175 120.794 2.16094 124 2.16094ZM124 0C120.742 0 120.334 0.0140625 119.055 0.0703125C117.78 0.126563 116.903 0.332812 116.144 0.628125C115.352 0.9375 114.681 1.34531 114.016 2.01562C113.345 2.68125 112.938 3.35156 112.628 4.13906C112.333 4.90313 112.127 5.775 112.07 7.05C112.014 8.33437 112 8.74219 112 12C112 15.2578 112.014 15.6656 112.07 16.9453C112.127 18.2203 112.333 19.0969 112.628 19.8563C112.938 20.6484 113.345 21.3188 114.016 21.9844C114.681 22.65 115.352 23.0625 116.139 23.3672C116.903 23.6625 117.775 23.8687 119.05 23.925C120.33 23.9812 120.738 23.9953 123.995 23.9953C127.253 23.9953 127.661 23.9812 128.941 23.925C130.216 23.8687 131.092 23.6625 131.852 23.3672C132.639 23.0625 133.309 22.65 133.975 21.9844C134.641 21.3188 135.053 20.6484 135.358 19.8609C135.653 19.0969 135.859 18.225 135.916 16.95C135.972 15.6703 135.986 15.2625 135.986 12.0047C135.986 8.74688 135.972 8.33906 135.916 7.05938C135.859 5.78438 135.653 4.90781 135.358 4.14844C135.062 3.35156 134.655 2.68125 133.984 2.01562C133.319 1.35 132.648 0.9375 131.861 0.632812C131.097 0.3375 130.225 0.13125 128.95 0.075C127.666 0.0140625 127.258 0 124 0Z" fill="#87817D"/>
<path d="M124 5.83594C120.597 5.83594 117.836 8.59688 117.836 12C117.836 15.4031 120.597 18.1641 124 18.1641C127.403 18.1641 130.164 15.4031 130.164 12C130.164 8.59688 127.403 5.83594 124 5.83594ZM124 15.9984C121.792 15.9984 120.002 14.2078 120.002 12C120.002 9.79219 121.792 8.00156 124 8.00156C126.208 8.00156 127.998 9.79219 127.998 12C127.998 14.2078 126.208 15.9984 124 15.9984Z" fill="#87817D"/>
<path d="M131.847 5.59141C131.847 6.38828 131.2 7.03047 130.408 7.03047C129.611 7.03047 128.969 6.3836 128.969 5.59141C128.969 4.79453 129.616 4.15234 130.408 4.15234C131.2 4.15234 131.847 4.79922 131.847 5.59141Z" fill="#87817D"/>
</g>
<g clip-path="url(#clip3_788_352)">
<path d="M191.761 7.20078C191.761 7.20078 191.527 5.54609 190.805 4.81953C189.891 3.86328 188.869 3.85859 188.4 3.80234C185.044 3.55859 180.005 3.55859 180.005 3.55859H179.995C179.995 3.55859 174.956 3.55859 171.6 3.80234C171.131 3.85859 170.109 3.86328 169.195 4.81953C168.473 5.54609 168.244 7.20078 168.244 7.20078C168.244 7.20078 168 9.14609 168 11.0867V12.9055C168 14.8461 168.239 16.7914 168.239 16.7914C168.239 16.7914 168.473 18.4461 169.191 19.1727C170.105 20.1289 171.305 20.0961 171.839 20.1992C173.761 20.382 180 20.4383 180 20.4383C180 20.4383 185.044 20.4289 188.4 20.1898C188.869 20.1336 189.891 20.1289 190.805 19.1727C191.527 18.4461 191.761 16.7914 191.761 16.7914C191.761 16.7914 192 14.8508 192 12.9055V11.0867C192 9.14609 191.761 7.20078 191.761 7.20078ZM177.52 15.1133V8.36797L184.003 11.7523L177.52 15.1133Z" fill="#87817D"/>
</g>
<defs>
<clipPath id="clip0_788_352">
<rect width="24" height="24" fill="white"/>
</clipPath>
<clipPath id="clip1_788_352">
<rect width="24" height="24" fill="white" transform="translate(56)"/>
</clipPath>
<clipPath id="clip2_788_352">
<rect width="24" height="24" fill="white" transform="translate(112)"/>
</clipPath>
<clipPath id="clip3_788_352">
<rect width="24" height="24" fill="white" transform="translate(168)"/>
</clipPath>
</defs>
</svg>
